M48
; DRILL file {KiCad 9.0.7} date 2026-01-26T17:00:07+0100
; FORMAT={-:-/ absolute / inch / decimal}
; #@! TF.CreationDate,2026-01-26T17:00:07+01:00
; #@! TF.GenerationSoftware,Kicad,Pcbnew,9.0.7
; #@! TF.FileFunction,Plated,1,4,PTH
FMAT,2
INCH
; #@! TA.AperFunction,Plated,PTH,ViaDrill
T1C0.0118
; #@! TA.AperFunction,Plated,PTH,ComponentDrill
T2C0.0118
; #@! TA.AperFunction,Plated,PTH,ComponentDrill
T3C0.0295
; #@! TA.AperFunction,Plated,PTH,ComponentDrill
T4C0.0394
; #@! TA.AperFunction,Plated,PTH,ComponentDrill
T5C0.1063
%
G90
G05
T1
X5.4921Y-4.0354
X5.5315Y-3.6417
X5.5315Y-3.878
X5.6004Y-3.9075
X5.6102Y-3.622
X5.6496Y-3.5039
X5.689Y-3.6417
X5.6969Y-3.7992
X5.7087Y-4.0354
X5.7185Y-4.124
X5.729Y-3.7254
X5.7677Y-3.6978
X5.7677Y-3.8071
X5.9154Y-3.9862
X5.9213Y-3.8504
X5.9744Y-3.937
X6.1417Y-3.6909
X6.1417Y-3.7244
X6.1516Y-3.7697
X6.1516Y-3.8386
X6.1614Y-3.4449
X6.2205Y-3.4528
X6.3287Y-3.6516
X6.3386Y-3.7205
X6.3681Y-3.622
X6.4075Y-3.8189
X6.4173Y-3.6417
X6.4567Y-3.937
X6.4764Y-3.6417
X6.5197Y-3.8071
X6.5984Y-3.8268
X6.6142Y-3.6417
X6.6142Y-3.8976
X6.6181Y-3.9606
X6.624Y-3.5039
X6.6535Y-3.6319
X6.685Y-3.6732
X6.6929Y-3.4331
X6.6929Y-3.4646
X6.7441Y-3.6693
X6.7717Y-3.4055
X6.8012Y-3.563
X6.8012Y-3.6811
X6.8209Y-3.748
X6.8209Y-4.065
X6.8504Y-3.3858
X6.9291Y-3.4941
X6.939Y-3.435
X6.998Y-4.1535
X7.0079Y-3.5039
X7.0354Y-4.1535
X7.0418Y-3.4363
X7.0768Y-4.1535
X7.1654Y-3.3858
X7.2047Y-3.5728
X7.2047Y-3.622
X7.2047Y-3.8012
X7.2146Y-3.8484
X7.2244Y-3.7205
X7.2559Y-4.1535
X7.2638Y-3.3858
X7.2835Y-3.7402
X7.3819Y-3.563
X7.4213Y-3.8583
T2
X5.9301Y-3.6142
X5.9301Y-3.6772
X5.9301Y-3.7402
X5.9301Y-3.8031
X6.0187Y-3.6142
X6.0187Y-3.6772
X6.0187Y-3.7402
X6.0187Y-3.8031
X6.939Y-3.6407
X6.939Y-3.7037
X6.939Y-3.7667
X6.939Y-3.8297
X7.0276Y-3.6407
X7.0276Y-3.7037
X7.0276Y-3.7667
X7.0276Y-3.8297
T3
X5.3248Y-3.5925
X5.3248Y-3.6713
X5.3248Y-3.75
X5.3248Y-3.8287
X6.1024Y-4.1654
X6.1811Y-4.1654
X6.2598Y-4.1654
X6.3386Y-4.1654
X6.4173Y-4.1654
X6.4961Y-4.1654
X7.5571Y-3.6142
X7.5571Y-3.6929
X7.5571Y-3.7717
X7.5571Y-3.8504
T4
X5.4882Y-3.2087
X5.4882Y-3.3087
X5.5882Y-3.2087
X5.5882Y-3.3087
X5.6882Y-3.2087
X5.6882Y-3.3087
X5.7882Y-3.2087
X5.7882Y-3.3087
X5.8882Y-3.2087
X5.8882Y-3.3087
X5.9882Y-3.2087
X5.9882Y-3.3087
X6.0882Y-3.2087
X6.0882Y-3.3087
X6.1882Y-3.2087
X6.1882Y-3.3087
X6.2882Y-3.2087
X6.2882Y-3.3087
X6.3882Y-3.2087
X6.3882Y-3.3087
X6.4882Y-3.2087
X6.4882Y-3.3087
X6.5882Y-3.2087
X6.5882Y-3.3087
X6.6882Y-3.2087
X6.6882Y-3.3087
X6.7224Y-4.1929
X6.7882Y-3.2087
X6.7882Y-3.3087
X6.8209Y-4.1929
X6.8882Y-3.2087
X6.8882Y-3.3087
X6.9882Y-3.2087
X6.9882Y-3.3087
X7.0882Y-3.2087
X7.0882Y-3.3087
X7.1882Y-3.2087
X7.1882Y-3.3087
X7.2882Y-3.2087
X7.2882Y-3.3087
X7.3882Y-3.2087
X7.3882Y-3.3087
T5
X5.2953Y-3.2598
X5.2953Y-4.1654
X7.5787Y-3.2598
X7.5787Y-4.1654
M30
