%TF.GenerationSoftware,KiCad,Pcbnew,9.0.7*%
%TF.CreationDate,2026-01-26T16:36:39+01:00*%
%TF.ProjectId,Robot,526f626f-742e-46b6-9963-61645f706362,rev?*%
%TF.SameCoordinates,Original*%
%TF.FileFunction,Soldermask,Bot*%
%TF.FilePolarity,Negative*%
%FSLAX46Y46*%
G04 Gerber Fmt 4.6, Leading zero omitted, Abs format (unit mm)*
G04 Created by KiCad (PCBNEW 9.0.7) date 2026-01-26 16:36:39*
%MOMM*%
%LPD*%
G01*
G04 APERTURE LIST*
G04 Aperture macros list*
%AMRoundRect*
0 Rectangle with rounded corners*
0 $1 Rounding radius*
0 $2 $3 $4 $5 $6 $7 $8 $9 X,Y pos of 4 corners*
0 Add a 4 corners polygon primitive as box body*
4,1,4,$2,$3,$4,$5,$6,$7,$8,$9,$2,$3,0*
0 Add four circle primitives for the rounded corners*
1,1,$1+$1,$2,$3*
1,1,$1+$1,$4,$5*
1,1,$1+$1,$6,$7*
1,1,$1+$1,$8,$9*
0 Add four rect primitives between the rounded corners*
20,1,$1+$1,$2,$3,$4,$5,0*
20,1,$1+$1,$4,$5,$6,$7,0*
20,1,$1+$1,$6,$7,$8,$9,0*
20,1,$1+$1,$8,$9,$2,$3,0*%
G04 Aperture macros list end*
%ADD10RoundRect,0.250000X-0.625000X0.350000X-0.625000X-0.350000X0.625000X-0.350000X0.625000X0.350000X0*%
%ADD11O,1.750000X1.200000*%
%ADD12C,5.400000*%
%ADD13RoundRect,0.250000X0.600000X0.750000X-0.600000X0.750000X-0.600000X-0.750000X0.600000X-0.750000X0*%
%ADD14O,1.700000X2.000000*%
%ADD15RoundRect,0.250000X-0.350000X-0.625000X0.350000X-0.625000X0.350000X0.625000X-0.350000X0.625000X0*%
%ADD16O,1.200000X1.750000*%
%ADD17RoundRect,0.250000X0.625000X-0.350000X0.625000X0.350000X-0.625000X0.350000X-0.625000X-0.350000X0*%
%ADD18R,1.700000X1.700000*%
%ADD19C,1.700000*%
G04 APERTURE END LIST*
D10*
%TO.C,J4*%
X135250000Y-91250000D03*
D11*
X135250000Y-93250000D03*
X135250000Y-95250000D03*
X135250000Y-97250000D03*
%TD*%
D12*
%TO.C,H4*%
X192500000Y-105800000D03*
%TD*%
D13*
%TO.C,J5*%
X173250000Y-106500000D03*
D14*
X170750000Y-106500000D03*
%TD*%
D15*
%TO.C,J2*%
X155000000Y-105800000D03*
D16*
X157000000Y-105800000D03*
X159000000Y-105800000D03*
X161000000Y-105800000D03*
X163000000Y-105800000D03*
X165000000Y-105800000D03*
%TD*%
D12*
%TO.C,H1*%
X134500000Y-82800000D03*
%TD*%
%TO.C,H2*%
X192500000Y-82800000D03*
%TD*%
%TO.C,H3*%
X134500000Y-105800000D03*
%TD*%
D17*
%TO.C,J3*%
X191950000Y-97800000D03*
D11*
X191950000Y-95800000D03*
X191950000Y-93800000D03*
X191950000Y-91800000D03*
%TD*%
D18*
%TO.C,J1*%
X139400000Y-84040000D03*
D19*
X139400000Y-81500000D03*
X141940000Y-84040000D03*
X141940000Y-81500000D03*
X144480000Y-84040000D03*
X144480000Y-81500000D03*
X147020000Y-84040000D03*
X147020000Y-81500000D03*
X149560000Y-84040000D03*
X149560000Y-81500000D03*
X152100000Y-84040000D03*
X152100000Y-81500000D03*
X154640000Y-84040000D03*
X154640000Y-81500000D03*
X157180000Y-84040000D03*
X157180000Y-81500000D03*
X159720000Y-84040000D03*
X159720000Y-81500000D03*
X162260000Y-84040000D03*
X162260000Y-81500000D03*
X164800000Y-84040000D03*
X164800000Y-81500000D03*
X167340000Y-84040000D03*
X167340000Y-81500000D03*
X169880000Y-84040000D03*
X169880000Y-81500000D03*
X172420000Y-84040000D03*
X172420000Y-81500000D03*
X174960000Y-84040000D03*
X174960000Y-81500000D03*
X177500000Y-84040000D03*
X177500000Y-81500000D03*
X180040000Y-84040000D03*
X180040000Y-81500000D03*
X182580000Y-84040000D03*
X182580000Y-81500000D03*
X185120000Y-84040000D03*
X185120000Y-81500000D03*
X187660000Y-84040000D03*
X187660000Y-81500000D03*
%TD*%
M02*
