%TF.GenerationSoftware,KiCad,Pcbnew,9.0.7*%
%TF.CreationDate,2026-01-26T17:00:03+01:00*%
%TF.ProjectId,Robot,526f626f-742e-46b6-9963-61645f706362,rev?*%
%TF.SameCoordinates,Original*%
%TF.FileFunction,Legend,Bot*%
%TF.FilePolarity,Positive*%
%FSLAX46Y46*%
G04 Gerber Fmt 4.6, Leading zero omitted, Abs format (unit mm)*
G04 Created by KiCad (PCBNEW 9.0.7) date 2026-01-26 17:00:03*
%MOMM*%
%LPD*%
G01*
G04 APERTURE LIST*
%ADD10C,0.200000*%
%ADD11C,0.150000*%
%ADD12C,0.300000*%
%ADD13C,0.120000*%
%ADD14C,0.000000*%
G04 APERTURE END LIST*
D10*
X155177945Y-88726196D02*
X155177945Y-87226196D01*
X155177945Y-87226196D02*
X154911279Y-88297625D01*
X154911279Y-88297625D02*
X154644612Y-87226196D01*
X154644612Y-87226196D02*
X154644612Y-88726196D01*
X153920802Y-88726196D02*
X153920802Y-87940482D01*
X153920802Y-87940482D02*
X153958897Y-87797625D01*
X153958897Y-87797625D02*
X154035088Y-87726196D01*
X154035088Y-87726196D02*
X154187469Y-87726196D01*
X154187469Y-87726196D02*
X154263659Y-87797625D01*
X153920802Y-88654768D02*
X153996993Y-88726196D01*
X153996993Y-88726196D02*
X154187469Y-88726196D01*
X154187469Y-88726196D02*
X154263659Y-88654768D01*
X154263659Y-88654768D02*
X154301755Y-88511910D01*
X154301755Y-88511910D02*
X154301755Y-88369053D01*
X154301755Y-88369053D02*
X154263659Y-88226196D01*
X154263659Y-88226196D02*
X154187469Y-88154768D01*
X154187469Y-88154768D02*
X153996993Y-88154768D01*
X153996993Y-88154768D02*
X153920802Y-88083339D01*
X153539849Y-87726196D02*
X153539849Y-88726196D01*
X153539849Y-87869053D02*
X153501754Y-87797625D01*
X153501754Y-87797625D02*
X153425564Y-87726196D01*
X153425564Y-87726196D02*
X153311278Y-87726196D01*
X153311278Y-87726196D02*
X153235087Y-87797625D01*
X153235087Y-87797625D02*
X153196992Y-87940482D01*
X153196992Y-87940482D02*
X153196992Y-88726196D01*
X152511277Y-88654768D02*
X152587468Y-88726196D01*
X152587468Y-88726196D02*
X152739849Y-88726196D01*
X152739849Y-88726196D02*
X152816039Y-88654768D01*
X152816039Y-88654768D02*
X152854135Y-88511910D01*
X152854135Y-88511910D02*
X152854135Y-87940482D01*
X152854135Y-87940482D02*
X152816039Y-87797625D01*
X152816039Y-87797625D02*
X152739849Y-87726196D01*
X152739849Y-87726196D02*
X152587468Y-87726196D01*
X152587468Y-87726196D02*
X152511277Y-87797625D01*
X152511277Y-87797625D02*
X152473182Y-87940482D01*
X152473182Y-87940482D02*
X152473182Y-88083339D01*
X152473182Y-88083339D02*
X152854135Y-88226196D01*
X152016040Y-88726196D02*
X152092230Y-88654768D01*
X152092230Y-88654768D02*
X152130325Y-88511910D01*
X152130325Y-88511910D02*
X152130325Y-87226196D01*
X150835087Y-87940482D02*
X150720801Y-88011910D01*
X150720801Y-88011910D02*
X150682706Y-88083339D01*
X150682706Y-88083339D02*
X150644610Y-88226196D01*
X150644610Y-88226196D02*
X150644610Y-88440482D01*
X150644610Y-88440482D02*
X150682706Y-88583339D01*
X150682706Y-88583339D02*
X150720801Y-88654768D01*
X150720801Y-88654768D02*
X150796991Y-88726196D01*
X150796991Y-88726196D02*
X151101753Y-88726196D01*
X151101753Y-88726196D02*
X151101753Y-87226196D01*
X151101753Y-87226196D02*
X150835087Y-87226196D01*
X150835087Y-87226196D02*
X150758896Y-87297625D01*
X150758896Y-87297625D02*
X150720801Y-87369053D01*
X150720801Y-87369053D02*
X150682706Y-87511910D01*
X150682706Y-87511910D02*
X150682706Y-87654768D01*
X150682706Y-87654768D02*
X150720801Y-87797625D01*
X150720801Y-87797625D02*
X150758896Y-87869053D01*
X150758896Y-87869053D02*
X150835087Y-87940482D01*
X150835087Y-87940482D02*
X151101753Y-87940482D01*
X149996991Y-88654768D02*
X150073182Y-88726196D01*
X150073182Y-88726196D02*
X150225563Y-88726196D01*
X150225563Y-88726196D02*
X150301753Y-88654768D01*
X150301753Y-88654768D02*
X150339849Y-88511910D01*
X150339849Y-88511910D02*
X150339849Y-87940482D01*
X150339849Y-87940482D02*
X150301753Y-87797625D01*
X150301753Y-87797625D02*
X150225563Y-87726196D01*
X150225563Y-87726196D02*
X150073182Y-87726196D01*
X150073182Y-87726196D02*
X149996991Y-87797625D01*
X149996991Y-87797625D02*
X149958896Y-87940482D01*
X149958896Y-87940482D02*
X149958896Y-88083339D01*
X149958896Y-88083339D02*
X150339849Y-88226196D01*
X149616039Y-87726196D02*
X149616039Y-88726196D01*
X149616039Y-87869053D02*
X149577944Y-87797625D01*
X149577944Y-87797625D02*
X149501754Y-87726196D01*
X149501754Y-87726196D02*
X149387468Y-87726196D01*
X149387468Y-87726196D02*
X149311277Y-87797625D01*
X149311277Y-87797625D02*
X149273182Y-87940482D01*
X149273182Y-87940482D02*
X149273182Y-88726196D01*
X148892229Y-88726196D02*
X148892229Y-87226196D01*
X148892229Y-87797625D02*
X148816039Y-87726196D01*
X148816039Y-87726196D02*
X148663658Y-87726196D01*
X148663658Y-87726196D02*
X148587467Y-87797625D01*
X148587467Y-87797625D02*
X148549372Y-87869053D01*
X148549372Y-87869053D02*
X148511277Y-88011910D01*
X148511277Y-88011910D02*
X148511277Y-88440482D01*
X148511277Y-88440482D02*
X148549372Y-88583339D01*
X148549372Y-88583339D02*
X148587467Y-88654768D01*
X148587467Y-88654768D02*
X148663658Y-88726196D01*
X148663658Y-88726196D02*
X148816039Y-88726196D01*
X148816039Y-88726196D02*
X148892229Y-88654768D01*
X148054134Y-88726196D02*
X148130324Y-88654768D01*
X148130324Y-88654768D02*
X148168419Y-88583339D01*
X148168419Y-88583339D02*
X148206515Y-88440482D01*
X148206515Y-88440482D02*
X148206515Y-88011910D01*
X148206515Y-88011910D02*
X148168419Y-87869053D01*
X148168419Y-87869053D02*
X148130324Y-87797625D01*
X148130324Y-87797625D02*
X148054134Y-87726196D01*
X148054134Y-87726196D02*
X147939848Y-87726196D01*
X147939848Y-87726196D02*
X147863657Y-87797625D01*
X147863657Y-87797625D02*
X147825562Y-87869053D01*
X147825562Y-87869053D02*
X147787467Y-88011910D01*
X147787467Y-88011910D02*
X147787467Y-88440482D01*
X147787467Y-88440482D02*
X147825562Y-88583339D01*
X147825562Y-88583339D02*
X147863657Y-88654768D01*
X147863657Y-88654768D02*
X147939848Y-88726196D01*
X147939848Y-88726196D02*
X148054134Y-88726196D01*
X147101752Y-87726196D02*
X147101752Y-88726196D01*
X147444609Y-87726196D02*
X147444609Y-88511910D01*
X147444609Y-88511910D02*
X147406514Y-88654768D01*
X147406514Y-88654768D02*
X147330324Y-88726196D01*
X147330324Y-88726196D02*
X147216038Y-88726196D01*
X147216038Y-88726196D02*
X147139847Y-88654768D01*
X147139847Y-88654768D02*
X147101752Y-88583339D01*
X146720799Y-87726196D02*
X146720799Y-89011910D01*
X146720799Y-89011910D02*
X146758895Y-89154768D01*
X146758895Y-89154768D02*
X146835085Y-89226196D01*
X146835085Y-89226196D02*
X146873180Y-89226196D01*
X146720799Y-87226196D02*
X146758895Y-87297625D01*
X146758895Y-87297625D02*
X146720799Y-87369053D01*
X146720799Y-87369053D02*
X146682704Y-87297625D01*
X146682704Y-87297625D02*
X146720799Y-87226196D01*
X146720799Y-87226196D02*
X146720799Y-87369053D01*
X146035085Y-88654768D02*
X146111276Y-88726196D01*
X146111276Y-88726196D02*
X146263657Y-88726196D01*
X146263657Y-88726196D02*
X146339847Y-88654768D01*
X146339847Y-88654768D02*
X146377943Y-88511910D01*
X146377943Y-88511910D02*
X146377943Y-87940482D01*
X146377943Y-87940482D02*
X146339847Y-87797625D01*
X146339847Y-87797625D02*
X146263657Y-87726196D01*
X146263657Y-87726196D02*
X146111276Y-87726196D01*
X146111276Y-87726196D02*
X146035085Y-87797625D01*
X146035085Y-87797625D02*
X145996990Y-87940482D01*
X145996990Y-87940482D02*
X145996990Y-88083339D01*
X145996990Y-88083339D02*
X146377943Y-88226196D01*
X145654133Y-88726196D02*
X145654133Y-87726196D01*
X145654133Y-87869053D02*
X145616038Y-87797625D01*
X145616038Y-87797625D02*
X145539848Y-87726196D01*
X145539848Y-87726196D02*
X145425562Y-87726196D01*
X145425562Y-87726196D02*
X145349371Y-87797625D01*
X145349371Y-87797625D02*
X145311276Y-87940482D01*
X145311276Y-87940482D02*
X145311276Y-88726196D01*
X145311276Y-87940482D02*
X145273181Y-87797625D01*
X145273181Y-87797625D02*
X145196990Y-87726196D01*
X145196990Y-87726196D02*
X145082705Y-87726196D01*
X145082705Y-87726196D02*
X145006514Y-87797625D01*
X145006514Y-87797625D02*
X144968419Y-87940482D01*
X144968419Y-87940482D02*
X144968419Y-88726196D01*
X144244609Y-88726196D02*
X144244609Y-87940482D01*
X144244609Y-87940482D02*
X144282704Y-87797625D01*
X144282704Y-87797625D02*
X144358895Y-87726196D01*
X144358895Y-87726196D02*
X144511276Y-87726196D01*
X144511276Y-87726196D02*
X144587466Y-87797625D01*
X144244609Y-88654768D02*
X144320800Y-88726196D01*
X144320800Y-88726196D02*
X144511276Y-88726196D01*
X144511276Y-88726196D02*
X144587466Y-88654768D01*
X144587466Y-88654768D02*
X144625562Y-88511910D01*
X144625562Y-88511910D02*
X144625562Y-88369053D01*
X144625562Y-88369053D02*
X144587466Y-88226196D01*
X144587466Y-88226196D02*
X144511276Y-88154768D01*
X144511276Y-88154768D02*
X144320800Y-88154768D01*
X144320800Y-88154768D02*
X144244609Y-88083339D01*
X143520799Y-88726196D02*
X143520799Y-87940482D01*
X143520799Y-87940482D02*
X143558894Y-87797625D01*
X143558894Y-87797625D02*
X143635085Y-87726196D01*
X143635085Y-87726196D02*
X143787466Y-87726196D01*
X143787466Y-87726196D02*
X143863656Y-87797625D01*
X143520799Y-88654768D02*
X143596990Y-88726196D01*
X143596990Y-88726196D02*
X143787466Y-88726196D01*
X143787466Y-88726196D02*
X143863656Y-88654768D01*
X143863656Y-88654768D02*
X143901752Y-88511910D01*
X143901752Y-88511910D02*
X143901752Y-88369053D01*
X143901752Y-88369053D02*
X143863656Y-88226196D01*
X143863656Y-88226196D02*
X143787466Y-88154768D01*
X143787466Y-88154768D02*
X143596990Y-88154768D01*
X143596990Y-88154768D02*
X143520799Y-88083339D01*
X155177945Y-91141112D02*
X155177945Y-89641112D01*
X155177945Y-89641112D02*
X154987469Y-89641112D01*
X154987469Y-89641112D02*
X154873183Y-89712541D01*
X154873183Y-89712541D02*
X154796993Y-89855398D01*
X154796993Y-89855398D02*
X154758898Y-89998255D01*
X154758898Y-89998255D02*
X154720802Y-90283969D01*
X154720802Y-90283969D02*
X154720802Y-90498255D01*
X154720802Y-90498255D02*
X154758898Y-90783969D01*
X154758898Y-90783969D02*
X154796993Y-90926826D01*
X154796993Y-90926826D02*
X154873183Y-91069684D01*
X154873183Y-91069684D02*
X154987469Y-91141112D01*
X154987469Y-91141112D02*
X155177945Y-91141112D01*
X154035088Y-91141112D02*
X154035088Y-90355398D01*
X154035088Y-90355398D02*
X154073183Y-90212541D01*
X154073183Y-90212541D02*
X154149374Y-90141112D01*
X154149374Y-90141112D02*
X154301755Y-90141112D01*
X154301755Y-90141112D02*
X154377945Y-90212541D01*
X154035088Y-91069684D02*
X154111279Y-91141112D01*
X154111279Y-91141112D02*
X154301755Y-91141112D01*
X154301755Y-91141112D02*
X154377945Y-91069684D01*
X154377945Y-91069684D02*
X154416041Y-90926826D01*
X154416041Y-90926826D02*
X154416041Y-90783969D01*
X154416041Y-90783969D02*
X154377945Y-90641112D01*
X154377945Y-90641112D02*
X154301755Y-90569684D01*
X154301755Y-90569684D02*
X154111279Y-90569684D01*
X154111279Y-90569684D02*
X154035088Y-90498255D01*
X153654135Y-91141112D02*
X153654135Y-90141112D01*
X153654135Y-90283969D02*
X153616040Y-90212541D01*
X153616040Y-90212541D02*
X153539850Y-90141112D01*
X153539850Y-90141112D02*
X153425564Y-90141112D01*
X153425564Y-90141112D02*
X153349373Y-90212541D01*
X153349373Y-90212541D02*
X153311278Y-90355398D01*
X153311278Y-90355398D02*
X153311278Y-91141112D01*
X153311278Y-90355398D02*
X153273183Y-90212541D01*
X153273183Y-90212541D02*
X153196992Y-90141112D01*
X153196992Y-90141112D02*
X153082707Y-90141112D01*
X153082707Y-90141112D02*
X153006516Y-90212541D01*
X153006516Y-90212541D02*
X152968421Y-90355398D01*
X152968421Y-90355398D02*
X152968421Y-91141112D01*
X152587468Y-91141112D02*
X152587468Y-90141112D01*
X152587468Y-89641112D02*
X152625564Y-89712541D01*
X152625564Y-89712541D02*
X152587468Y-89783969D01*
X152587468Y-89783969D02*
X152549373Y-89712541D01*
X152549373Y-89712541D02*
X152587468Y-89641112D01*
X152587468Y-89641112D02*
X152587468Y-89783969D01*
X151901754Y-91069684D02*
X151977945Y-91141112D01*
X151977945Y-91141112D02*
X152130326Y-91141112D01*
X152130326Y-91141112D02*
X152206516Y-91069684D01*
X152206516Y-91069684D02*
X152244612Y-90926826D01*
X152244612Y-90926826D02*
X152244612Y-90355398D01*
X152244612Y-90355398D02*
X152206516Y-90212541D01*
X152206516Y-90212541D02*
X152130326Y-90141112D01*
X152130326Y-90141112D02*
X151977945Y-90141112D01*
X151977945Y-90141112D02*
X151901754Y-90212541D01*
X151901754Y-90212541D02*
X151863659Y-90355398D01*
X151863659Y-90355398D02*
X151863659Y-90498255D01*
X151863659Y-90498255D02*
X152244612Y-90641112D01*
X151520802Y-90141112D02*
X151520802Y-91141112D01*
X151520802Y-90283969D02*
X151482707Y-90212541D01*
X151482707Y-90212541D02*
X151406517Y-90141112D01*
X151406517Y-90141112D02*
X151292231Y-90141112D01*
X151292231Y-90141112D02*
X151216040Y-90212541D01*
X151216040Y-90212541D02*
X151177945Y-90355398D01*
X151177945Y-90355398D02*
X151177945Y-91141112D01*
X150301754Y-89641112D02*
X149844611Y-89641112D01*
X150073183Y-91141112D02*
X150073183Y-89641112D01*
X149577944Y-91141112D02*
X149577944Y-89641112D01*
X149235087Y-91141112D02*
X149235087Y-90355398D01*
X149235087Y-90355398D02*
X149273182Y-90212541D01*
X149273182Y-90212541D02*
X149349373Y-90141112D01*
X149349373Y-90141112D02*
X149463659Y-90141112D01*
X149463659Y-90141112D02*
X149539849Y-90212541D01*
X149539849Y-90212541D02*
X149577944Y-90283969D01*
X148549372Y-91069684D02*
X148625563Y-91141112D01*
X148625563Y-91141112D02*
X148777944Y-91141112D01*
X148777944Y-91141112D02*
X148854134Y-91069684D01*
X148854134Y-91069684D02*
X148892230Y-90926826D01*
X148892230Y-90926826D02*
X148892230Y-90355398D01*
X148892230Y-90355398D02*
X148854134Y-90212541D01*
X148854134Y-90212541D02*
X148777944Y-90141112D01*
X148777944Y-90141112D02*
X148625563Y-90141112D01*
X148625563Y-90141112D02*
X148549372Y-90212541D01*
X148549372Y-90212541D02*
X148511277Y-90355398D01*
X148511277Y-90355398D02*
X148511277Y-90498255D01*
X148511277Y-90498255D02*
X148892230Y-90641112D01*
X147825563Y-91141112D02*
X147825563Y-90355398D01*
X147825563Y-90355398D02*
X147863658Y-90212541D01*
X147863658Y-90212541D02*
X147939849Y-90141112D01*
X147939849Y-90141112D02*
X148092230Y-90141112D01*
X148092230Y-90141112D02*
X148168420Y-90212541D01*
X147825563Y-91069684D02*
X147901754Y-91141112D01*
X147901754Y-91141112D02*
X148092230Y-91141112D01*
X148092230Y-91141112D02*
X148168420Y-91069684D01*
X148168420Y-91069684D02*
X148206516Y-90926826D01*
X148206516Y-90926826D02*
X148206516Y-90783969D01*
X148206516Y-90783969D02*
X148168420Y-90641112D01*
X148168420Y-90641112D02*
X148092230Y-90569684D01*
X148092230Y-90569684D02*
X147901754Y-90569684D01*
X147901754Y-90569684D02*
X147825563Y-90498255D01*
X147482706Y-91069684D02*
X147406515Y-91141112D01*
X147406515Y-91141112D02*
X147254134Y-91141112D01*
X147254134Y-91141112D02*
X147177944Y-91069684D01*
X147177944Y-91069684D02*
X147139848Y-90926826D01*
X147139848Y-90926826D02*
X147139848Y-90855398D01*
X147139848Y-90855398D02*
X147177944Y-90712541D01*
X147177944Y-90712541D02*
X147254134Y-90641112D01*
X147254134Y-90641112D02*
X147368420Y-90641112D01*
X147368420Y-90641112D02*
X147444610Y-90569684D01*
X147444610Y-90569684D02*
X147482706Y-90426826D01*
X147482706Y-90426826D02*
X147482706Y-90355398D01*
X147482706Y-90355398D02*
X147444610Y-90212541D01*
X147444610Y-90212541D02*
X147368420Y-90141112D01*
X147368420Y-90141112D02*
X147254134Y-90141112D01*
X147254134Y-90141112D02*
X147177944Y-90212541D01*
X145730324Y-90998255D02*
X145768420Y-91069684D01*
X145768420Y-91069684D02*
X145882705Y-91141112D01*
X145882705Y-91141112D02*
X145958896Y-91141112D01*
X145958896Y-91141112D02*
X146073182Y-91069684D01*
X146073182Y-91069684D02*
X146149372Y-90926826D01*
X146149372Y-90926826D02*
X146187467Y-90783969D01*
X146187467Y-90783969D02*
X146225563Y-90498255D01*
X146225563Y-90498255D02*
X146225563Y-90283969D01*
X146225563Y-90283969D02*
X146187467Y-89998255D01*
X146187467Y-89998255D02*
X146149372Y-89855398D01*
X146149372Y-89855398D02*
X146073182Y-89712541D01*
X146073182Y-89712541D02*
X145958896Y-89641112D01*
X145958896Y-89641112D02*
X145882705Y-89641112D01*
X145882705Y-89641112D02*
X145768420Y-89712541D01*
X145768420Y-89712541D02*
X145730324Y-89783969D01*
X145387467Y-91141112D02*
X145387467Y-89641112D01*
X145044610Y-91141112D02*
X145044610Y-90355398D01*
X145044610Y-90355398D02*
X145082705Y-90212541D01*
X145082705Y-90212541D02*
X145158896Y-90141112D01*
X145158896Y-90141112D02*
X145273182Y-90141112D01*
X145273182Y-90141112D02*
X145349372Y-90212541D01*
X145349372Y-90212541D02*
X145387467Y-90283969D01*
X144320800Y-91141112D02*
X144320800Y-90355398D01*
X144320800Y-90355398D02*
X144358895Y-90212541D01*
X144358895Y-90212541D02*
X144435086Y-90141112D01*
X144435086Y-90141112D02*
X144587467Y-90141112D01*
X144587467Y-90141112D02*
X144663657Y-90212541D01*
X144320800Y-91069684D02*
X144396991Y-91141112D01*
X144396991Y-91141112D02*
X144587467Y-91141112D01*
X144587467Y-91141112D02*
X144663657Y-91069684D01*
X144663657Y-91069684D02*
X144701753Y-90926826D01*
X144701753Y-90926826D02*
X144701753Y-90783969D01*
X144701753Y-90783969D02*
X144663657Y-90641112D01*
X144663657Y-90641112D02*
X144587467Y-90569684D01*
X144587467Y-90569684D02*
X144396991Y-90569684D01*
X144396991Y-90569684D02*
X144320800Y-90498255D01*
X143939847Y-91141112D02*
X143939847Y-90141112D01*
X143939847Y-90426826D02*
X143901752Y-90283969D01*
X143901752Y-90283969D02*
X143863657Y-90212541D01*
X143863657Y-90212541D02*
X143787466Y-90141112D01*
X143787466Y-90141112D02*
X143711276Y-90141112D01*
X143330324Y-91141112D02*
X143406514Y-91069684D01*
X143406514Y-91069684D02*
X143444609Y-90926826D01*
X143444609Y-90926826D02*
X143444609Y-89641112D01*
X142911276Y-91141112D02*
X142987466Y-91069684D01*
X142987466Y-91069684D02*
X143025561Y-90998255D01*
X143025561Y-90998255D02*
X143063657Y-90855398D01*
X143063657Y-90855398D02*
X143063657Y-90426826D01*
X143063657Y-90426826D02*
X143025561Y-90283969D01*
X143025561Y-90283969D02*
X142987466Y-90212541D01*
X142987466Y-90212541D02*
X142911276Y-90141112D01*
X142911276Y-90141112D02*
X142796990Y-90141112D01*
X142796990Y-90141112D02*
X142720799Y-90212541D01*
X142720799Y-90212541D02*
X142682704Y-90283969D01*
X142682704Y-90283969D02*
X142644609Y-90426826D01*
X142644609Y-90426826D02*
X142644609Y-90855398D01*
X142644609Y-90855398D02*
X142682704Y-90998255D01*
X142682704Y-90998255D02*
X142720799Y-91069684D01*
X142720799Y-91069684D02*
X142796990Y-91141112D01*
X142796990Y-91141112D02*
X142911276Y-91141112D01*
X142416037Y-90141112D02*
X142111275Y-90141112D01*
X142301751Y-89641112D02*
X142301751Y-90926826D01*
X142301751Y-90926826D02*
X142263656Y-91069684D01*
X142263656Y-91069684D02*
X142187466Y-91141112D01*
X142187466Y-91141112D02*
X142111275Y-91141112D01*
X154644612Y-93698885D02*
X154720802Y-93627457D01*
X154720802Y-93627457D02*
X154796993Y-93484600D01*
X154796993Y-93484600D02*
X154911279Y-93270314D01*
X154911279Y-93270314D02*
X154987469Y-93198885D01*
X154987469Y-93198885D02*
X155063660Y-93198885D01*
X155025564Y-93556028D02*
X155101755Y-93484600D01*
X155101755Y-93484600D02*
X155177945Y-93341742D01*
X155177945Y-93341742D02*
X155216041Y-93056028D01*
X155216041Y-93056028D02*
X155216041Y-92556028D01*
X155216041Y-92556028D02*
X155177945Y-92270314D01*
X155177945Y-92270314D02*
X155101755Y-92127457D01*
X155101755Y-92127457D02*
X155025564Y-92056028D01*
X155025564Y-92056028D02*
X154873183Y-92056028D01*
X154873183Y-92056028D02*
X154796993Y-92127457D01*
X154796993Y-92127457D02*
X154720802Y-92270314D01*
X154720802Y-92270314D02*
X154682707Y-92556028D01*
X154682707Y-92556028D02*
X154682707Y-93056028D01*
X154682707Y-93056028D02*
X154720802Y-93341742D01*
X154720802Y-93341742D02*
X154796993Y-93484600D01*
X154796993Y-93484600D02*
X154873183Y-93556028D01*
X154873183Y-93556028D02*
X155025564Y-93556028D01*
X153996993Y-92556028D02*
X153996993Y-93556028D01*
X154339850Y-92556028D02*
X154339850Y-93341742D01*
X154339850Y-93341742D02*
X154301755Y-93484600D01*
X154301755Y-93484600D02*
X154225565Y-93556028D01*
X154225565Y-93556028D02*
X154111279Y-93556028D01*
X154111279Y-93556028D02*
X154035088Y-93484600D01*
X154035088Y-93484600D02*
X153996993Y-93413171D01*
X153311278Y-93484600D02*
X153387469Y-93556028D01*
X153387469Y-93556028D02*
X153539850Y-93556028D01*
X153539850Y-93556028D02*
X153616040Y-93484600D01*
X153616040Y-93484600D02*
X153654136Y-93341742D01*
X153654136Y-93341742D02*
X153654136Y-92770314D01*
X153654136Y-92770314D02*
X153616040Y-92627457D01*
X153616040Y-92627457D02*
X153539850Y-92556028D01*
X153539850Y-92556028D02*
X153387469Y-92556028D01*
X153387469Y-92556028D02*
X153311278Y-92627457D01*
X153311278Y-92627457D02*
X153273183Y-92770314D01*
X153273183Y-92770314D02*
X153273183Y-92913171D01*
X153273183Y-92913171D02*
X153654136Y-93056028D01*
X152930326Y-92556028D02*
X152930326Y-93556028D01*
X152930326Y-92698885D02*
X152892231Y-92627457D01*
X152892231Y-92627457D02*
X152816041Y-92556028D01*
X152816041Y-92556028D02*
X152701755Y-92556028D01*
X152701755Y-92556028D02*
X152625564Y-92627457D01*
X152625564Y-92627457D02*
X152587469Y-92770314D01*
X152587469Y-92770314D02*
X152587469Y-93556028D01*
X152320802Y-92556028D02*
X152016040Y-92556028D01*
X152206516Y-92056028D02*
X152206516Y-93341742D01*
X152206516Y-93341742D02*
X152168421Y-93484600D01*
X152168421Y-93484600D02*
X152092231Y-93556028D01*
X152092231Y-93556028D02*
X152016040Y-93556028D01*
X151330326Y-93556028D02*
X151787469Y-93556028D01*
X151558897Y-93556028D02*
X151558897Y-92056028D01*
X151558897Y-92056028D02*
X151635088Y-92270314D01*
X151635088Y-92270314D02*
X151711278Y-92413171D01*
X151711278Y-92413171D02*
X151787469Y-92484600D01*
X150111278Y-92770314D02*
X149996992Y-92841742D01*
X149996992Y-92841742D02*
X149958897Y-92913171D01*
X149958897Y-92913171D02*
X149920801Y-93056028D01*
X149920801Y-93056028D02*
X149920801Y-93270314D01*
X149920801Y-93270314D02*
X149958897Y-93413171D01*
X149958897Y-93413171D02*
X149996992Y-93484600D01*
X149996992Y-93484600D02*
X150073182Y-93556028D01*
X150073182Y-93556028D02*
X150377944Y-93556028D01*
X150377944Y-93556028D02*
X150377944Y-92056028D01*
X150377944Y-92056028D02*
X150111278Y-92056028D01*
X150111278Y-92056028D02*
X150035087Y-92127457D01*
X150035087Y-92127457D02*
X149996992Y-92198885D01*
X149996992Y-92198885D02*
X149958897Y-92341742D01*
X149958897Y-92341742D02*
X149958897Y-92484600D01*
X149958897Y-92484600D02*
X149996992Y-92627457D01*
X149996992Y-92627457D02*
X150035087Y-92698885D01*
X150035087Y-92698885D02*
X150111278Y-92770314D01*
X150111278Y-92770314D02*
X150377944Y-92770314D01*
X149273182Y-93484600D02*
X149349373Y-93556028D01*
X149349373Y-93556028D02*
X149501754Y-93556028D01*
X149501754Y-93556028D02*
X149577944Y-93484600D01*
X149577944Y-93484600D02*
X149616040Y-93341742D01*
X149616040Y-93341742D02*
X149616040Y-92770314D01*
X149616040Y-92770314D02*
X149577944Y-92627457D01*
X149577944Y-92627457D02*
X149501754Y-92556028D01*
X149501754Y-92556028D02*
X149349373Y-92556028D01*
X149349373Y-92556028D02*
X149273182Y-92627457D01*
X149273182Y-92627457D02*
X149235087Y-92770314D01*
X149235087Y-92770314D02*
X149235087Y-92913171D01*
X149235087Y-92913171D02*
X149616040Y-93056028D01*
X148549373Y-93484600D02*
X148625564Y-93556028D01*
X148625564Y-93556028D02*
X148777945Y-93556028D01*
X148777945Y-93556028D02*
X148854135Y-93484600D01*
X148854135Y-93484600D02*
X148892230Y-93413171D01*
X148892230Y-93413171D02*
X148930326Y-93270314D01*
X148930326Y-93270314D02*
X148930326Y-92841742D01*
X148930326Y-92841742D02*
X148892230Y-92698885D01*
X148892230Y-92698885D02*
X148854135Y-92627457D01*
X148854135Y-92627457D02*
X148777945Y-92556028D01*
X148777945Y-92556028D02*
X148625564Y-92556028D01*
X148625564Y-92556028D02*
X148549373Y-92627457D01*
X148206516Y-93556028D02*
X148206516Y-92056028D01*
X147863659Y-93556028D02*
X147863659Y-92770314D01*
X147863659Y-92770314D02*
X147901754Y-92627457D01*
X147901754Y-92627457D02*
X147977945Y-92556028D01*
X147977945Y-92556028D02*
X148092231Y-92556028D01*
X148092231Y-92556028D02*
X148168421Y-92627457D01*
X148168421Y-92627457D02*
X148206516Y-92698885D01*
X147368421Y-93556028D02*
X147444611Y-93484600D01*
X147444611Y-93484600D02*
X147482706Y-93341742D01*
X147482706Y-93341742D02*
X147482706Y-92056028D01*
X146758896Y-93484600D02*
X146835087Y-93556028D01*
X146835087Y-93556028D02*
X146987468Y-93556028D01*
X146987468Y-93556028D02*
X147063658Y-93484600D01*
X147063658Y-93484600D02*
X147101754Y-93341742D01*
X147101754Y-93341742D02*
X147101754Y-92770314D01*
X147101754Y-92770314D02*
X147063658Y-92627457D01*
X147063658Y-92627457D02*
X146987468Y-92556028D01*
X146987468Y-92556028D02*
X146835087Y-92556028D01*
X146835087Y-92556028D02*
X146758896Y-92627457D01*
X146758896Y-92627457D02*
X146720801Y-92770314D01*
X146720801Y-92770314D02*
X146720801Y-92913171D01*
X146720801Y-92913171D02*
X147101754Y-93056028D01*
X146377944Y-93556028D02*
X146377944Y-92556028D01*
X146377944Y-92841742D02*
X146339849Y-92698885D01*
X146339849Y-92698885D02*
X146301754Y-92627457D01*
X146301754Y-92627457D02*
X146225563Y-92556028D01*
X146225563Y-92556028D02*
X146149373Y-92556028D01*
D11*
X139833333Y-85954819D02*
X139833333Y-86669104D01*
X139833333Y-86669104D02*
X139880952Y-86811961D01*
X139880952Y-86811961D02*
X139976190Y-86907200D01*
X139976190Y-86907200D02*
X140119047Y-86954819D01*
X140119047Y-86954819D02*
X140214285Y-86954819D01*
X138833333Y-86954819D02*
X139404761Y-86954819D01*
X139119047Y-86954819D02*
X139119047Y-85954819D01*
X139119047Y-85954819D02*
X139214285Y-86097676D01*
X139214285Y-86097676D02*
X139309523Y-86192914D01*
X139309523Y-86192914D02*
X139404761Y-86240533D01*
D12*
X165821427Y-94049757D02*
X165964285Y-93978328D01*
X165964285Y-93978328D02*
X166178570Y-93978328D01*
X166178570Y-93978328D02*
X166392856Y-94049757D01*
X166392856Y-94049757D02*
X166535713Y-94192614D01*
X166535713Y-94192614D02*
X166607142Y-94335471D01*
X166607142Y-94335471D02*
X166678570Y-94621185D01*
X166678570Y-94621185D02*
X166678570Y-94835471D01*
X166678570Y-94835471D02*
X166607142Y-95121185D01*
X166607142Y-95121185D02*
X166535713Y-95264042D01*
X166535713Y-95264042D02*
X166392856Y-95406900D01*
X166392856Y-95406900D02*
X166178570Y-95478328D01*
X166178570Y-95478328D02*
X166035713Y-95478328D01*
X166035713Y-95478328D02*
X165821427Y-95406900D01*
X165821427Y-95406900D02*
X165749999Y-95335471D01*
X165749999Y-95335471D02*
X165749999Y-94835471D01*
X165749999Y-94835471D02*
X166035713Y-94835471D01*
X164892856Y-93978328D02*
X164892856Y-94335471D01*
X165249999Y-94192614D02*
X164892856Y-94335471D01*
X164892856Y-94335471D02*
X164535713Y-94192614D01*
X165107142Y-94621185D02*
X164892856Y-94335471D01*
X164892856Y-94335471D02*
X164678570Y-94621185D01*
X163749999Y-93978328D02*
X163749999Y-94335471D01*
X164107142Y-94192614D02*
X163749999Y-94335471D01*
X163749999Y-94335471D02*
X163392856Y-94192614D01*
X163964285Y-94621185D02*
X163749999Y-94335471D01*
X163749999Y-94335471D02*
X163535713Y-94621185D01*
X162607142Y-93978328D02*
X162607142Y-94335471D01*
X162964285Y-94192614D02*
X162607142Y-94335471D01*
X162607142Y-94335471D02*
X162249999Y-94192614D01*
X162821428Y-94621185D02*
X162607142Y-94335471D01*
X162607142Y-94335471D02*
X162392856Y-94621185D01*
D13*
%TO.C,J1*%
X138070000Y-80170000D02*
X138070000Y-82770000D01*
X138070000Y-80170000D02*
X188990000Y-80170000D01*
X138070000Y-82770000D02*
X140670000Y-82770000D01*
X138070000Y-84040000D02*
X138070000Y-85370000D01*
X138070000Y-85370000D02*
X139400000Y-85370000D01*
X140670000Y-82770000D02*
X140670000Y-85370000D01*
X140670000Y-85370000D02*
X188990000Y-85370000D01*
X188990000Y-80170000D02*
X188990000Y-85370000D01*
D14*
%TO.C,G\u002A\u002A\u002A*%
G36*
X158472540Y-96453016D02*
G01*
X158452382Y-96473175D01*
X158432223Y-96453016D01*
X158452382Y-96432857D01*
X158472540Y-96453016D01*
G37*
G36*
X158553175Y-96493333D02*
G01*
X158533016Y-96513492D01*
X158512858Y-96493333D01*
X158533016Y-96473175D01*
X158553175Y-96493333D01*
G37*
G36*
X158633810Y-96533651D02*
G01*
X158613651Y-96553810D01*
X158593493Y-96533651D01*
X158613651Y-96513492D01*
X158633810Y-96533651D01*
G37*
G36*
X163176244Y-98220265D02*
G01*
X163182552Y-98232391D01*
X163149366Y-98247143D01*
X163128022Y-98244233D01*
X163122487Y-98220265D01*
X163128397Y-98215439D01*
X163176244Y-98220265D01*
G37*
G36*
X165712061Y-97390397D02*
G01*
X165679016Y-97426423D01*
X165613069Y-97494437D01*
X165581029Y-97521429D01*
X165580579Y-97521426D01*
X165570862Y-97508451D01*
X165607846Y-97463770D01*
X165699445Y-97377781D01*
X165830477Y-97259365D01*
X165712061Y-97390397D01*
G37*
G36*
X162714601Y-97128801D02*
G01*
X162763878Y-97134100D01*
X162749588Y-97139101D01*
X162667505Y-97142529D01*
X162524445Y-97143846D01*
X162395603Y-97142960D01*
X162299855Y-97139846D01*
X162269207Y-97135009D01*
X162311427Y-97128992D01*
X162369201Y-97125549D01*
X162544730Y-97122882D01*
X162714601Y-97128801D01*
G37*
G36*
X166158321Y-96315330D02*
G01*
X166153008Y-96382314D01*
X166145444Y-96428389D01*
X166103220Y-96584874D01*
X166044166Y-96734208D01*
X166011625Y-96798660D01*
X165966909Y-96877222D01*
X165944211Y-96902729D01*
X165944445Y-96892065D01*
X165962735Y-96822096D01*
X166000766Y-96702443D01*
X166053054Y-96550836D01*
X166073390Y-96494132D01*
X166121515Y-96366175D01*
X166148824Y-96308263D01*
X166158321Y-96315330D01*
G37*
G36*
X158455875Y-102301191D02*
G01*
X158459605Y-102310233D01*
X158506826Y-102442611D01*
X158539493Y-102563254D01*
X158563255Y-102682063D01*
X157933294Y-102682063D01*
X157846676Y-102681777D01*
X157623230Y-102677830D01*
X157451850Y-102669704D01*
X157342048Y-102657985D01*
X157303334Y-102643258D01*
X157311522Y-102604666D01*
X157341849Y-102507671D01*
X157386866Y-102381195D01*
X157470397Y-102157937D01*
X157933209Y-102157937D01*
X158396020Y-102157937D01*
X158455875Y-102301191D01*
G37*
G36*
X167528475Y-100992908D02*
G01*
X167533415Y-101054897D01*
X167537673Y-101181919D01*
X167541011Y-101362195D01*
X167543190Y-101583947D01*
X167543969Y-101835397D01*
X167543969Y-102682063D01*
X166995046Y-102682063D01*
X166446124Y-102682063D01*
X166505104Y-102591349D01*
X166515316Y-102575443D01*
X166568263Y-102491791D01*
X166654019Y-102355534D01*
X166765452Y-102178025D01*
X166895431Y-101970623D01*
X167036824Y-101744683D01*
X167101307Y-101641823D01*
X167233434Y-101432750D01*
X167348373Y-101253139D01*
X167439794Y-101112755D01*
X167501367Y-101021364D01*
X167526766Y-100988730D01*
X167528475Y-100992908D01*
G37*
G36*
X157969473Y-100881629D02*
G01*
X157998827Y-100964084D01*
X158041926Y-101089236D01*
X158092113Y-101237260D01*
X158142733Y-101388329D01*
X158187131Y-101522615D01*
X158218650Y-101620291D01*
X158230636Y-101661531D01*
X158230415Y-101662030D01*
X158188333Y-101668144D01*
X158087532Y-101672479D01*
X157948413Y-101674127D01*
X157811443Y-101672070D01*
X157719988Y-101662409D01*
X157677800Y-101640963D01*
X157668367Y-101603571D01*
X157673207Y-101566650D01*
X157699671Y-101465352D01*
X157742923Y-101335308D01*
X157795909Y-101194058D01*
X157851579Y-101059141D01*
X157902882Y-100948096D01*
X157942767Y-100878462D01*
X157964181Y-100867778D01*
X157969473Y-100881629D01*
G37*
G36*
X156661686Y-95502909D02*
G01*
X156794216Y-95563172D01*
X156989485Y-95670639D01*
X157000067Y-95676735D01*
X157187071Y-95781999D01*
X157416060Y-95907475D01*
X157659020Y-96037961D01*
X157887937Y-96158251D01*
X157977313Y-96204856D01*
X158144030Y-96293641D01*
X158272894Y-96364835D01*
X158352576Y-96412098D01*
X158371747Y-96429086D01*
X158355248Y-96425769D01*
X158271213Y-96394870D01*
X158134220Y-96336479D01*
X157956909Y-96256680D01*
X157751916Y-96161557D01*
X157531877Y-96057194D01*
X157309431Y-95949677D01*
X157097214Y-95845088D01*
X156907864Y-95749512D01*
X156754018Y-95669034D01*
X156648312Y-95609736D01*
X156603384Y-95577705D01*
X156575875Y-95521836D01*
X156589653Y-95489310D01*
X156661686Y-95502909D01*
G37*
G36*
X159510715Y-86918922D02*
G01*
X159550166Y-86918938D01*
X160117648Y-86919761D01*
X160638312Y-86921644D01*
X161107931Y-86924533D01*
X161522278Y-86928371D01*
X161877126Y-86933103D01*
X162168249Y-86938673D01*
X162391419Y-86945026D01*
X162542410Y-86952105D01*
X162616996Y-86959855D01*
X162778805Y-87009874D01*
X163012412Y-87106584D01*
X163286727Y-87238799D01*
X163589297Y-87399381D01*
X163907672Y-87581189D01*
X164229397Y-87777084D01*
X164542023Y-87979926D01*
X164833096Y-88182575D01*
X165090165Y-88377893D01*
X165254293Y-88515074D01*
X165485886Y-88721973D01*
X165727201Y-88949593D01*
X165960014Y-89180228D01*
X166166099Y-89396170D01*
X166327231Y-89579715D01*
X166353247Y-89611970D01*
X166521159Y-89848968D01*
X166671501Y-90109194D01*
X166799981Y-90380031D01*
X166902307Y-90648865D01*
X166974187Y-90903082D01*
X167011329Y-91130067D01*
X167009442Y-91317205D01*
X166964232Y-91451883D01*
X166955624Y-91463894D01*
X166860674Y-91550921D01*
X166718031Y-91641275D01*
X166554008Y-91720129D01*
X166394921Y-91772657D01*
X166308441Y-91793140D01*
X166142856Y-91836246D01*
X166039613Y-91871632D01*
X165986570Y-91904050D01*
X165971588Y-91938246D01*
X165965763Y-91966328D01*
X165939573Y-91991873D01*
X165884318Y-92010755D01*
X165791408Y-92023692D01*
X165652254Y-92031404D01*
X165458266Y-92034610D01*
X165200856Y-92034030D01*
X164871434Y-92030383D01*
X164727584Y-92028714D01*
X164414347Y-92027582D01*
X164181301Y-92030996D01*
X164028214Y-92038971D01*
X163954860Y-92051525D01*
X163961008Y-92068674D01*
X164046429Y-92090436D01*
X164080512Y-92098038D01*
X164085421Y-92107497D01*
X164013317Y-92113398D01*
X163968020Y-92109954D01*
X163860042Y-92074577D01*
X163710576Y-91997465D01*
X163509349Y-91873731D01*
X163393360Y-91800128D01*
X163207658Y-91686355D01*
X163037008Y-91586183D01*
X162907461Y-91515132D01*
X162879125Y-91500458D01*
X162725777Y-91417675D01*
X162544722Y-91316095D01*
X162369356Y-91214386D01*
X162317118Y-91183887D01*
X162120062Y-91073687D01*
X161889151Y-90949948D01*
X161645176Y-90823347D01*
X161408927Y-90704560D01*
X161201198Y-90604267D01*
X161042778Y-90533142D01*
X160948416Y-90498171D01*
X160898532Y-90491675D01*
X160911379Y-90517527D01*
X160983693Y-90570459D01*
X161112212Y-90645204D01*
X161214738Y-90703442D01*
X161292792Y-90754365D01*
X161316703Y-90779912D01*
X161314780Y-90780696D01*
X161266142Y-90765082D01*
X161169013Y-90718940D01*
X161041948Y-90650977D01*
X160931188Y-90589942D01*
X160816759Y-90531771D01*
X160758295Y-90512268D01*
X160748087Y-90529387D01*
X160778429Y-90581086D01*
X160803632Y-90612212D01*
X160909597Y-90713927D01*
X161069166Y-90844911D01*
X161271072Y-90996856D01*
X161504050Y-91161455D01*
X161756836Y-91330398D01*
X162018163Y-91495378D01*
X162154389Y-91579320D01*
X162325647Y-91686721D01*
X162462088Y-91774545D01*
X162552313Y-91835419D01*
X162584921Y-91861968D01*
X162582908Y-91867064D01*
X162546953Y-91858277D01*
X162516414Y-91851830D01*
X162421828Y-91853222D01*
X162294969Y-91867517D01*
X162220274Y-91876494D01*
X162064469Y-91883206D01*
X161939842Y-91874187D01*
X161784773Y-91839003D01*
X161580872Y-91783434D01*
X161349767Y-91714324D01*
X161112515Y-91638412D01*
X160890172Y-91562436D01*
X160703793Y-91493134D01*
X160574435Y-91437244D01*
X160469181Y-91386857D01*
X160318495Y-91320935D01*
X160199677Y-91275813D01*
X160176002Y-91267498D01*
X160080013Y-91219174D01*
X160029593Y-91169478D01*
X160003059Y-91136692D01*
X159926395Y-91110952D01*
X159907777Y-91109181D01*
X159813122Y-91087122D01*
X159674297Y-91045152D01*
X159514238Y-90990000D01*
X159275262Y-90911739D01*
X159099431Y-90875240D01*
X158985716Y-90880935D01*
X158931007Y-90928495D01*
X158926613Y-90946912D01*
X158953662Y-91036572D01*
X159046515Y-91146271D01*
X159197724Y-91268582D01*
X159399842Y-91396078D01*
X159482057Y-91443078D01*
X159675457Y-91555404D01*
X159887519Y-91680296D01*
X160085239Y-91798382D01*
X160279769Y-91914872D01*
X160440293Y-92007831D01*
X160581848Y-92084120D01*
X160723269Y-92152890D01*
X160883391Y-92223291D01*
X161081049Y-92304475D01*
X161335080Y-92405592D01*
X161369290Y-92419098D01*
X161591355Y-92504692D01*
X161749761Y-92560799D01*
X161853503Y-92590016D01*
X161911574Y-92594938D01*
X161932970Y-92578161D01*
X161947227Y-92550153D01*
X161990233Y-92552711D01*
X162078506Y-92601186D01*
X162101170Y-92614645D01*
X162237581Y-92683849D01*
X162380343Y-92742754D01*
X162411592Y-92754407D01*
X162550233Y-92817277D01*
X162664364Y-92884072D01*
X162668927Y-92887274D01*
X162773079Y-92942670D01*
X162864894Y-92965556D01*
X162882591Y-92966765D01*
X162983918Y-92992575D01*
X163100575Y-93041419D01*
X163189296Y-93076653D01*
X163341482Y-93124148D01*
X163530391Y-93175119D01*
X163733969Y-93223237D01*
X163927387Y-93265634D01*
X164100062Y-93303556D01*
X164231543Y-93332509D01*
X164303042Y-93348361D01*
X164317200Y-93353706D01*
X164391172Y-93414308D01*
X164489686Y-93527814D01*
X164602396Y-93679662D01*
X164718953Y-93855291D01*
X164829010Y-94040140D01*
X164922218Y-94219646D01*
X164984539Y-94362208D01*
X165073224Y-94644842D01*
X165115199Y-94941613D01*
X165115743Y-95281491D01*
X165112760Y-95335534D01*
X165091721Y-95547587D01*
X165054201Y-95717245D01*
X164993820Y-95875597D01*
X164875030Y-96094073D01*
X164702492Y-96310332D01*
X164485001Y-96492692D01*
X164215701Y-96644930D01*
X163887740Y-96770821D01*
X163494262Y-96874145D01*
X163028413Y-96958677D01*
X162754133Y-96996819D01*
X162511433Y-97021058D01*
X162307857Y-97028528D01*
X162122990Y-97020628D01*
X161993356Y-97011840D01*
X161877334Y-97011052D01*
X161836816Y-97022909D01*
X161873277Y-97046740D01*
X161988193Y-97081874D01*
X162012708Y-97088810D01*
X162044550Y-97105247D01*
X162011583Y-97112962D01*
X161925443Y-97112955D01*
X161797764Y-97106226D01*
X161640181Y-97093775D01*
X161464331Y-97076603D01*
X161281848Y-97055708D01*
X161104367Y-97032092D01*
X160943524Y-97006754D01*
X160810953Y-96980693D01*
X160740935Y-96964024D01*
X160456351Y-96885995D01*
X160122230Y-96781736D01*
X159756753Y-96657582D01*
X159378097Y-96519867D01*
X159004443Y-96374925D01*
X158653969Y-96229091D01*
X158642751Y-96224242D01*
X158445061Y-96141778D01*
X158259995Y-96069649D01*
X158107842Y-96015473D01*
X158008890Y-95986867D01*
X157949084Y-95969194D01*
X157816437Y-95918697D01*
X157638980Y-95843809D01*
X157432459Y-95751238D01*
X157212620Y-95647691D01*
X156577620Y-95341170D01*
X156577620Y-91129553D01*
X156577620Y-86917937D01*
X159510715Y-86918922D01*
G37*
G36*
X172422382Y-94800000D02*
G01*
X172422382Y-102682063D01*
X171716826Y-102682063D01*
X171011270Y-102682063D01*
X171011270Y-101371746D01*
X171011270Y-100061429D01*
X170063810Y-100061429D01*
X169116350Y-100061429D01*
X169116350Y-100322414D01*
X169116350Y-100583400D01*
X169711032Y-100594557D01*
X170305715Y-100605714D01*
X170317901Y-100817381D01*
X170330088Y-101029048D01*
X169763536Y-101029048D01*
X169196985Y-101029048D01*
X169196985Y-101291111D01*
X169196985Y-101553175D01*
X169761429Y-101553175D01*
X170325874Y-101553175D01*
X170325874Y-101855556D01*
X170325874Y-102157937D01*
X169723036Y-102157937D01*
X169120198Y-102157937D01*
X169108194Y-102409921D01*
X169096191Y-102661905D01*
X168642620Y-102673305D01*
X168189048Y-102684704D01*
X168189048Y-101371656D01*
X168189048Y-100058608D01*
X167775794Y-100070097D01*
X167362540Y-100081587D01*
X167173315Y-100363810D01*
X167086980Y-100493864D01*
X166963613Y-100681995D01*
X166828914Y-100889196D01*
X166699809Y-101089524D01*
X166415529Y-101533016D01*
X166415305Y-100797222D01*
X166415080Y-100061429D01*
X166092540Y-100061429D01*
X165770001Y-100061429D01*
X165770001Y-101371746D01*
X165770001Y-102682063D01*
X165155159Y-102679871D01*
X164540318Y-102677678D01*
X164721747Y-102608284D01*
X164903175Y-102538890D01*
X164914949Y-102203378D01*
X164916528Y-102144202D01*
X164915612Y-102005652D01*
X164907997Y-101912327D01*
X164894790Y-101881869D01*
X164885848Y-101886038D01*
X164817743Y-101919399D01*
X164702935Y-101976505D01*
X164560477Y-102047896D01*
X164501921Y-102076023D01*
X164260171Y-102166905D01*
X164022647Y-102220000D01*
X163802716Y-102235248D01*
X163613749Y-102212586D01*
X163469114Y-102151954D01*
X163382179Y-102053291D01*
X163371322Y-102025289D01*
X163371126Y-101932699D01*
X163437608Y-101855218D01*
X163575385Y-101789188D01*
X163789073Y-101730952D01*
X163912627Y-101702472D01*
X164234558Y-101610032D01*
X164484274Y-101504106D01*
X164667876Y-101379761D01*
X164791466Y-101232068D01*
X164861146Y-101056095D01*
X164883016Y-100846912D01*
X164859035Y-100659007D01*
X164765197Y-100454865D01*
X164604940Y-100286295D01*
X164383127Y-100156881D01*
X164104621Y-100070208D01*
X163774286Y-100029859D01*
X163707732Y-100027919D01*
X163486236Y-100034118D01*
X163264432Y-100056557D01*
X163062541Y-100091947D01*
X162900784Y-100137000D01*
X162799382Y-100188427D01*
X162776432Y-100240106D01*
X162757643Y-100348838D01*
X162746427Y-100486066D01*
X162744050Y-100624754D01*
X162751775Y-100737869D01*
X162770866Y-100798378D01*
X162803166Y-100797290D01*
X162888270Y-100765179D01*
X163002691Y-100707132D01*
X163090617Y-100663541D01*
X163283374Y-100593160D01*
X163487954Y-100543357D01*
X163676800Y-100520107D01*
X163822356Y-100529385D01*
X164003517Y-100590082D01*
X164118122Y-100669360D01*
X164157302Y-100763083D01*
X164146930Y-100828927D01*
X164106480Y-100900083D01*
X164049354Y-100925894D01*
X163931020Y-100965135D01*
X163768818Y-101012435D01*
X163580049Y-101062457D01*
X163542900Y-101071964D01*
X163239447Y-101162135D01*
X163008069Y-101259699D01*
X162841034Y-101371240D01*
X162730609Y-101503340D01*
X162669063Y-101662584D01*
X162648665Y-101855556D01*
X162652910Y-101960760D01*
X162706690Y-102173218D01*
X162827278Y-102353865D01*
X163021384Y-102514566D01*
X163243417Y-102661905D01*
X162583098Y-102673024D01*
X162431767Y-102675027D01*
X162222298Y-102675860D01*
X162049142Y-102674213D01*
X161927065Y-102670269D01*
X161870834Y-102664210D01*
X161864359Y-102659155D01*
X161850633Y-102623490D01*
X161839779Y-102549166D01*
X161831520Y-102429188D01*
X161825579Y-102256563D01*
X161821678Y-102024294D01*
X161819540Y-101725389D01*
X161818890Y-101352853D01*
X161818890Y-100061429D01*
X160871429Y-100061429D01*
X159923969Y-100061429D01*
X159923969Y-100323492D01*
X159923969Y-100585556D01*
X160528731Y-100585556D01*
X161133493Y-100585556D01*
X161133493Y-100807302D01*
X161133493Y-101029048D01*
X160569048Y-101029048D01*
X160004604Y-101029048D01*
X160004604Y-101291111D01*
X160004604Y-101553175D01*
X160569048Y-101553175D01*
X161133493Y-101553175D01*
X161133493Y-101855556D01*
X161133493Y-102157937D01*
X160528731Y-102157937D01*
X159923969Y-102157937D01*
X159923969Y-102421696D01*
X159923969Y-102685455D01*
X159611509Y-102673680D01*
X159299048Y-102661905D01*
X158815239Y-101371746D01*
X158331429Y-100081587D01*
X157928255Y-100081587D01*
X157525080Y-100081587D01*
X157061429Y-101318215D01*
X156597778Y-102554843D01*
X156587470Y-99144661D01*
X156586492Y-98790767D01*
X156585428Y-98288966D01*
X156584800Y-97814628D01*
X156584597Y-97373661D01*
X156584807Y-96971973D01*
X156585418Y-96615471D01*
X156586420Y-96310064D01*
X156587801Y-96061659D01*
X156589549Y-95876165D01*
X156591653Y-95759489D01*
X156594102Y-95717539D01*
X156599672Y-95716759D01*
X156657635Y-95737326D01*
X156762567Y-95787277D01*
X156896760Y-95858373D01*
X156940521Y-95882935D01*
X157059988Y-95954861D01*
X157138560Y-96009862D01*
X157161013Y-96037612D01*
X157159477Y-96039978D01*
X157181501Y-96077228D01*
X157250907Y-96132043D01*
X157345018Y-96202224D01*
X157423515Y-96275633D01*
X157432049Y-96285104D01*
X157542632Y-96381517D01*
X157714194Y-96502960D01*
X157935229Y-96642876D01*
X158194228Y-96794708D01*
X158479681Y-96951901D01*
X158780080Y-97107897D01*
X159083917Y-97256141D01*
X159379683Y-97390074D01*
X159514743Y-97447906D01*
X159897686Y-97603006D01*
X160250075Y-97729087D01*
X160594141Y-97832375D01*
X160952118Y-97919099D01*
X161346237Y-97995489D01*
X161798731Y-98067771D01*
X162016474Y-98101868D01*
X162224226Y-98138432D01*
X162391732Y-98172271D01*
X162505770Y-98200698D01*
X162553119Y-98221028D01*
X162579853Y-98234718D01*
X162672678Y-98249093D01*
X162834306Y-98259014D01*
X163068651Y-98264696D01*
X163379627Y-98266353D01*
X163447576Y-98266234D01*
X163756778Y-98262824D01*
X164009347Y-98252286D01*
X164225346Y-98231279D01*
X164424839Y-98196463D01*
X164627890Y-98144497D01*
X164854562Y-98072040D01*
X165124921Y-97975751D01*
X165252760Y-97925741D01*
X165370861Y-97866861D01*
X165480220Y-97791748D01*
X165601707Y-97685812D01*
X165756192Y-97534465D01*
X165780062Y-97510292D01*
X165998855Y-97265614D01*
X166164151Y-97025814D01*
X166282145Y-96774431D01*
X166359034Y-96495003D01*
X166401014Y-96171069D01*
X166414281Y-95786169D01*
X166396649Y-95459970D01*
X166326723Y-95118499D01*
X166196715Y-94779841D01*
X166154131Y-94678423D01*
X166110146Y-94543001D01*
X166092934Y-94444146D01*
X166088502Y-94410097D01*
X166056181Y-94333815D01*
X165986786Y-94229763D01*
X165873543Y-94088318D01*
X165709678Y-93899860D01*
X165326816Y-93469524D01*
X165780233Y-93443955D01*
X166026273Y-93423129D01*
X166431236Y-93350029D01*
X166779773Y-93229370D01*
X167079561Y-93058145D01*
X167338273Y-92833346D01*
X167503900Y-92637346D01*
X167684920Y-92330700D01*
X167791366Y-91998529D01*
X167826191Y-91633569D01*
X167804454Y-91388383D01*
X167732737Y-91074751D01*
X167617500Y-90735955D01*
X167465519Y-90389152D01*
X167283571Y-90051501D01*
X167078432Y-89740159D01*
X167030641Y-89676223D01*
X166700707Y-89284153D01*
X166305508Y-88884839D01*
X165856500Y-88487378D01*
X165365144Y-88100871D01*
X164842895Y-87734418D01*
X164301214Y-87397118D01*
X163751558Y-87098071D01*
X163719432Y-87081763D01*
X163593558Y-87015043D01*
X163505229Y-86963645D01*
X163471905Y-86937588D01*
X163474241Y-86936951D01*
X163532397Y-86934368D01*
X163664828Y-86931891D01*
X163866410Y-86929544D01*
X164132021Y-86927348D01*
X164456538Y-86925326D01*
X164834836Y-86923500D01*
X165261793Y-86921894D01*
X165732286Y-86920529D01*
X166241190Y-86919429D01*
X166783384Y-86918615D01*
X167353743Y-86918110D01*
X167947143Y-86917937D01*
X172422382Y-86917937D01*
X172422382Y-94800000D01*
G37*
%TD*%
M02*
