%TF.GenerationSoftware,KiCad,Pcbnew,9.0.7*%
%TF.CreationDate,2026-01-26T17:00:07+01:00*%
%TF.ProjectId,Robot,526f626f-742e-46b6-9963-61645f706362,rev?*%
%TF.SameCoordinates,Original*%
%TF.FileFunction,Drillmap*%
%TF.FilePolarity,Positive*%
%FSLAX45Y45*%
G04 Gerber Fmt 4.5, Leading zero omitted, Abs format (unit mm)*
G04 Created by KiCad (PCBNEW 9.0.7) date 2026-01-26 17:00:07*
%MOMM*%
%LPD*%
G01*
G04 APERTURE LIST*
%ADD10C,0.050000*%
%ADD11C,0.200000*%
G04 APERTURE END LIST*
D10*
X19250000Y-7930000D02*
G75*
G02*
X19600000Y-8280000I0J-350000D01*
G01*
X19600000Y-8280000D02*
X19600000Y-10580000D01*
X13450000Y-10930000D02*
G75*
G02*
X13100000Y-10580000I0J350000D01*
G01*
X13450000Y-7930000D02*
X19250000Y-7930000D01*
X19250000Y-10930000D02*
X13450000Y-10930000D01*
X13100000Y-8280000D02*
G75*
G02*
X13450000Y-7930000I350000J0D01*
G01*
X19600000Y-10580000D02*
G75*
G02*
X19250000Y-10930000I-350000J0D01*
G01*
X13100000Y-8280000D02*
X13100000Y-10580000D01*
D11*
X13358277Y-11243984D02*
X13358277Y-11043984D01*
X13358277Y-11043984D02*
X13405896Y-11043984D01*
X13405896Y-11043984D02*
X13434467Y-11053508D01*
X13434467Y-11053508D02*
X13453515Y-11072555D01*
X13453515Y-11072555D02*
X13463039Y-11091603D01*
X13463039Y-11091603D02*
X13472562Y-11129698D01*
X13472562Y-11129698D02*
X13472562Y-11158270D01*
X13472562Y-11158270D02*
X13463039Y-11196365D01*
X13463039Y-11196365D02*
X13453515Y-11215412D01*
X13453515Y-11215412D02*
X13434467Y-11234460D01*
X13434467Y-11234460D02*
X13405896Y-11243984D01*
X13405896Y-11243984D02*
X13358277Y-11243984D01*
X13558277Y-11243984D02*
X13558277Y-11110650D01*
X13558277Y-11148746D02*
X13567801Y-11129698D01*
X13567801Y-11129698D02*
X13577324Y-11120174D01*
X13577324Y-11120174D02*
X13596372Y-11110650D01*
X13596372Y-11110650D02*
X13615420Y-11110650D01*
X13682086Y-11243984D02*
X13682086Y-11110650D01*
X13682086Y-11043984D02*
X13672562Y-11053508D01*
X13672562Y-11053508D02*
X13682086Y-11063031D01*
X13682086Y-11063031D02*
X13691610Y-11053508D01*
X13691610Y-11053508D02*
X13682086Y-11043984D01*
X13682086Y-11043984D02*
X13682086Y-11063031D01*
X13805896Y-11243984D02*
X13786848Y-11234460D01*
X13786848Y-11234460D02*
X13777324Y-11215412D01*
X13777324Y-11215412D02*
X13777324Y-11043984D01*
X13910658Y-11243984D02*
X13891610Y-11234460D01*
X13891610Y-11234460D02*
X13882086Y-11215412D01*
X13882086Y-11215412D02*
X13882086Y-11043984D01*
X14139229Y-11243984D02*
X14139229Y-11043984D01*
X14139229Y-11043984D02*
X14205896Y-11186841D01*
X14205896Y-11186841D02*
X14272562Y-11043984D01*
X14272562Y-11043984D02*
X14272562Y-11243984D01*
X14453515Y-11243984D02*
X14453515Y-11139222D01*
X14453515Y-11139222D02*
X14443991Y-11120174D01*
X14443991Y-11120174D02*
X14424943Y-11110650D01*
X14424943Y-11110650D02*
X14386848Y-11110650D01*
X14386848Y-11110650D02*
X14367801Y-11120174D01*
X14453515Y-11234460D02*
X14434467Y-11243984D01*
X14434467Y-11243984D02*
X14386848Y-11243984D01*
X14386848Y-11243984D02*
X14367801Y-11234460D01*
X14367801Y-11234460D02*
X14358277Y-11215412D01*
X14358277Y-11215412D02*
X14358277Y-11196365D01*
X14358277Y-11196365D02*
X14367801Y-11177317D01*
X14367801Y-11177317D02*
X14386848Y-11167793D01*
X14386848Y-11167793D02*
X14434467Y-11167793D01*
X14434467Y-11167793D02*
X14453515Y-11158270D01*
X14548753Y-11110650D02*
X14548753Y-11310650D01*
X14548753Y-11120174D02*
X14567801Y-11110650D01*
X14567801Y-11110650D02*
X14605896Y-11110650D01*
X14605896Y-11110650D02*
X14624943Y-11120174D01*
X14624943Y-11120174D02*
X14634467Y-11129698D01*
X14634467Y-11129698D02*
X14643991Y-11148746D01*
X14643991Y-11148746D02*
X14643991Y-11205888D01*
X14643991Y-11205888D02*
X14634467Y-11224936D01*
X14634467Y-11224936D02*
X14624943Y-11234460D01*
X14624943Y-11234460D02*
X14605896Y-11243984D01*
X14605896Y-11243984D02*
X14567801Y-11243984D01*
X14567801Y-11243984D02*
X14548753Y-11234460D01*
X14729705Y-11224936D02*
X14739229Y-11234460D01*
X14739229Y-11234460D02*
X14729705Y-11243984D01*
X14729705Y-11243984D02*
X14720182Y-11234460D01*
X14720182Y-11234460D02*
X14729705Y-11224936D01*
X14729705Y-11224936D02*
X14729705Y-11243984D01*
X14729705Y-11120174D02*
X14739229Y-11129698D01*
X14739229Y-11129698D02*
X14729705Y-11139222D01*
X14729705Y-11139222D02*
X14720182Y-11129698D01*
X14720182Y-11129698D02*
X14729705Y-11120174D01*
X14729705Y-11120174D02*
X14729705Y-11139222D01*
M02*
