%TF.GenerationSoftware,KiCad,Pcbnew,9.0.7*%
%TF.CreationDate,2026-01-26T17:00:03+01:00*%
%TF.ProjectId,Robot,526f626f-742e-46b6-9963-61645f706362,rev?*%
%TF.SameCoordinates,Original*%
%TF.FileFunction,Legend,Top*%
%TF.FilePolarity,Positive*%
%FSLAX46Y46*%
G04 Gerber Fmt 4.6, Leading zero omitted, Abs format (unit mm)*
G04 Created by KiCad (PCBNEW 9.0.7) date 2026-01-26 17:00:03*
%MOMM*%
%LPD*%
G01*
G04 APERTURE LIST*
%ADD10C,0.150000*%
%ADD11C,0.120000*%
G04 APERTURE END LIST*
D10*
X172107142Y-103159580D02*
X172059523Y-103207200D01*
X172059523Y-103207200D02*
X171916666Y-103254819D01*
X171916666Y-103254819D02*
X171821428Y-103254819D01*
X171821428Y-103254819D02*
X171678571Y-103207200D01*
X171678571Y-103207200D02*
X171583333Y-103111961D01*
X171583333Y-103111961D02*
X171535714Y-103016723D01*
X171535714Y-103016723D02*
X171488095Y-102826247D01*
X171488095Y-102826247D02*
X171488095Y-102683390D01*
X171488095Y-102683390D02*
X171535714Y-102492914D01*
X171535714Y-102492914D02*
X171583333Y-102397676D01*
X171583333Y-102397676D02*
X171678571Y-102302438D01*
X171678571Y-102302438D02*
X171821428Y-102254819D01*
X171821428Y-102254819D02*
X171916666Y-102254819D01*
X171916666Y-102254819D02*
X172059523Y-102302438D01*
X172059523Y-102302438D02*
X172107142Y-102350057D01*
X172488095Y-102350057D02*
X172535714Y-102302438D01*
X172535714Y-102302438D02*
X172630952Y-102254819D01*
X172630952Y-102254819D02*
X172869047Y-102254819D01*
X172869047Y-102254819D02*
X172964285Y-102302438D01*
X172964285Y-102302438D02*
X173011904Y-102350057D01*
X173011904Y-102350057D02*
X173059523Y-102445295D01*
X173059523Y-102445295D02*
X173059523Y-102540533D01*
X173059523Y-102540533D02*
X173011904Y-102683390D01*
X173011904Y-102683390D02*
X172440476Y-103254819D01*
X172440476Y-103254819D02*
X173059523Y-103254819D01*
X174011904Y-103254819D02*
X173440476Y-103254819D01*
X173726190Y-103254819D02*
X173726190Y-102254819D01*
X173726190Y-102254819D02*
X173630952Y-102397676D01*
X173630952Y-102397676D02*
X173535714Y-102492914D01*
X173535714Y-102492914D02*
X173440476Y-102540533D01*
X137604819Y-94583333D02*
X138319104Y-94583333D01*
X138319104Y-94583333D02*
X138461961Y-94630952D01*
X138461961Y-94630952D02*
X138557200Y-94726190D01*
X138557200Y-94726190D02*
X138604819Y-94869047D01*
X138604819Y-94869047D02*
X138604819Y-94964285D01*
X137938152Y-93678571D02*
X138604819Y-93678571D01*
X137557200Y-93916666D02*
X138271485Y-94154761D01*
X138271485Y-94154761D02*
X138271485Y-93535714D01*
X158857142Y-98954819D02*
X158523809Y-98478628D01*
X158285714Y-98954819D02*
X158285714Y-97954819D01*
X158285714Y-97954819D02*
X158666666Y-97954819D01*
X158666666Y-97954819D02*
X158761904Y-98002438D01*
X158761904Y-98002438D02*
X158809523Y-98050057D01*
X158809523Y-98050057D02*
X158857142Y-98145295D01*
X158857142Y-98145295D02*
X158857142Y-98288152D01*
X158857142Y-98288152D02*
X158809523Y-98383390D01*
X158809523Y-98383390D02*
X158761904Y-98431009D01*
X158761904Y-98431009D02*
X158666666Y-98478628D01*
X158666666Y-98478628D02*
X158285714Y-98478628D01*
X159809523Y-98954819D02*
X159238095Y-98954819D01*
X159523809Y-98954819D02*
X159523809Y-97954819D01*
X159523809Y-97954819D02*
X159428571Y-98097676D01*
X159428571Y-98097676D02*
X159333333Y-98192914D01*
X159333333Y-98192914D02*
X159238095Y-98240533D01*
X160190476Y-98050057D02*
X160238095Y-98002438D01*
X160238095Y-98002438D02*
X160333333Y-97954819D01*
X160333333Y-97954819D02*
X160571428Y-97954819D01*
X160571428Y-97954819D02*
X160666666Y-98002438D01*
X160666666Y-98002438D02*
X160714285Y-98050057D01*
X160714285Y-98050057D02*
X160761904Y-98145295D01*
X160761904Y-98145295D02*
X160761904Y-98240533D01*
X160761904Y-98240533D02*
X160714285Y-98383390D01*
X160714285Y-98383390D02*
X160142857Y-98954819D01*
X160142857Y-98954819D02*
X160761904Y-98954819D01*
X170083333Y-93704819D02*
X169750000Y-93228628D01*
X169511905Y-93704819D02*
X169511905Y-92704819D01*
X169511905Y-92704819D02*
X169892857Y-92704819D01*
X169892857Y-92704819D02*
X169988095Y-92752438D01*
X169988095Y-92752438D02*
X170035714Y-92800057D01*
X170035714Y-92800057D02*
X170083333Y-92895295D01*
X170083333Y-92895295D02*
X170083333Y-93038152D01*
X170083333Y-93038152D02*
X170035714Y-93133390D01*
X170035714Y-93133390D02*
X169988095Y-93181009D01*
X169988095Y-93181009D02*
X169892857Y-93228628D01*
X169892857Y-93228628D02*
X169511905Y-93228628D01*
X170416667Y-92704819D02*
X171035714Y-92704819D01*
X171035714Y-92704819D02*
X170702381Y-93085771D01*
X170702381Y-93085771D02*
X170845238Y-93085771D01*
X170845238Y-93085771D02*
X170940476Y-93133390D01*
X170940476Y-93133390D02*
X170988095Y-93181009D01*
X170988095Y-93181009D02*
X171035714Y-93276247D01*
X171035714Y-93276247D02*
X171035714Y-93514342D01*
X171035714Y-93514342D02*
X170988095Y-93609580D01*
X170988095Y-93609580D02*
X170940476Y-93657200D01*
X170940476Y-93657200D02*
X170845238Y-93704819D01*
X170845238Y-93704819D02*
X170559524Y-93704819D01*
X170559524Y-93704819D02*
X170464286Y-93657200D01*
X170464286Y-93657200D02*
X170416667Y-93609580D01*
X186083333Y-88609580D02*
X186035714Y-88657200D01*
X186035714Y-88657200D02*
X185892857Y-88704819D01*
X185892857Y-88704819D02*
X185797619Y-88704819D01*
X185797619Y-88704819D02*
X185654762Y-88657200D01*
X185654762Y-88657200D02*
X185559524Y-88561961D01*
X185559524Y-88561961D02*
X185511905Y-88466723D01*
X185511905Y-88466723D02*
X185464286Y-88276247D01*
X185464286Y-88276247D02*
X185464286Y-88133390D01*
X185464286Y-88133390D02*
X185511905Y-87942914D01*
X185511905Y-87942914D02*
X185559524Y-87847676D01*
X185559524Y-87847676D02*
X185654762Y-87752438D01*
X185654762Y-87752438D02*
X185797619Y-87704819D01*
X185797619Y-87704819D02*
X185892857Y-87704819D01*
X185892857Y-87704819D02*
X186035714Y-87752438D01*
X186035714Y-87752438D02*
X186083333Y-87800057D01*
X186464286Y-87800057D02*
X186511905Y-87752438D01*
X186511905Y-87752438D02*
X186607143Y-87704819D01*
X186607143Y-87704819D02*
X186845238Y-87704819D01*
X186845238Y-87704819D02*
X186940476Y-87752438D01*
X186940476Y-87752438D02*
X186988095Y-87800057D01*
X186988095Y-87800057D02*
X187035714Y-87895295D01*
X187035714Y-87895295D02*
X187035714Y-87990533D01*
X187035714Y-87990533D02*
X186988095Y-88133390D01*
X186988095Y-88133390D02*
X186416667Y-88704819D01*
X186416667Y-88704819D02*
X187035714Y-88704819D01*
X156607142Y-102359580D02*
X156559523Y-102407200D01*
X156559523Y-102407200D02*
X156416666Y-102454819D01*
X156416666Y-102454819D02*
X156321428Y-102454819D01*
X156321428Y-102454819D02*
X156178571Y-102407200D01*
X156178571Y-102407200D02*
X156083333Y-102311961D01*
X156083333Y-102311961D02*
X156035714Y-102216723D01*
X156035714Y-102216723D02*
X155988095Y-102026247D01*
X155988095Y-102026247D02*
X155988095Y-101883390D01*
X155988095Y-101883390D02*
X156035714Y-101692914D01*
X156035714Y-101692914D02*
X156083333Y-101597676D01*
X156083333Y-101597676D02*
X156178571Y-101502438D01*
X156178571Y-101502438D02*
X156321428Y-101454819D01*
X156321428Y-101454819D02*
X156416666Y-101454819D01*
X156416666Y-101454819D02*
X156559523Y-101502438D01*
X156559523Y-101502438D02*
X156607142Y-101550057D01*
X157559523Y-102454819D02*
X156988095Y-102454819D01*
X157273809Y-102454819D02*
X157273809Y-101454819D01*
X157273809Y-101454819D02*
X157178571Y-101597676D01*
X157178571Y-101597676D02*
X157083333Y-101692914D01*
X157083333Y-101692914D02*
X156988095Y-101740533D01*
X158464285Y-101454819D02*
X157988095Y-101454819D01*
X157988095Y-101454819D02*
X157940476Y-101931009D01*
X157940476Y-101931009D02*
X157988095Y-101883390D01*
X157988095Y-101883390D02*
X158083333Y-101835771D01*
X158083333Y-101835771D02*
X158321428Y-101835771D01*
X158321428Y-101835771D02*
X158416666Y-101883390D01*
X158416666Y-101883390D02*
X158464285Y-101931009D01*
X158464285Y-101931009D02*
X158511904Y-102026247D01*
X158511904Y-102026247D02*
X158511904Y-102264342D01*
X158511904Y-102264342D02*
X158464285Y-102359580D01*
X158464285Y-102359580D02*
X158416666Y-102407200D01*
X158416666Y-102407200D02*
X158321428Y-102454819D01*
X158321428Y-102454819D02*
X158083333Y-102454819D01*
X158083333Y-102454819D02*
X157988095Y-102407200D01*
X157988095Y-102407200D02*
X157940476Y-102359580D01*
X164357142Y-99789580D02*
X164309523Y-99837200D01*
X164309523Y-99837200D02*
X164166666Y-99884819D01*
X164166666Y-99884819D02*
X164071428Y-99884819D01*
X164071428Y-99884819D02*
X163928571Y-99837200D01*
X163928571Y-99837200D02*
X163833333Y-99741961D01*
X163833333Y-99741961D02*
X163785714Y-99646723D01*
X163785714Y-99646723D02*
X163738095Y-99456247D01*
X163738095Y-99456247D02*
X163738095Y-99313390D01*
X163738095Y-99313390D02*
X163785714Y-99122914D01*
X163785714Y-99122914D02*
X163833333Y-99027676D01*
X163833333Y-99027676D02*
X163928571Y-98932438D01*
X163928571Y-98932438D02*
X164071428Y-98884819D01*
X164071428Y-98884819D02*
X164166666Y-98884819D01*
X164166666Y-98884819D02*
X164309523Y-98932438D01*
X164309523Y-98932438D02*
X164357142Y-98980057D01*
X165309523Y-99884819D02*
X164738095Y-99884819D01*
X165023809Y-99884819D02*
X165023809Y-98884819D01*
X165023809Y-98884819D02*
X164928571Y-99027676D01*
X164928571Y-99027676D02*
X164833333Y-99122914D01*
X164833333Y-99122914D02*
X164738095Y-99170533D01*
X165690476Y-98980057D02*
X165738095Y-98932438D01*
X165738095Y-98932438D02*
X165833333Y-98884819D01*
X165833333Y-98884819D02*
X166071428Y-98884819D01*
X166071428Y-98884819D02*
X166166666Y-98932438D01*
X166166666Y-98932438D02*
X166214285Y-98980057D01*
X166214285Y-98980057D02*
X166261904Y-99075295D01*
X166261904Y-99075295D02*
X166261904Y-99170533D01*
X166261904Y-99170533D02*
X166214285Y-99313390D01*
X166214285Y-99313390D02*
X165642857Y-99884819D01*
X165642857Y-99884819D02*
X166261904Y-99884819D01*
X167583333Y-100204819D02*
X167250000Y-99728628D01*
X167011905Y-100204819D02*
X167011905Y-99204819D01*
X167011905Y-99204819D02*
X167392857Y-99204819D01*
X167392857Y-99204819D02*
X167488095Y-99252438D01*
X167488095Y-99252438D02*
X167535714Y-99300057D01*
X167535714Y-99300057D02*
X167583333Y-99395295D01*
X167583333Y-99395295D02*
X167583333Y-99538152D01*
X167583333Y-99538152D02*
X167535714Y-99633390D01*
X167535714Y-99633390D02*
X167488095Y-99681009D01*
X167488095Y-99681009D02*
X167392857Y-99728628D01*
X167392857Y-99728628D02*
X167011905Y-99728628D01*
X168440476Y-99538152D02*
X168440476Y-100204819D01*
X168202381Y-99157200D02*
X167964286Y-99871485D01*
X167964286Y-99871485D02*
X168583333Y-99871485D01*
X150988095Y-87854819D02*
X150988095Y-88664342D01*
X150988095Y-88664342D02*
X151035714Y-88759580D01*
X151035714Y-88759580D02*
X151083333Y-88807200D01*
X151083333Y-88807200D02*
X151178571Y-88854819D01*
X151178571Y-88854819D02*
X151369047Y-88854819D01*
X151369047Y-88854819D02*
X151464285Y-88807200D01*
X151464285Y-88807200D02*
X151511904Y-88759580D01*
X151511904Y-88759580D02*
X151559523Y-88664342D01*
X151559523Y-88664342D02*
X151559523Y-87854819D01*
X152559523Y-88854819D02*
X151988095Y-88854819D01*
X152273809Y-88854819D02*
X152273809Y-87854819D01*
X152273809Y-87854819D02*
X152178571Y-87997676D01*
X152178571Y-87997676D02*
X152083333Y-88092914D01*
X152083333Y-88092914D02*
X151988095Y-88140533D01*
X158357142Y-87954819D02*
X158023809Y-87478628D01*
X157785714Y-87954819D02*
X157785714Y-86954819D01*
X157785714Y-86954819D02*
X158166666Y-86954819D01*
X158166666Y-86954819D02*
X158261904Y-87002438D01*
X158261904Y-87002438D02*
X158309523Y-87050057D01*
X158309523Y-87050057D02*
X158357142Y-87145295D01*
X158357142Y-87145295D02*
X158357142Y-87288152D01*
X158357142Y-87288152D02*
X158309523Y-87383390D01*
X158309523Y-87383390D02*
X158261904Y-87431009D01*
X158261904Y-87431009D02*
X158166666Y-87478628D01*
X158166666Y-87478628D02*
X157785714Y-87478628D01*
X159309523Y-87954819D02*
X158738095Y-87954819D01*
X159023809Y-87954819D02*
X159023809Y-86954819D01*
X159023809Y-86954819D02*
X158928571Y-87097676D01*
X158928571Y-87097676D02*
X158833333Y-87192914D01*
X158833333Y-87192914D02*
X158738095Y-87240533D01*
X160166666Y-86954819D02*
X159976190Y-86954819D01*
X159976190Y-86954819D02*
X159880952Y-87002438D01*
X159880952Y-87002438D02*
X159833333Y-87050057D01*
X159833333Y-87050057D02*
X159738095Y-87192914D01*
X159738095Y-87192914D02*
X159690476Y-87383390D01*
X159690476Y-87383390D02*
X159690476Y-87764342D01*
X159690476Y-87764342D02*
X159738095Y-87859580D01*
X159738095Y-87859580D02*
X159785714Y-87907200D01*
X159785714Y-87907200D02*
X159880952Y-87954819D01*
X159880952Y-87954819D02*
X160071428Y-87954819D01*
X160071428Y-87954819D02*
X160166666Y-87907200D01*
X160166666Y-87907200D02*
X160214285Y-87859580D01*
X160214285Y-87859580D02*
X160261904Y-87764342D01*
X160261904Y-87764342D02*
X160261904Y-87526247D01*
X160261904Y-87526247D02*
X160214285Y-87431009D01*
X160214285Y-87431009D02*
X160166666Y-87383390D01*
X160166666Y-87383390D02*
X160071428Y-87335771D01*
X160071428Y-87335771D02*
X159880952Y-87335771D01*
X159880952Y-87335771D02*
X159785714Y-87383390D01*
X159785714Y-87383390D02*
X159738095Y-87431009D01*
X159738095Y-87431009D02*
X159690476Y-87526247D01*
X186833333Y-99359580D02*
X186785714Y-99407200D01*
X186785714Y-99407200D02*
X186642857Y-99454819D01*
X186642857Y-99454819D02*
X186547619Y-99454819D01*
X186547619Y-99454819D02*
X186404762Y-99407200D01*
X186404762Y-99407200D02*
X186309524Y-99311961D01*
X186309524Y-99311961D02*
X186261905Y-99216723D01*
X186261905Y-99216723D02*
X186214286Y-99026247D01*
X186214286Y-99026247D02*
X186214286Y-98883390D01*
X186214286Y-98883390D02*
X186261905Y-98692914D01*
X186261905Y-98692914D02*
X186309524Y-98597676D01*
X186309524Y-98597676D02*
X186404762Y-98502438D01*
X186404762Y-98502438D02*
X186547619Y-98454819D01*
X186547619Y-98454819D02*
X186642857Y-98454819D01*
X186642857Y-98454819D02*
X186785714Y-98502438D01*
X186785714Y-98502438D02*
X186833333Y-98550057D01*
X187166667Y-98454819D02*
X187785714Y-98454819D01*
X187785714Y-98454819D02*
X187452381Y-98835771D01*
X187452381Y-98835771D02*
X187595238Y-98835771D01*
X187595238Y-98835771D02*
X187690476Y-98883390D01*
X187690476Y-98883390D02*
X187738095Y-98931009D01*
X187738095Y-98931009D02*
X187785714Y-99026247D01*
X187785714Y-99026247D02*
X187785714Y-99264342D01*
X187785714Y-99264342D02*
X187738095Y-99359580D01*
X187738095Y-99359580D02*
X187690476Y-99407200D01*
X187690476Y-99407200D02*
X187595238Y-99454819D01*
X187595238Y-99454819D02*
X187309524Y-99454819D01*
X187309524Y-99454819D02*
X187214286Y-99407200D01*
X187214286Y-99407200D02*
X187166667Y-99359580D01*
X191738095Y-102604819D02*
X191738095Y-101604819D01*
X191738095Y-102081009D02*
X192309523Y-102081009D01*
X192309523Y-102604819D02*
X192309523Y-101604819D01*
X193214285Y-101938152D02*
X193214285Y-102604819D01*
X192976190Y-101557200D02*
X192738095Y-102271485D01*
X192738095Y-102271485D02*
X193357142Y-102271485D01*
X141357142Y-98784819D02*
X141023809Y-98308628D01*
X140785714Y-98784819D02*
X140785714Y-97784819D01*
X140785714Y-97784819D02*
X141166666Y-97784819D01*
X141166666Y-97784819D02*
X141261904Y-97832438D01*
X141261904Y-97832438D02*
X141309523Y-97880057D01*
X141309523Y-97880057D02*
X141357142Y-97975295D01*
X141357142Y-97975295D02*
X141357142Y-98118152D01*
X141357142Y-98118152D02*
X141309523Y-98213390D01*
X141309523Y-98213390D02*
X141261904Y-98261009D01*
X141261904Y-98261009D02*
X141166666Y-98308628D01*
X141166666Y-98308628D02*
X140785714Y-98308628D01*
X142309523Y-98784819D02*
X141738095Y-98784819D01*
X142023809Y-98784819D02*
X142023809Y-97784819D01*
X142023809Y-97784819D02*
X141928571Y-97927676D01*
X141928571Y-97927676D02*
X141833333Y-98022914D01*
X141833333Y-98022914D02*
X141738095Y-98070533D01*
X142642857Y-97784819D02*
X143261904Y-97784819D01*
X143261904Y-97784819D02*
X142928571Y-98165771D01*
X142928571Y-98165771D02*
X143071428Y-98165771D01*
X143071428Y-98165771D02*
X143166666Y-98213390D01*
X143166666Y-98213390D02*
X143214285Y-98261009D01*
X143214285Y-98261009D02*
X143261904Y-98356247D01*
X143261904Y-98356247D02*
X143261904Y-98594342D01*
X143261904Y-98594342D02*
X143214285Y-98689580D01*
X143214285Y-98689580D02*
X143166666Y-98737200D01*
X143166666Y-98737200D02*
X143071428Y-98784819D01*
X143071428Y-98784819D02*
X142785714Y-98784819D01*
X142785714Y-98784819D02*
X142690476Y-98737200D01*
X142690476Y-98737200D02*
X142642857Y-98689580D01*
X137857142Y-102109580D02*
X137809523Y-102157200D01*
X137809523Y-102157200D02*
X137666666Y-102204819D01*
X137666666Y-102204819D02*
X137571428Y-102204819D01*
X137571428Y-102204819D02*
X137428571Y-102157200D01*
X137428571Y-102157200D02*
X137333333Y-102061961D01*
X137333333Y-102061961D02*
X137285714Y-101966723D01*
X137285714Y-101966723D02*
X137238095Y-101776247D01*
X137238095Y-101776247D02*
X137238095Y-101633390D01*
X137238095Y-101633390D02*
X137285714Y-101442914D01*
X137285714Y-101442914D02*
X137333333Y-101347676D01*
X137333333Y-101347676D02*
X137428571Y-101252438D01*
X137428571Y-101252438D02*
X137571428Y-101204819D01*
X137571428Y-101204819D02*
X137666666Y-101204819D01*
X137666666Y-101204819D02*
X137809523Y-101252438D01*
X137809523Y-101252438D02*
X137857142Y-101300057D01*
X138809523Y-102204819D02*
X138238095Y-102204819D01*
X138523809Y-102204819D02*
X138523809Y-101204819D01*
X138523809Y-101204819D02*
X138428571Y-101347676D01*
X138428571Y-101347676D02*
X138333333Y-101442914D01*
X138333333Y-101442914D02*
X138238095Y-101490533D01*
X139761904Y-102204819D02*
X139190476Y-102204819D01*
X139476190Y-102204819D02*
X139476190Y-101204819D01*
X139476190Y-101204819D02*
X139380952Y-101347676D01*
X139380952Y-101347676D02*
X139285714Y-101442914D01*
X139285714Y-101442914D02*
X139190476Y-101490533D01*
X160357142Y-96204819D02*
X160023809Y-95728628D01*
X159785714Y-96204819D02*
X159785714Y-95204819D01*
X159785714Y-95204819D02*
X160166666Y-95204819D01*
X160166666Y-95204819D02*
X160261904Y-95252438D01*
X160261904Y-95252438D02*
X160309523Y-95300057D01*
X160309523Y-95300057D02*
X160357142Y-95395295D01*
X160357142Y-95395295D02*
X160357142Y-95538152D01*
X160357142Y-95538152D02*
X160309523Y-95633390D01*
X160309523Y-95633390D02*
X160261904Y-95681009D01*
X160261904Y-95681009D02*
X160166666Y-95728628D01*
X160166666Y-95728628D02*
X159785714Y-95728628D01*
X161309523Y-96204819D02*
X160738095Y-96204819D01*
X161023809Y-96204819D02*
X161023809Y-95204819D01*
X161023809Y-95204819D02*
X160928571Y-95347676D01*
X160928571Y-95347676D02*
X160833333Y-95442914D01*
X160833333Y-95442914D02*
X160738095Y-95490533D01*
X162214285Y-95204819D02*
X161738095Y-95204819D01*
X161738095Y-95204819D02*
X161690476Y-95681009D01*
X161690476Y-95681009D02*
X161738095Y-95633390D01*
X161738095Y-95633390D02*
X161833333Y-95585771D01*
X161833333Y-95585771D02*
X162071428Y-95585771D01*
X162071428Y-95585771D02*
X162166666Y-95633390D01*
X162166666Y-95633390D02*
X162214285Y-95681009D01*
X162214285Y-95681009D02*
X162261904Y-95776247D01*
X162261904Y-95776247D02*
X162261904Y-96014342D01*
X162261904Y-96014342D02*
X162214285Y-96109580D01*
X162214285Y-96109580D02*
X162166666Y-96157200D01*
X162166666Y-96157200D02*
X162071428Y-96204819D01*
X162071428Y-96204819D02*
X161833333Y-96204819D01*
X161833333Y-96204819D02*
X161738095Y-96157200D01*
X161738095Y-96157200D02*
X161690476Y-96109580D01*
X142511905Y-107579819D02*
X142511905Y-106579819D01*
X142511905Y-106579819D02*
X142750000Y-106579819D01*
X142750000Y-106579819D02*
X142892857Y-106627438D01*
X142892857Y-106627438D02*
X142988095Y-106722676D01*
X142988095Y-106722676D02*
X143035714Y-106817914D01*
X143035714Y-106817914D02*
X143083333Y-107008390D01*
X143083333Y-107008390D02*
X143083333Y-107151247D01*
X143083333Y-107151247D02*
X143035714Y-107341723D01*
X143035714Y-107341723D02*
X142988095Y-107436961D01*
X142988095Y-107436961D02*
X142892857Y-107532200D01*
X142892857Y-107532200D02*
X142750000Y-107579819D01*
X142750000Y-107579819D02*
X142511905Y-107579819D01*
X143464286Y-106675057D02*
X143511905Y-106627438D01*
X143511905Y-106627438D02*
X143607143Y-106579819D01*
X143607143Y-106579819D02*
X143845238Y-106579819D01*
X143845238Y-106579819D02*
X143940476Y-106627438D01*
X143940476Y-106627438D02*
X143988095Y-106675057D01*
X143988095Y-106675057D02*
X144035714Y-106770295D01*
X144035714Y-106770295D02*
X144035714Y-106865533D01*
X144035714Y-106865533D02*
X143988095Y-107008390D01*
X143988095Y-107008390D02*
X143416667Y-107579819D01*
X143416667Y-107579819D02*
X144035714Y-107579819D01*
X148261905Y-105454819D02*
X148261905Y-104454819D01*
X148261905Y-104454819D02*
X148500000Y-104454819D01*
X148500000Y-104454819D02*
X148642857Y-104502438D01*
X148642857Y-104502438D02*
X148738095Y-104597676D01*
X148738095Y-104597676D02*
X148785714Y-104692914D01*
X148785714Y-104692914D02*
X148833333Y-104883390D01*
X148833333Y-104883390D02*
X148833333Y-105026247D01*
X148833333Y-105026247D02*
X148785714Y-105216723D01*
X148785714Y-105216723D02*
X148738095Y-105311961D01*
X148738095Y-105311961D02*
X148642857Y-105407200D01*
X148642857Y-105407200D02*
X148500000Y-105454819D01*
X148500000Y-105454819D02*
X148261905Y-105454819D01*
X149738095Y-104454819D02*
X149261905Y-104454819D01*
X149261905Y-104454819D02*
X149214286Y-104931009D01*
X149214286Y-104931009D02*
X149261905Y-104883390D01*
X149261905Y-104883390D02*
X149357143Y-104835771D01*
X149357143Y-104835771D02*
X149595238Y-104835771D01*
X149595238Y-104835771D02*
X149690476Y-104883390D01*
X149690476Y-104883390D02*
X149738095Y-104931009D01*
X149738095Y-104931009D02*
X149785714Y-105026247D01*
X149785714Y-105026247D02*
X149785714Y-105264342D01*
X149785714Y-105264342D02*
X149738095Y-105359580D01*
X149738095Y-105359580D02*
X149690476Y-105407200D01*
X149690476Y-105407200D02*
X149595238Y-105454819D01*
X149595238Y-105454819D02*
X149357143Y-105454819D01*
X149357143Y-105454819D02*
X149261905Y-105407200D01*
X149261905Y-105407200D02*
X149214286Y-105359580D01*
X169107142Y-87609580D02*
X169059523Y-87657200D01*
X169059523Y-87657200D02*
X168916666Y-87704819D01*
X168916666Y-87704819D02*
X168821428Y-87704819D01*
X168821428Y-87704819D02*
X168678571Y-87657200D01*
X168678571Y-87657200D02*
X168583333Y-87561961D01*
X168583333Y-87561961D02*
X168535714Y-87466723D01*
X168535714Y-87466723D02*
X168488095Y-87276247D01*
X168488095Y-87276247D02*
X168488095Y-87133390D01*
X168488095Y-87133390D02*
X168535714Y-86942914D01*
X168535714Y-86942914D02*
X168583333Y-86847676D01*
X168583333Y-86847676D02*
X168678571Y-86752438D01*
X168678571Y-86752438D02*
X168821428Y-86704819D01*
X168821428Y-86704819D02*
X168916666Y-86704819D01*
X168916666Y-86704819D02*
X169059523Y-86752438D01*
X169059523Y-86752438D02*
X169107142Y-86800057D01*
X170059523Y-87704819D02*
X169488095Y-87704819D01*
X169773809Y-87704819D02*
X169773809Y-86704819D01*
X169773809Y-86704819D02*
X169678571Y-86847676D01*
X169678571Y-86847676D02*
X169583333Y-86942914D01*
X169583333Y-86942914D02*
X169488095Y-86990533D01*
X170916666Y-86704819D02*
X170726190Y-86704819D01*
X170726190Y-86704819D02*
X170630952Y-86752438D01*
X170630952Y-86752438D02*
X170583333Y-86800057D01*
X170583333Y-86800057D02*
X170488095Y-86942914D01*
X170488095Y-86942914D02*
X170440476Y-87133390D01*
X170440476Y-87133390D02*
X170440476Y-87514342D01*
X170440476Y-87514342D02*
X170488095Y-87609580D01*
X170488095Y-87609580D02*
X170535714Y-87657200D01*
X170535714Y-87657200D02*
X170630952Y-87704819D01*
X170630952Y-87704819D02*
X170821428Y-87704819D01*
X170821428Y-87704819D02*
X170916666Y-87657200D01*
X170916666Y-87657200D02*
X170964285Y-87609580D01*
X170964285Y-87609580D02*
X171011904Y-87514342D01*
X171011904Y-87514342D02*
X171011904Y-87276247D01*
X171011904Y-87276247D02*
X170964285Y-87181009D01*
X170964285Y-87181009D02*
X170916666Y-87133390D01*
X170916666Y-87133390D02*
X170821428Y-87085771D01*
X170821428Y-87085771D02*
X170630952Y-87085771D01*
X170630952Y-87085771D02*
X170535714Y-87133390D01*
X170535714Y-87133390D02*
X170488095Y-87181009D01*
X170488095Y-87181009D02*
X170440476Y-87276247D01*
X160107142Y-90454819D02*
X159773809Y-89978628D01*
X159535714Y-90454819D02*
X159535714Y-89454819D01*
X159535714Y-89454819D02*
X159916666Y-89454819D01*
X159916666Y-89454819D02*
X160011904Y-89502438D01*
X160011904Y-89502438D02*
X160059523Y-89550057D01*
X160059523Y-89550057D02*
X160107142Y-89645295D01*
X160107142Y-89645295D02*
X160107142Y-89788152D01*
X160107142Y-89788152D02*
X160059523Y-89883390D01*
X160059523Y-89883390D02*
X160011904Y-89931009D01*
X160011904Y-89931009D02*
X159916666Y-89978628D01*
X159916666Y-89978628D02*
X159535714Y-89978628D01*
X161059523Y-90454819D02*
X160488095Y-90454819D01*
X160773809Y-90454819D02*
X160773809Y-89454819D01*
X160773809Y-89454819D02*
X160678571Y-89597676D01*
X160678571Y-89597676D02*
X160583333Y-89692914D01*
X160583333Y-89692914D02*
X160488095Y-89740533D01*
X161535714Y-90454819D02*
X161726190Y-90454819D01*
X161726190Y-90454819D02*
X161821428Y-90407200D01*
X161821428Y-90407200D02*
X161869047Y-90359580D01*
X161869047Y-90359580D02*
X161964285Y-90216723D01*
X161964285Y-90216723D02*
X162011904Y-90026247D01*
X162011904Y-90026247D02*
X162011904Y-89645295D01*
X162011904Y-89645295D02*
X161964285Y-89550057D01*
X161964285Y-89550057D02*
X161916666Y-89502438D01*
X161916666Y-89502438D02*
X161821428Y-89454819D01*
X161821428Y-89454819D02*
X161630952Y-89454819D01*
X161630952Y-89454819D02*
X161535714Y-89502438D01*
X161535714Y-89502438D02*
X161488095Y-89550057D01*
X161488095Y-89550057D02*
X161440476Y-89645295D01*
X161440476Y-89645295D02*
X161440476Y-89883390D01*
X161440476Y-89883390D02*
X161488095Y-89978628D01*
X161488095Y-89978628D02*
X161535714Y-90026247D01*
X161535714Y-90026247D02*
X161630952Y-90073866D01*
X161630952Y-90073866D02*
X161821428Y-90073866D01*
X161821428Y-90073866D02*
X161916666Y-90026247D01*
X161916666Y-90026247D02*
X161964285Y-89978628D01*
X161964285Y-89978628D02*
X162011904Y-89883390D01*
X148833333Y-88359580D02*
X148785714Y-88407200D01*
X148785714Y-88407200D02*
X148642857Y-88454819D01*
X148642857Y-88454819D02*
X148547619Y-88454819D01*
X148547619Y-88454819D02*
X148404762Y-88407200D01*
X148404762Y-88407200D02*
X148309524Y-88311961D01*
X148309524Y-88311961D02*
X148261905Y-88216723D01*
X148261905Y-88216723D02*
X148214286Y-88026247D01*
X148214286Y-88026247D02*
X148214286Y-87883390D01*
X148214286Y-87883390D02*
X148261905Y-87692914D01*
X148261905Y-87692914D02*
X148309524Y-87597676D01*
X148309524Y-87597676D02*
X148404762Y-87502438D01*
X148404762Y-87502438D02*
X148547619Y-87454819D01*
X148547619Y-87454819D02*
X148642857Y-87454819D01*
X148642857Y-87454819D02*
X148785714Y-87502438D01*
X148785714Y-87502438D02*
X148833333Y-87550057D01*
X149690476Y-87454819D02*
X149500000Y-87454819D01*
X149500000Y-87454819D02*
X149404762Y-87502438D01*
X149404762Y-87502438D02*
X149357143Y-87550057D01*
X149357143Y-87550057D02*
X149261905Y-87692914D01*
X149261905Y-87692914D02*
X149214286Y-87883390D01*
X149214286Y-87883390D02*
X149214286Y-88264342D01*
X149214286Y-88264342D02*
X149261905Y-88359580D01*
X149261905Y-88359580D02*
X149309524Y-88407200D01*
X149309524Y-88407200D02*
X149404762Y-88454819D01*
X149404762Y-88454819D02*
X149595238Y-88454819D01*
X149595238Y-88454819D02*
X149690476Y-88407200D01*
X149690476Y-88407200D02*
X149738095Y-88359580D01*
X149738095Y-88359580D02*
X149785714Y-88264342D01*
X149785714Y-88264342D02*
X149785714Y-88026247D01*
X149785714Y-88026247D02*
X149738095Y-87931009D01*
X149738095Y-87931009D02*
X149690476Y-87883390D01*
X149690476Y-87883390D02*
X149595238Y-87835771D01*
X149595238Y-87835771D02*
X149404762Y-87835771D01*
X149404762Y-87835771D02*
X149309524Y-87883390D01*
X149309524Y-87883390D02*
X149261905Y-87931009D01*
X149261905Y-87931009D02*
X149214286Y-88026247D01*
X156333333Y-96704819D02*
X156000000Y-96228628D01*
X155761905Y-96704819D02*
X155761905Y-95704819D01*
X155761905Y-95704819D02*
X156142857Y-95704819D01*
X156142857Y-95704819D02*
X156238095Y-95752438D01*
X156238095Y-95752438D02*
X156285714Y-95800057D01*
X156285714Y-95800057D02*
X156333333Y-95895295D01*
X156333333Y-95895295D02*
X156333333Y-96038152D01*
X156333333Y-96038152D02*
X156285714Y-96133390D01*
X156285714Y-96133390D02*
X156238095Y-96181009D01*
X156238095Y-96181009D02*
X156142857Y-96228628D01*
X156142857Y-96228628D02*
X155761905Y-96228628D01*
X156809524Y-96704819D02*
X157000000Y-96704819D01*
X157000000Y-96704819D02*
X157095238Y-96657200D01*
X157095238Y-96657200D02*
X157142857Y-96609580D01*
X157142857Y-96609580D02*
X157238095Y-96466723D01*
X157238095Y-96466723D02*
X157285714Y-96276247D01*
X157285714Y-96276247D02*
X157285714Y-95895295D01*
X157285714Y-95895295D02*
X157238095Y-95800057D01*
X157238095Y-95800057D02*
X157190476Y-95752438D01*
X157190476Y-95752438D02*
X157095238Y-95704819D01*
X157095238Y-95704819D02*
X156904762Y-95704819D01*
X156904762Y-95704819D02*
X156809524Y-95752438D01*
X156809524Y-95752438D02*
X156761905Y-95800057D01*
X156761905Y-95800057D02*
X156714286Y-95895295D01*
X156714286Y-95895295D02*
X156714286Y-96133390D01*
X156714286Y-96133390D02*
X156761905Y-96228628D01*
X156761905Y-96228628D02*
X156809524Y-96276247D01*
X156809524Y-96276247D02*
X156904762Y-96323866D01*
X156904762Y-96323866D02*
X157095238Y-96323866D01*
X157095238Y-96323866D02*
X157190476Y-96276247D01*
X157190476Y-96276247D02*
X157238095Y-96228628D01*
X157238095Y-96228628D02*
X157285714Y-96133390D01*
X144333333Y-89609580D02*
X144285714Y-89657200D01*
X144285714Y-89657200D02*
X144142857Y-89704819D01*
X144142857Y-89704819D02*
X144047619Y-89704819D01*
X144047619Y-89704819D02*
X143904762Y-89657200D01*
X143904762Y-89657200D02*
X143809524Y-89561961D01*
X143809524Y-89561961D02*
X143761905Y-89466723D01*
X143761905Y-89466723D02*
X143714286Y-89276247D01*
X143714286Y-89276247D02*
X143714286Y-89133390D01*
X143714286Y-89133390D02*
X143761905Y-88942914D01*
X143761905Y-88942914D02*
X143809524Y-88847676D01*
X143809524Y-88847676D02*
X143904762Y-88752438D01*
X143904762Y-88752438D02*
X144047619Y-88704819D01*
X144047619Y-88704819D02*
X144142857Y-88704819D01*
X144142857Y-88704819D02*
X144285714Y-88752438D01*
X144285714Y-88752438D02*
X144333333Y-88800057D01*
X145238095Y-88704819D02*
X144761905Y-88704819D01*
X144761905Y-88704819D02*
X144714286Y-89181009D01*
X144714286Y-89181009D02*
X144761905Y-89133390D01*
X144761905Y-89133390D02*
X144857143Y-89085771D01*
X144857143Y-89085771D02*
X145095238Y-89085771D01*
X145095238Y-89085771D02*
X145190476Y-89133390D01*
X145190476Y-89133390D02*
X145238095Y-89181009D01*
X145238095Y-89181009D02*
X145285714Y-89276247D01*
X145285714Y-89276247D02*
X145285714Y-89514342D01*
X145285714Y-89514342D02*
X145238095Y-89609580D01*
X145238095Y-89609580D02*
X145190476Y-89657200D01*
X145190476Y-89657200D02*
X145095238Y-89704819D01*
X145095238Y-89704819D02*
X144857143Y-89704819D01*
X144857143Y-89704819D02*
X144761905Y-89657200D01*
X144761905Y-89657200D02*
X144714286Y-89609580D01*
X171107142Y-101954819D02*
X170773809Y-101478628D01*
X170535714Y-101954819D02*
X170535714Y-100954819D01*
X170535714Y-100954819D02*
X170916666Y-100954819D01*
X170916666Y-100954819D02*
X171011904Y-101002438D01*
X171011904Y-101002438D02*
X171059523Y-101050057D01*
X171059523Y-101050057D02*
X171107142Y-101145295D01*
X171107142Y-101145295D02*
X171107142Y-101288152D01*
X171107142Y-101288152D02*
X171059523Y-101383390D01*
X171059523Y-101383390D02*
X171011904Y-101431009D01*
X171011904Y-101431009D02*
X170916666Y-101478628D01*
X170916666Y-101478628D02*
X170535714Y-101478628D01*
X172059523Y-101954819D02*
X171488095Y-101954819D01*
X171773809Y-101954819D02*
X171773809Y-100954819D01*
X171773809Y-100954819D02*
X171678571Y-101097676D01*
X171678571Y-101097676D02*
X171583333Y-101192914D01*
X171583333Y-101192914D02*
X171488095Y-101240533D01*
X172916666Y-101288152D02*
X172916666Y-101954819D01*
X172678571Y-100907200D02*
X172440476Y-101621485D01*
X172440476Y-101621485D02*
X173059523Y-101621485D01*
X154857142Y-87954819D02*
X154523809Y-87478628D01*
X154285714Y-87954819D02*
X154285714Y-86954819D01*
X154285714Y-86954819D02*
X154666666Y-86954819D01*
X154666666Y-86954819D02*
X154761904Y-87002438D01*
X154761904Y-87002438D02*
X154809523Y-87050057D01*
X154809523Y-87050057D02*
X154857142Y-87145295D01*
X154857142Y-87145295D02*
X154857142Y-87288152D01*
X154857142Y-87288152D02*
X154809523Y-87383390D01*
X154809523Y-87383390D02*
X154761904Y-87431009D01*
X154761904Y-87431009D02*
X154666666Y-87478628D01*
X154666666Y-87478628D02*
X154285714Y-87478628D01*
X155809523Y-87954819D02*
X155238095Y-87954819D01*
X155523809Y-87954819D02*
X155523809Y-86954819D01*
X155523809Y-86954819D02*
X155428571Y-87097676D01*
X155428571Y-87097676D02*
X155333333Y-87192914D01*
X155333333Y-87192914D02*
X155238095Y-87240533D01*
X156428571Y-86954819D02*
X156523809Y-86954819D01*
X156523809Y-86954819D02*
X156619047Y-87002438D01*
X156619047Y-87002438D02*
X156666666Y-87050057D01*
X156666666Y-87050057D02*
X156714285Y-87145295D01*
X156714285Y-87145295D02*
X156761904Y-87335771D01*
X156761904Y-87335771D02*
X156761904Y-87573866D01*
X156761904Y-87573866D02*
X156714285Y-87764342D01*
X156714285Y-87764342D02*
X156666666Y-87859580D01*
X156666666Y-87859580D02*
X156619047Y-87907200D01*
X156619047Y-87907200D02*
X156523809Y-87954819D01*
X156523809Y-87954819D02*
X156428571Y-87954819D01*
X156428571Y-87954819D02*
X156333333Y-87907200D01*
X156333333Y-87907200D02*
X156285714Y-87859580D01*
X156285714Y-87859580D02*
X156238095Y-87764342D01*
X156238095Y-87764342D02*
X156190476Y-87573866D01*
X156190476Y-87573866D02*
X156190476Y-87335771D01*
X156190476Y-87335771D02*
X156238095Y-87145295D01*
X156238095Y-87145295D02*
X156285714Y-87050057D01*
X156285714Y-87050057D02*
X156333333Y-87002438D01*
X156333333Y-87002438D02*
X156428571Y-86954819D01*
X142607142Y-104859580D02*
X142559523Y-104907200D01*
X142559523Y-104907200D02*
X142416666Y-104954819D01*
X142416666Y-104954819D02*
X142321428Y-104954819D01*
X142321428Y-104954819D02*
X142178571Y-104907200D01*
X142178571Y-104907200D02*
X142083333Y-104811961D01*
X142083333Y-104811961D02*
X142035714Y-104716723D01*
X142035714Y-104716723D02*
X141988095Y-104526247D01*
X141988095Y-104526247D02*
X141988095Y-104383390D01*
X141988095Y-104383390D02*
X142035714Y-104192914D01*
X142035714Y-104192914D02*
X142083333Y-104097676D01*
X142083333Y-104097676D02*
X142178571Y-104002438D01*
X142178571Y-104002438D02*
X142321428Y-103954819D01*
X142321428Y-103954819D02*
X142416666Y-103954819D01*
X142416666Y-103954819D02*
X142559523Y-104002438D01*
X142559523Y-104002438D02*
X142607142Y-104050057D01*
X143559523Y-104954819D02*
X142988095Y-104954819D01*
X143273809Y-104954819D02*
X143273809Y-103954819D01*
X143273809Y-103954819D02*
X143178571Y-104097676D01*
X143178571Y-104097676D02*
X143083333Y-104192914D01*
X143083333Y-104192914D02*
X142988095Y-104240533D01*
X144416666Y-104288152D02*
X144416666Y-104954819D01*
X144178571Y-103907200D02*
X143940476Y-104621485D01*
X143940476Y-104621485D02*
X144559523Y-104621485D01*
X140107142Y-92454819D02*
X139773809Y-91978628D01*
X139535714Y-92454819D02*
X139535714Y-91454819D01*
X139535714Y-91454819D02*
X139916666Y-91454819D01*
X139916666Y-91454819D02*
X140011904Y-91502438D01*
X140011904Y-91502438D02*
X140059523Y-91550057D01*
X140059523Y-91550057D02*
X140107142Y-91645295D01*
X140107142Y-91645295D02*
X140107142Y-91788152D01*
X140107142Y-91788152D02*
X140059523Y-91883390D01*
X140059523Y-91883390D02*
X140011904Y-91931009D01*
X140011904Y-91931009D02*
X139916666Y-91978628D01*
X139916666Y-91978628D02*
X139535714Y-91978628D01*
X141059523Y-92454819D02*
X140488095Y-92454819D01*
X140773809Y-92454819D02*
X140773809Y-91454819D01*
X140773809Y-91454819D02*
X140678571Y-91597676D01*
X140678571Y-91597676D02*
X140583333Y-91692914D01*
X140583333Y-91692914D02*
X140488095Y-91740533D01*
X142011904Y-92454819D02*
X141440476Y-92454819D01*
X141726190Y-92454819D02*
X141726190Y-91454819D01*
X141726190Y-91454819D02*
X141630952Y-91597676D01*
X141630952Y-91597676D02*
X141535714Y-91692914D01*
X141535714Y-91692914D02*
X141440476Y-91740533D01*
X186833333Y-95454819D02*
X186500000Y-94978628D01*
X186261905Y-95454819D02*
X186261905Y-94454819D01*
X186261905Y-94454819D02*
X186642857Y-94454819D01*
X186642857Y-94454819D02*
X186738095Y-94502438D01*
X186738095Y-94502438D02*
X186785714Y-94550057D01*
X186785714Y-94550057D02*
X186833333Y-94645295D01*
X186833333Y-94645295D02*
X186833333Y-94788152D01*
X186833333Y-94788152D02*
X186785714Y-94883390D01*
X186785714Y-94883390D02*
X186738095Y-94931009D01*
X186738095Y-94931009D02*
X186642857Y-94978628D01*
X186642857Y-94978628D02*
X186261905Y-94978628D01*
X187690476Y-94454819D02*
X187500000Y-94454819D01*
X187500000Y-94454819D02*
X187404762Y-94502438D01*
X187404762Y-94502438D02*
X187357143Y-94550057D01*
X187357143Y-94550057D02*
X187261905Y-94692914D01*
X187261905Y-94692914D02*
X187214286Y-94883390D01*
X187214286Y-94883390D02*
X187214286Y-95264342D01*
X187214286Y-95264342D02*
X187261905Y-95359580D01*
X187261905Y-95359580D02*
X187309524Y-95407200D01*
X187309524Y-95407200D02*
X187404762Y-95454819D01*
X187404762Y-95454819D02*
X187595238Y-95454819D01*
X187595238Y-95454819D02*
X187690476Y-95407200D01*
X187690476Y-95407200D02*
X187738095Y-95359580D01*
X187738095Y-95359580D02*
X187785714Y-95264342D01*
X187785714Y-95264342D02*
X187785714Y-95026247D01*
X187785714Y-95026247D02*
X187738095Y-94931009D01*
X187738095Y-94931009D02*
X187690476Y-94883390D01*
X187690476Y-94883390D02*
X187595238Y-94835771D01*
X187595238Y-94835771D02*
X187404762Y-94835771D01*
X187404762Y-94835771D02*
X187309524Y-94883390D01*
X187309524Y-94883390D02*
X187261905Y-94931009D01*
X187261905Y-94931009D02*
X187214286Y-95026247D01*
X150511905Y-105454819D02*
X150511905Y-104454819D01*
X150511905Y-104454819D02*
X150750000Y-104454819D01*
X150750000Y-104454819D02*
X150892857Y-104502438D01*
X150892857Y-104502438D02*
X150988095Y-104597676D01*
X150988095Y-104597676D02*
X151035714Y-104692914D01*
X151035714Y-104692914D02*
X151083333Y-104883390D01*
X151083333Y-104883390D02*
X151083333Y-105026247D01*
X151083333Y-105026247D02*
X151035714Y-105216723D01*
X151035714Y-105216723D02*
X150988095Y-105311961D01*
X150988095Y-105311961D02*
X150892857Y-105407200D01*
X150892857Y-105407200D02*
X150750000Y-105454819D01*
X150750000Y-105454819D02*
X150511905Y-105454819D01*
X152035714Y-105454819D02*
X151464286Y-105454819D01*
X151750000Y-105454819D02*
X151750000Y-104454819D01*
X151750000Y-104454819D02*
X151654762Y-104597676D01*
X151654762Y-104597676D02*
X151559524Y-104692914D01*
X151559524Y-104692914D02*
X151464286Y-104740533D01*
X176666666Y-106954819D02*
X176666666Y-107669104D01*
X176666666Y-107669104D02*
X176619047Y-107811961D01*
X176619047Y-107811961D02*
X176523809Y-107907200D01*
X176523809Y-107907200D02*
X176380952Y-107954819D01*
X176380952Y-107954819D02*
X176285714Y-107954819D01*
X177619047Y-106954819D02*
X177142857Y-106954819D01*
X177142857Y-106954819D02*
X177095238Y-107431009D01*
X177095238Y-107431009D02*
X177142857Y-107383390D01*
X177142857Y-107383390D02*
X177238095Y-107335771D01*
X177238095Y-107335771D02*
X177476190Y-107335771D01*
X177476190Y-107335771D02*
X177571428Y-107383390D01*
X177571428Y-107383390D02*
X177619047Y-107431009D01*
X177619047Y-107431009D02*
X177666666Y-107526247D01*
X177666666Y-107526247D02*
X177666666Y-107764342D01*
X177666666Y-107764342D02*
X177619047Y-107859580D01*
X177619047Y-107859580D02*
X177571428Y-107907200D01*
X177571428Y-107907200D02*
X177476190Y-107954819D01*
X177476190Y-107954819D02*
X177238095Y-107954819D01*
X177238095Y-107954819D02*
X177142857Y-107907200D01*
X177142857Y-107907200D02*
X177095238Y-107859580D01*
X159666666Y-102354819D02*
X159666666Y-103069104D01*
X159666666Y-103069104D02*
X159619047Y-103211961D01*
X159619047Y-103211961D02*
X159523809Y-103307200D01*
X159523809Y-103307200D02*
X159380952Y-103354819D01*
X159380952Y-103354819D02*
X159285714Y-103354819D01*
X160095238Y-102450057D02*
X160142857Y-102402438D01*
X160142857Y-102402438D02*
X160238095Y-102354819D01*
X160238095Y-102354819D02*
X160476190Y-102354819D01*
X160476190Y-102354819D02*
X160571428Y-102402438D01*
X160571428Y-102402438D02*
X160619047Y-102450057D01*
X160619047Y-102450057D02*
X160666666Y-102545295D01*
X160666666Y-102545295D02*
X160666666Y-102640533D01*
X160666666Y-102640533D02*
X160619047Y-102783390D01*
X160619047Y-102783390D02*
X160047619Y-103354819D01*
X160047619Y-103354819D02*
X160666666Y-103354819D01*
X150083333Y-102704819D02*
X149750000Y-102228628D01*
X149511905Y-102704819D02*
X149511905Y-101704819D01*
X149511905Y-101704819D02*
X149892857Y-101704819D01*
X149892857Y-101704819D02*
X149988095Y-101752438D01*
X149988095Y-101752438D02*
X150035714Y-101800057D01*
X150035714Y-101800057D02*
X150083333Y-101895295D01*
X150083333Y-101895295D02*
X150083333Y-102038152D01*
X150083333Y-102038152D02*
X150035714Y-102133390D01*
X150035714Y-102133390D02*
X149988095Y-102181009D01*
X149988095Y-102181009D02*
X149892857Y-102228628D01*
X149892857Y-102228628D02*
X149511905Y-102228628D01*
X151035714Y-102704819D02*
X150464286Y-102704819D01*
X150750000Y-102704819D02*
X150750000Y-101704819D01*
X150750000Y-101704819D02*
X150654762Y-101847676D01*
X150654762Y-101847676D02*
X150559524Y-101942914D01*
X150559524Y-101942914D02*
X150464286Y-101990533D01*
X168333333Y-92204819D02*
X168000000Y-91728628D01*
X167761905Y-92204819D02*
X167761905Y-91204819D01*
X167761905Y-91204819D02*
X168142857Y-91204819D01*
X168142857Y-91204819D02*
X168238095Y-91252438D01*
X168238095Y-91252438D02*
X168285714Y-91300057D01*
X168285714Y-91300057D02*
X168333333Y-91395295D01*
X168333333Y-91395295D02*
X168333333Y-91538152D01*
X168333333Y-91538152D02*
X168285714Y-91633390D01*
X168285714Y-91633390D02*
X168238095Y-91681009D01*
X168238095Y-91681009D02*
X168142857Y-91728628D01*
X168142857Y-91728628D02*
X167761905Y-91728628D01*
X168666667Y-91204819D02*
X169333333Y-91204819D01*
X169333333Y-91204819D02*
X168904762Y-92204819D01*
X168859580Y-95392857D02*
X168907200Y-95440476D01*
X168907200Y-95440476D02*
X168954819Y-95583333D01*
X168954819Y-95583333D02*
X168954819Y-95678571D01*
X168954819Y-95678571D02*
X168907200Y-95821428D01*
X168907200Y-95821428D02*
X168811961Y-95916666D01*
X168811961Y-95916666D02*
X168716723Y-95964285D01*
X168716723Y-95964285D02*
X168526247Y-96011904D01*
X168526247Y-96011904D02*
X168383390Y-96011904D01*
X168383390Y-96011904D02*
X168192914Y-95964285D01*
X168192914Y-95964285D02*
X168097676Y-95916666D01*
X168097676Y-95916666D02*
X168002438Y-95821428D01*
X168002438Y-95821428D02*
X167954819Y-95678571D01*
X167954819Y-95678571D02*
X167954819Y-95583333D01*
X167954819Y-95583333D02*
X168002438Y-95440476D01*
X168002438Y-95440476D02*
X168050057Y-95392857D01*
X168954819Y-94440476D02*
X168954819Y-95011904D01*
X168954819Y-94726190D02*
X167954819Y-94726190D01*
X167954819Y-94726190D02*
X168097676Y-94821428D01*
X168097676Y-94821428D02*
X168192914Y-94916666D01*
X168192914Y-94916666D02*
X168240533Y-95011904D01*
X167954819Y-94107142D02*
X167954819Y-93488095D01*
X167954819Y-93488095D02*
X168335771Y-93821428D01*
X168335771Y-93821428D02*
X168335771Y-93678571D01*
X168335771Y-93678571D02*
X168383390Y-93583333D01*
X168383390Y-93583333D02*
X168431009Y-93535714D01*
X168431009Y-93535714D02*
X168526247Y-93488095D01*
X168526247Y-93488095D02*
X168764342Y-93488095D01*
X168764342Y-93488095D02*
X168859580Y-93535714D01*
X168859580Y-93535714D02*
X168907200Y-93583333D01*
X168907200Y-93583333D02*
X168954819Y-93678571D01*
X168954819Y-93678571D02*
X168954819Y-93964285D01*
X168954819Y-93964285D02*
X168907200Y-94059523D01*
X168907200Y-94059523D02*
X168859580Y-94107142D01*
X176613095Y-100129819D02*
X176613095Y-100939342D01*
X176613095Y-100939342D02*
X176660714Y-101034580D01*
X176660714Y-101034580D02*
X176708333Y-101082200D01*
X176708333Y-101082200D02*
X176803571Y-101129819D01*
X176803571Y-101129819D02*
X176994047Y-101129819D01*
X176994047Y-101129819D02*
X177089285Y-101082200D01*
X177089285Y-101082200D02*
X177136904Y-101034580D01*
X177136904Y-101034580D02*
X177184523Y-100939342D01*
X177184523Y-100939342D02*
X177184523Y-100129819D01*
X177613095Y-100225057D02*
X177660714Y-100177438D01*
X177660714Y-100177438D02*
X177755952Y-100129819D01*
X177755952Y-100129819D02*
X177994047Y-100129819D01*
X177994047Y-100129819D02*
X178089285Y-100177438D01*
X178089285Y-100177438D02*
X178136904Y-100225057D01*
X178136904Y-100225057D02*
X178184523Y-100320295D01*
X178184523Y-100320295D02*
X178184523Y-100415533D01*
X178184523Y-100415533D02*
X178136904Y-100558390D01*
X178136904Y-100558390D02*
X177565476Y-101129819D01*
X177565476Y-101129819D02*
X178184523Y-101129819D01*
X186333333Y-90624819D02*
X186000000Y-90148628D01*
X185761905Y-90624819D02*
X185761905Y-89624819D01*
X185761905Y-89624819D02*
X186142857Y-89624819D01*
X186142857Y-89624819D02*
X186238095Y-89672438D01*
X186238095Y-89672438D02*
X186285714Y-89720057D01*
X186285714Y-89720057D02*
X186333333Y-89815295D01*
X186333333Y-89815295D02*
X186333333Y-89958152D01*
X186333333Y-89958152D02*
X186285714Y-90053390D01*
X186285714Y-90053390D02*
X186238095Y-90101009D01*
X186238095Y-90101009D02*
X186142857Y-90148628D01*
X186142857Y-90148628D02*
X185761905Y-90148628D01*
X186904762Y-90053390D02*
X186809524Y-90005771D01*
X186809524Y-90005771D02*
X186761905Y-89958152D01*
X186761905Y-89958152D02*
X186714286Y-89862914D01*
X186714286Y-89862914D02*
X186714286Y-89815295D01*
X186714286Y-89815295D02*
X186761905Y-89720057D01*
X186761905Y-89720057D02*
X186809524Y-89672438D01*
X186809524Y-89672438D02*
X186904762Y-89624819D01*
X186904762Y-89624819D02*
X187095238Y-89624819D01*
X187095238Y-89624819D02*
X187190476Y-89672438D01*
X187190476Y-89672438D02*
X187238095Y-89720057D01*
X187238095Y-89720057D02*
X187285714Y-89815295D01*
X187285714Y-89815295D02*
X187285714Y-89862914D01*
X187285714Y-89862914D02*
X187238095Y-89958152D01*
X187238095Y-89958152D02*
X187190476Y-90005771D01*
X187190476Y-90005771D02*
X187095238Y-90053390D01*
X187095238Y-90053390D02*
X186904762Y-90053390D01*
X186904762Y-90053390D02*
X186809524Y-90101009D01*
X186809524Y-90101009D02*
X186761905Y-90148628D01*
X186761905Y-90148628D02*
X186714286Y-90243866D01*
X186714286Y-90243866D02*
X186714286Y-90434342D01*
X186714286Y-90434342D02*
X186761905Y-90529580D01*
X186761905Y-90529580D02*
X186809524Y-90577200D01*
X186809524Y-90577200D02*
X186904762Y-90624819D01*
X186904762Y-90624819D02*
X187095238Y-90624819D01*
X187095238Y-90624819D02*
X187190476Y-90577200D01*
X187190476Y-90577200D02*
X187238095Y-90529580D01*
X187238095Y-90529580D02*
X187285714Y-90434342D01*
X187285714Y-90434342D02*
X187285714Y-90243866D01*
X187285714Y-90243866D02*
X187238095Y-90148628D01*
X187238095Y-90148628D02*
X187190476Y-90101009D01*
X187190476Y-90101009D02*
X187095238Y-90053390D01*
X167607142Y-90454819D02*
X167273809Y-89978628D01*
X167035714Y-90454819D02*
X167035714Y-89454819D01*
X167035714Y-89454819D02*
X167416666Y-89454819D01*
X167416666Y-89454819D02*
X167511904Y-89502438D01*
X167511904Y-89502438D02*
X167559523Y-89550057D01*
X167559523Y-89550057D02*
X167607142Y-89645295D01*
X167607142Y-89645295D02*
X167607142Y-89788152D01*
X167607142Y-89788152D02*
X167559523Y-89883390D01*
X167559523Y-89883390D02*
X167511904Y-89931009D01*
X167511904Y-89931009D02*
X167416666Y-89978628D01*
X167416666Y-89978628D02*
X167035714Y-89978628D01*
X168559523Y-90454819D02*
X167988095Y-90454819D01*
X168273809Y-90454819D02*
X168273809Y-89454819D01*
X168273809Y-89454819D02*
X168178571Y-89597676D01*
X168178571Y-89597676D02*
X168083333Y-89692914D01*
X168083333Y-89692914D02*
X167988095Y-89740533D01*
X169130952Y-89883390D02*
X169035714Y-89835771D01*
X169035714Y-89835771D02*
X168988095Y-89788152D01*
X168988095Y-89788152D02*
X168940476Y-89692914D01*
X168940476Y-89692914D02*
X168940476Y-89645295D01*
X168940476Y-89645295D02*
X168988095Y-89550057D01*
X168988095Y-89550057D02*
X169035714Y-89502438D01*
X169035714Y-89502438D02*
X169130952Y-89454819D01*
X169130952Y-89454819D02*
X169321428Y-89454819D01*
X169321428Y-89454819D02*
X169416666Y-89502438D01*
X169416666Y-89502438D02*
X169464285Y-89550057D01*
X169464285Y-89550057D02*
X169511904Y-89645295D01*
X169511904Y-89645295D02*
X169511904Y-89692914D01*
X169511904Y-89692914D02*
X169464285Y-89788152D01*
X169464285Y-89788152D02*
X169416666Y-89835771D01*
X169416666Y-89835771D02*
X169321428Y-89883390D01*
X169321428Y-89883390D02*
X169130952Y-89883390D01*
X169130952Y-89883390D02*
X169035714Y-89931009D01*
X169035714Y-89931009D02*
X168988095Y-89978628D01*
X168988095Y-89978628D02*
X168940476Y-90073866D01*
X168940476Y-90073866D02*
X168940476Y-90264342D01*
X168940476Y-90264342D02*
X168988095Y-90359580D01*
X168988095Y-90359580D02*
X169035714Y-90407200D01*
X169035714Y-90407200D02*
X169130952Y-90454819D01*
X169130952Y-90454819D02*
X169321428Y-90454819D01*
X169321428Y-90454819D02*
X169416666Y-90407200D01*
X169416666Y-90407200D02*
X169464285Y-90359580D01*
X169464285Y-90359580D02*
X169511904Y-90264342D01*
X169511904Y-90264342D02*
X169511904Y-90073866D01*
X169511904Y-90073866D02*
X169464285Y-89978628D01*
X169464285Y-89978628D02*
X169416666Y-89931009D01*
X169416666Y-89931009D02*
X169321428Y-89883390D01*
X175583333Y-88359580D02*
X175535714Y-88407200D01*
X175535714Y-88407200D02*
X175392857Y-88454819D01*
X175392857Y-88454819D02*
X175297619Y-88454819D01*
X175297619Y-88454819D02*
X175154762Y-88407200D01*
X175154762Y-88407200D02*
X175059524Y-88311961D01*
X175059524Y-88311961D02*
X175011905Y-88216723D01*
X175011905Y-88216723D02*
X174964286Y-88026247D01*
X174964286Y-88026247D02*
X174964286Y-87883390D01*
X174964286Y-87883390D02*
X175011905Y-87692914D01*
X175011905Y-87692914D02*
X175059524Y-87597676D01*
X175059524Y-87597676D02*
X175154762Y-87502438D01*
X175154762Y-87502438D02*
X175297619Y-87454819D01*
X175297619Y-87454819D02*
X175392857Y-87454819D01*
X175392857Y-87454819D02*
X175535714Y-87502438D01*
X175535714Y-87502438D02*
X175583333Y-87550057D01*
X176440476Y-87788152D02*
X176440476Y-88454819D01*
X176202381Y-87407200D02*
X175964286Y-88121485D01*
X175964286Y-88121485D02*
X176583333Y-88121485D01*
X133738095Y-87254819D02*
X133738095Y-86254819D01*
X133738095Y-86731009D02*
X134309523Y-86731009D01*
X134309523Y-87254819D02*
X134309523Y-86254819D01*
X135309523Y-87254819D02*
X134738095Y-87254819D01*
X135023809Y-87254819D02*
X135023809Y-86254819D01*
X135023809Y-86254819D02*
X134928571Y-86397676D01*
X134928571Y-86397676D02*
X134833333Y-86492914D01*
X134833333Y-86492914D02*
X134738095Y-86540533D01*
X146011905Y-105454819D02*
X146011905Y-104454819D01*
X146011905Y-104454819D02*
X146250000Y-104454819D01*
X146250000Y-104454819D02*
X146392857Y-104502438D01*
X146392857Y-104502438D02*
X146488095Y-104597676D01*
X146488095Y-104597676D02*
X146535714Y-104692914D01*
X146535714Y-104692914D02*
X146583333Y-104883390D01*
X146583333Y-104883390D02*
X146583333Y-105026247D01*
X146583333Y-105026247D02*
X146535714Y-105216723D01*
X146535714Y-105216723D02*
X146488095Y-105311961D01*
X146488095Y-105311961D02*
X146392857Y-105407200D01*
X146392857Y-105407200D02*
X146250000Y-105454819D01*
X146250000Y-105454819D02*
X146011905Y-105454819D01*
X147440476Y-104454819D02*
X147250000Y-104454819D01*
X147250000Y-104454819D02*
X147154762Y-104502438D01*
X147154762Y-104502438D02*
X147107143Y-104550057D01*
X147107143Y-104550057D02*
X147011905Y-104692914D01*
X147011905Y-104692914D02*
X146964286Y-104883390D01*
X146964286Y-104883390D02*
X146964286Y-105264342D01*
X146964286Y-105264342D02*
X147011905Y-105359580D01*
X147011905Y-105359580D02*
X147059524Y-105407200D01*
X147059524Y-105407200D02*
X147154762Y-105454819D01*
X147154762Y-105454819D02*
X147345238Y-105454819D01*
X147345238Y-105454819D02*
X147440476Y-105407200D01*
X147440476Y-105407200D02*
X147488095Y-105359580D01*
X147488095Y-105359580D02*
X147535714Y-105264342D01*
X147535714Y-105264342D02*
X147535714Y-105026247D01*
X147535714Y-105026247D02*
X147488095Y-104931009D01*
X147488095Y-104931009D02*
X147440476Y-104883390D01*
X147440476Y-104883390D02*
X147345238Y-104835771D01*
X147345238Y-104835771D02*
X147154762Y-104835771D01*
X147154762Y-104835771D02*
X147059524Y-104883390D01*
X147059524Y-104883390D02*
X147011905Y-104931009D01*
X147011905Y-104931009D02*
X146964286Y-105026247D01*
X165107142Y-101729580D02*
X165059523Y-101777200D01*
X165059523Y-101777200D02*
X164916666Y-101824819D01*
X164916666Y-101824819D02*
X164821428Y-101824819D01*
X164821428Y-101824819D02*
X164678571Y-101777200D01*
X164678571Y-101777200D02*
X164583333Y-101681961D01*
X164583333Y-101681961D02*
X164535714Y-101586723D01*
X164535714Y-101586723D02*
X164488095Y-101396247D01*
X164488095Y-101396247D02*
X164488095Y-101253390D01*
X164488095Y-101253390D02*
X164535714Y-101062914D01*
X164535714Y-101062914D02*
X164583333Y-100967676D01*
X164583333Y-100967676D02*
X164678571Y-100872438D01*
X164678571Y-100872438D02*
X164821428Y-100824819D01*
X164821428Y-100824819D02*
X164916666Y-100824819D01*
X164916666Y-100824819D02*
X165059523Y-100872438D01*
X165059523Y-100872438D02*
X165107142Y-100920057D01*
X166059523Y-101824819D02*
X165488095Y-101824819D01*
X165773809Y-101824819D02*
X165773809Y-100824819D01*
X165773809Y-100824819D02*
X165678571Y-100967676D01*
X165678571Y-100967676D02*
X165583333Y-101062914D01*
X165583333Y-101062914D02*
X165488095Y-101110533D01*
X166392857Y-100824819D02*
X167059523Y-100824819D01*
X167059523Y-100824819D02*
X166630952Y-101824819D01*
X191738095Y-87254819D02*
X191738095Y-86254819D01*
X191738095Y-86731009D02*
X192309523Y-86731009D01*
X192309523Y-87254819D02*
X192309523Y-86254819D01*
X192738095Y-86350057D02*
X192785714Y-86302438D01*
X192785714Y-86302438D02*
X192880952Y-86254819D01*
X192880952Y-86254819D02*
X193119047Y-86254819D01*
X193119047Y-86254819D02*
X193214285Y-86302438D01*
X193214285Y-86302438D02*
X193261904Y-86350057D01*
X193261904Y-86350057D02*
X193309523Y-86445295D01*
X193309523Y-86445295D02*
X193309523Y-86540533D01*
X193309523Y-86540533D02*
X193261904Y-86683390D01*
X193261904Y-86683390D02*
X192690476Y-87254819D01*
X192690476Y-87254819D02*
X193309523Y-87254819D01*
X133738095Y-102604819D02*
X133738095Y-101604819D01*
X133738095Y-102081009D02*
X134309523Y-102081009D01*
X134309523Y-102604819D02*
X134309523Y-101604819D01*
X134690476Y-101604819D02*
X135309523Y-101604819D01*
X135309523Y-101604819D02*
X134976190Y-101985771D01*
X134976190Y-101985771D02*
X135119047Y-101985771D01*
X135119047Y-101985771D02*
X135214285Y-102033390D01*
X135214285Y-102033390D02*
X135261904Y-102081009D01*
X135261904Y-102081009D02*
X135309523Y-102176247D01*
X135309523Y-102176247D02*
X135309523Y-102414342D01*
X135309523Y-102414342D02*
X135261904Y-102509580D01*
X135261904Y-102509580D02*
X135214285Y-102557200D01*
X135214285Y-102557200D02*
X135119047Y-102604819D01*
X135119047Y-102604819D02*
X134833333Y-102604819D01*
X134833333Y-102604819D02*
X134738095Y-102557200D01*
X134738095Y-102557200D02*
X134690476Y-102509580D01*
X146583333Y-100454819D02*
X146250000Y-99978628D01*
X146011905Y-100454819D02*
X146011905Y-99454819D01*
X146011905Y-99454819D02*
X146392857Y-99454819D01*
X146392857Y-99454819D02*
X146488095Y-99502438D01*
X146488095Y-99502438D02*
X146535714Y-99550057D01*
X146535714Y-99550057D02*
X146583333Y-99645295D01*
X146583333Y-99645295D02*
X146583333Y-99788152D01*
X146583333Y-99788152D02*
X146535714Y-99883390D01*
X146535714Y-99883390D02*
X146488095Y-99931009D01*
X146488095Y-99931009D02*
X146392857Y-99978628D01*
X146392857Y-99978628D02*
X146011905Y-99978628D01*
X146964286Y-99550057D02*
X147011905Y-99502438D01*
X147011905Y-99502438D02*
X147107143Y-99454819D01*
X147107143Y-99454819D02*
X147345238Y-99454819D01*
X147345238Y-99454819D02*
X147440476Y-99502438D01*
X147440476Y-99502438D02*
X147488095Y-99550057D01*
X147488095Y-99550057D02*
X147535714Y-99645295D01*
X147535714Y-99645295D02*
X147535714Y-99740533D01*
X147535714Y-99740533D02*
X147488095Y-99883390D01*
X147488095Y-99883390D02*
X146916667Y-100454819D01*
X146916667Y-100454819D02*
X147535714Y-100454819D01*
X163857142Y-87954819D02*
X163523809Y-87478628D01*
X163285714Y-87954819D02*
X163285714Y-86954819D01*
X163285714Y-86954819D02*
X163666666Y-86954819D01*
X163666666Y-86954819D02*
X163761904Y-87002438D01*
X163761904Y-87002438D02*
X163809523Y-87050057D01*
X163809523Y-87050057D02*
X163857142Y-87145295D01*
X163857142Y-87145295D02*
X163857142Y-87288152D01*
X163857142Y-87288152D02*
X163809523Y-87383390D01*
X163809523Y-87383390D02*
X163761904Y-87431009D01*
X163761904Y-87431009D02*
X163666666Y-87478628D01*
X163666666Y-87478628D02*
X163285714Y-87478628D01*
X164238095Y-87050057D02*
X164285714Y-87002438D01*
X164285714Y-87002438D02*
X164380952Y-86954819D01*
X164380952Y-86954819D02*
X164619047Y-86954819D01*
X164619047Y-86954819D02*
X164714285Y-87002438D01*
X164714285Y-87002438D02*
X164761904Y-87050057D01*
X164761904Y-87050057D02*
X164809523Y-87145295D01*
X164809523Y-87145295D02*
X164809523Y-87240533D01*
X164809523Y-87240533D02*
X164761904Y-87383390D01*
X164761904Y-87383390D02*
X164190476Y-87954819D01*
X164190476Y-87954819D02*
X164809523Y-87954819D01*
X165428571Y-86954819D02*
X165523809Y-86954819D01*
X165523809Y-86954819D02*
X165619047Y-87002438D01*
X165619047Y-87002438D02*
X165666666Y-87050057D01*
X165666666Y-87050057D02*
X165714285Y-87145295D01*
X165714285Y-87145295D02*
X165761904Y-87335771D01*
X165761904Y-87335771D02*
X165761904Y-87573866D01*
X165761904Y-87573866D02*
X165714285Y-87764342D01*
X165714285Y-87764342D02*
X165666666Y-87859580D01*
X165666666Y-87859580D02*
X165619047Y-87907200D01*
X165619047Y-87907200D02*
X165523809Y-87954819D01*
X165523809Y-87954819D02*
X165428571Y-87954819D01*
X165428571Y-87954819D02*
X165333333Y-87907200D01*
X165333333Y-87907200D02*
X165285714Y-87859580D01*
X165285714Y-87859580D02*
X165238095Y-87764342D01*
X165238095Y-87764342D02*
X165190476Y-87573866D01*
X165190476Y-87573866D02*
X165190476Y-87335771D01*
X165190476Y-87335771D02*
X165238095Y-87145295D01*
X165238095Y-87145295D02*
X165285714Y-87050057D01*
X165285714Y-87050057D02*
X165333333Y-87002438D01*
X165333333Y-87002438D02*
X165428571Y-86954819D01*
X153833333Y-102109580D02*
X153785714Y-102157200D01*
X153785714Y-102157200D02*
X153642857Y-102204819D01*
X153642857Y-102204819D02*
X153547619Y-102204819D01*
X153547619Y-102204819D02*
X153404762Y-102157200D01*
X153404762Y-102157200D02*
X153309524Y-102061961D01*
X153309524Y-102061961D02*
X153261905Y-101966723D01*
X153261905Y-101966723D02*
X153214286Y-101776247D01*
X153214286Y-101776247D02*
X153214286Y-101633390D01*
X153214286Y-101633390D02*
X153261905Y-101442914D01*
X153261905Y-101442914D02*
X153309524Y-101347676D01*
X153309524Y-101347676D02*
X153404762Y-101252438D01*
X153404762Y-101252438D02*
X153547619Y-101204819D01*
X153547619Y-101204819D02*
X153642857Y-101204819D01*
X153642857Y-101204819D02*
X153785714Y-101252438D01*
X153785714Y-101252438D02*
X153833333Y-101300057D01*
X154166667Y-101204819D02*
X154833333Y-101204819D01*
X154833333Y-101204819D02*
X154404762Y-102204819D01*
X188404819Y-95083333D02*
X189119104Y-95083333D01*
X189119104Y-95083333D02*
X189261961Y-95130952D01*
X189261961Y-95130952D02*
X189357200Y-95226190D01*
X189357200Y-95226190D02*
X189404819Y-95369047D01*
X189404819Y-95369047D02*
X189404819Y-95464285D01*
X188404819Y-94702380D02*
X188404819Y-94083333D01*
X188404819Y-94083333D02*
X188785771Y-94416666D01*
X188785771Y-94416666D02*
X188785771Y-94273809D01*
X188785771Y-94273809D02*
X188833390Y-94178571D01*
X188833390Y-94178571D02*
X188881009Y-94130952D01*
X188881009Y-94130952D02*
X188976247Y-94083333D01*
X188976247Y-94083333D02*
X189214342Y-94083333D01*
X189214342Y-94083333D02*
X189309580Y-94130952D01*
X189309580Y-94130952D02*
X189357200Y-94178571D01*
X189357200Y-94178571D02*
X189404819Y-94273809D01*
X189404819Y-94273809D02*
X189404819Y-94559523D01*
X189404819Y-94559523D02*
X189357200Y-94654761D01*
X189357200Y-94654761D02*
X189309580Y-94702380D01*
X180679580Y-88416666D02*
X180727200Y-88464285D01*
X180727200Y-88464285D02*
X180774819Y-88607142D01*
X180774819Y-88607142D02*
X180774819Y-88702380D01*
X180774819Y-88702380D02*
X180727200Y-88845237D01*
X180727200Y-88845237D02*
X180631961Y-88940475D01*
X180631961Y-88940475D02*
X180536723Y-88988094D01*
X180536723Y-88988094D02*
X180346247Y-89035713D01*
X180346247Y-89035713D02*
X180203390Y-89035713D01*
X180203390Y-89035713D02*
X180012914Y-88988094D01*
X180012914Y-88988094D02*
X179917676Y-88940475D01*
X179917676Y-88940475D02*
X179822438Y-88845237D01*
X179822438Y-88845237D02*
X179774819Y-88702380D01*
X179774819Y-88702380D02*
X179774819Y-88607142D01*
X179774819Y-88607142D02*
X179822438Y-88464285D01*
X179822438Y-88464285D02*
X179870057Y-88416666D01*
X180774819Y-87464285D02*
X180774819Y-88035713D01*
X180774819Y-87749999D02*
X179774819Y-87749999D01*
X179774819Y-87749999D02*
X179917676Y-87845237D01*
X179917676Y-87845237D02*
X180012914Y-87940475D01*
X180012914Y-87940475D02*
X180060533Y-88035713D01*
X172083333Y-93704819D02*
X171750000Y-93228628D01*
X171511905Y-93704819D02*
X171511905Y-92704819D01*
X171511905Y-92704819D02*
X171892857Y-92704819D01*
X171892857Y-92704819D02*
X171988095Y-92752438D01*
X171988095Y-92752438D02*
X172035714Y-92800057D01*
X172035714Y-92800057D02*
X172083333Y-92895295D01*
X172083333Y-92895295D02*
X172083333Y-93038152D01*
X172083333Y-93038152D02*
X172035714Y-93133390D01*
X172035714Y-93133390D02*
X171988095Y-93181009D01*
X171988095Y-93181009D02*
X171892857Y-93228628D01*
X171892857Y-93228628D02*
X171511905Y-93228628D01*
X172988095Y-92704819D02*
X172511905Y-92704819D01*
X172511905Y-92704819D02*
X172464286Y-93181009D01*
X172464286Y-93181009D02*
X172511905Y-93133390D01*
X172511905Y-93133390D02*
X172607143Y-93085771D01*
X172607143Y-93085771D02*
X172845238Y-93085771D01*
X172845238Y-93085771D02*
X172940476Y-93133390D01*
X172940476Y-93133390D02*
X172988095Y-93181009D01*
X172988095Y-93181009D02*
X173035714Y-93276247D01*
X173035714Y-93276247D02*
X173035714Y-93514342D01*
X173035714Y-93514342D02*
X172988095Y-93609580D01*
X172988095Y-93609580D02*
X172940476Y-93657200D01*
X172940476Y-93657200D02*
X172845238Y-93704819D01*
X172845238Y-93704819D02*
X172607143Y-93704819D01*
X172607143Y-93704819D02*
X172511905Y-93657200D01*
X172511905Y-93657200D02*
X172464286Y-93609580D01*
X176607142Y-102359580D02*
X176559523Y-102407200D01*
X176559523Y-102407200D02*
X176416666Y-102454819D01*
X176416666Y-102454819D02*
X176321428Y-102454819D01*
X176321428Y-102454819D02*
X176178571Y-102407200D01*
X176178571Y-102407200D02*
X176083333Y-102311961D01*
X176083333Y-102311961D02*
X176035714Y-102216723D01*
X176035714Y-102216723D02*
X175988095Y-102026247D01*
X175988095Y-102026247D02*
X175988095Y-101883390D01*
X175988095Y-101883390D02*
X176035714Y-101692914D01*
X176035714Y-101692914D02*
X176083333Y-101597676D01*
X176083333Y-101597676D02*
X176178571Y-101502438D01*
X176178571Y-101502438D02*
X176321428Y-101454819D01*
X176321428Y-101454819D02*
X176416666Y-101454819D01*
X176416666Y-101454819D02*
X176559523Y-101502438D01*
X176559523Y-101502438D02*
X176607142Y-101550057D01*
X176988095Y-101550057D02*
X177035714Y-101502438D01*
X177035714Y-101502438D02*
X177130952Y-101454819D01*
X177130952Y-101454819D02*
X177369047Y-101454819D01*
X177369047Y-101454819D02*
X177464285Y-101502438D01*
X177464285Y-101502438D02*
X177511904Y-101550057D01*
X177511904Y-101550057D02*
X177559523Y-101645295D01*
X177559523Y-101645295D02*
X177559523Y-101740533D01*
X177559523Y-101740533D02*
X177511904Y-101883390D01*
X177511904Y-101883390D02*
X176940476Y-102454819D01*
X176940476Y-102454819D02*
X177559523Y-102454819D01*
X178178571Y-101454819D02*
X178273809Y-101454819D01*
X178273809Y-101454819D02*
X178369047Y-101502438D01*
X178369047Y-101502438D02*
X178416666Y-101550057D01*
X178416666Y-101550057D02*
X178464285Y-101645295D01*
X178464285Y-101645295D02*
X178511904Y-101835771D01*
X178511904Y-101835771D02*
X178511904Y-102073866D01*
X178511904Y-102073866D02*
X178464285Y-102264342D01*
X178464285Y-102264342D02*
X178416666Y-102359580D01*
X178416666Y-102359580D02*
X178369047Y-102407200D01*
X178369047Y-102407200D02*
X178273809Y-102454819D01*
X178273809Y-102454819D02*
X178178571Y-102454819D01*
X178178571Y-102454819D02*
X178083333Y-102407200D01*
X178083333Y-102407200D02*
X178035714Y-102359580D01*
X178035714Y-102359580D02*
X177988095Y-102264342D01*
X177988095Y-102264342D02*
X177940476Y-102073866D01*
X177940476Y-102073866D02*
X177940476Y-101835771D01*
X177940476Y-101835771D02*
X177988095Y-101645295D01*
X177988095Y-101645295D02*
X178035714Y-101550057D01*
X178035714Y-101550057D02*
X178083333Y-101502438D01*
X178083333Y-101502438D02*
X178178571Y-101454819D01*
X163261905Y-92054819D02*
X163261905Y-92864342D01*
X163261905Y-92864342D02*
X163309524Y-92959580D01*
X163309524Y-92959580D02*
X163357143Y-93007200D01*
X163357143Y-93007200D02*
X163452381Y-93054819D01*
X163452381Y-93054819D02*
X163642857Y-93054819D01*
X163642857Y-93054819D02*
X163738095Y-93007200D01*
X163738095Y-93007200D02*
X163785714Y-92959580D01*
X163785714Y-92959580D02*
X163833333Y-92864342D01*
X163833333Y-92864342D02*
X163833333Y-92054819D01*
X164261905Y-93007200D02*
X164404762Y-93054819D01*
X164404762Y-93054819D02*
X164642857Y-93054819D01*
X164642857Y-93054819D02*
X164738095Y-93007200D01*
X164738095Y-93007200D02*
X164785714Y-92959580D01*
X164785714Y-92959580D02*
X164833333Y-92864342D01*
X164833333Y-92864342D02*
X164833333Y-92769104D01*
X164833333Y-92769104D02*
X164785714Y-92673866D01*
X164785714Y-92673866D02*
X164738095Y-92626247D01*
X164738095Y-92626247D02*
X164642857Y-92578628D01*
X164642857Y-92578628D02*
X164452381Y-92531009D01*
X164452381Y-92531009D02*
X164357143Y-92483390D01*
X164357143Y-92483390D02*
X164309524Y-92435771D01*
X164309524Y-92435771D02*
X164261905Y-92340533D01*
X164261905Y-92340533D02*
X164261905Y-92245295D01*
X164261905Y-92245295D02*
X164309524Y-92150057D01*
X164309524Y-92150057D02*
X164357143Y-92102438D01*
X164357143Y-92102438D02*
X164452381Y-92054819D01*
X164452381Y-92054819D02*
X164690476Y-92054819D01*
X164690476Y-92054819D02*
X164833333Y-92102438D01*
X164547619Y-91911961D02*
X164547619Y-93197676D01*
X165785714Y-93054819D02*
X165214286Y-93054819D01*
X165500000Y-93054819D02*
X165500000Y-92054819D01*
X165500000Y-92054819D02*
X165404762Y-92197676D01*
X165404762Y-92197676D02*
X165309524Y-92292914D01*
X165309524Y-92292914D02*
X165214286Y-92340533D01*
X184333333Y-101109580D02*
X184285714Y-101157200D01*
X184285714Y-101157200D02*
X184142857Y-101204819D01*
X184142857Y-101204819D02*
X184047619Y-101204819D01*
X184047619Y-101204819D02*
X183904762Y-101157200D01*
X183904762Y-101157200D02*
X183809524Y-101061961D01*
X183809524Y-101061961D02*
X183761905Y-100966723D01*
X183761905Y-100966723D02*
X183714286Y-100776247D01*
X183714286Y-100776247D02*
X183714286Y-100633390D01*
X183714286Y-100633390D02*
X183761905Y-100442914D01*
X183761905Y-100442914D02*
X183809524Y-100347676D01*
X183809524Y-100347676D02*
X183904762Y-100252438D01*
X183904762Y-100252438D02*
X184047619Y-100204819D01*
X184047619Y-100204819D02*
X184142857Y-100204819D01*
X184142857Y-100204819D02*
X184285714Y-100252438D01*
X184285714Y-100252438D02*
X184333333Y-100300057D01*
X184904762Y-100633390D02*
X184809524Y-100585771D01*
X184809524Y-100585771D02*
X184761905Y-100538152D01*
X184761905Y-100538152D02*
X184714286Y-100442914D01*
X184714286Y-100442914D02*
X184714286Y-100395295D01*
X184714286Y-100395295D02*
X184761905Y-100300057D01*
X184761905Y-100300057D02*
X184809524Y-100252438D01*
X184809524Y-100252438D02*
X184904762Y-100204819D01*
X184904762Y-100204819D02*
X185095238Y-100204819D01*
X185095238Y-100204819D02*
X185190476Y-100252438D01*
X185190476Y-100252438D02*
X185238095Y-100300057D01*
X185238095Y-100300057D02*
X185285714Y-100395295D01*
X185285714Y-100395295D02*
X185285714Y-100442914D01*
X185285714Y-100442914D02*
X185238095Y-100538152D01*
X185238095Y-100538152D02*
X185190476Y-100585771D01*
X185190476Y-100585771D02*
X185095238Y-100633390D01*
X185095238Y-100633390D02*
X184904762Y-100633390D01*
X184904762Y-100633390D02*
X184809524Y-100681009D01*
X184809524Y-100681009D02*
X184761905Y-100728628D01*
X184761905Y-100728628D02*
X184714286Y-100823866D01*
X184714286Y-100823866D02*
X184714286Y-101014342D01*
X184714286Y-101014342D02*
X184761905Y-101109580D01*
X184761905Y-101109580D02*
X184809524Y-101157200D01*
X184809524Y-101157200D02*
X184904762Y-101204819D01*
X184904762Y-101204819D02*
X185095238Y-101204819D01*
X185095238Y-101204819D02*
X185190476Y-101157200D01*
X185190476Y-101157200D02*
X185238095Y-101109580D01*
X185238095Y-101109580D02*
X185285714Y-101014342D01*
X185285714Y-101014342D02*
X185285714Y-100823866D01*
X185285714Y-100823866D02*
X185238095Y-100728628D01*
X185238095Y-100728628D02*
X185190476Y-100681009D01*
X185190476Y-100681009D02*
X185095238Y-100633390D01*
D11*
%TO.C,C21*%
X169761252Y-102065000D02*
X169238748Y-102065000D01*
X169761252Y-103535000D02*
X169238748Y-103535000D01*
%TO.C,J4*%
X132950000Y-89800000D02*
X132950000Y-98700000D01*
X132950000Y-92150000D02*
X133450000Y-92150000D01*
X132950000Y-92250000D02*
X133450000Y-92250000D01*
X132950000Y-94150000D02*
X133450000Y-94150000D01*
X132950000Y-94250000D02*
X133450000Y-94250000D01*
X132950000Y-96150000D02*
X133450000Y-96150000D01*
X132950000Y-96250000D02*
X133450000Y-96250000D01*
X132950000Y-98700000D02*
X136450000Y-98700000D01*
X133450000Y-92150000D02*
X133450000Y-92350000D01*
X133450000Y-92350000D02*
X132950000Y-92350000D01*
X133450000Y-94150000D02*
X133450000Y-94350000D01*
X133450000Y-94350000D02*
X132950000Y-94350000D01*
X133450000Y-96150000D02*
X133450000Y-96350000D01*
X133450000Y-96350000D02*
X132950000Y-96350000D01*
X134450000Y-89190000D02*
X134450000Y-89800000D01*
X134450000Y-99310000D02*
X134450000Y-98700000D01*
X135750000Y-89190000D02*
X135750000Y-89800000D01*
X135750000Y-99310000D02*
X135750000Y-98700000D01*
X136450000Y-89800000D02*
X132950000Y-89800000D01*
X136450000Y-91750000D02*
X136450000Y-89800000D01*
X136450000Y-96750000D02*
X137060000Y-96750000D01*
X136450000Y-98700000D02*
X136450000Y-96750000D01*
X137060000Y-90950000D02*
X137260000Y-90950000D01*
X137060000Y-91750000D02*
X136450000Y-91750000D01*
X137160000Y-90950000D02*
X137160000Y-90650000D01*
X137260000Y-90650000D02*
X137060000Y-90650000D01*
X137260000Y-90950000D02*
X137260000Y-90650000D01*
X137360000Y-88890000D02*
X136110000Y-88890000D01*
X137360000Y-90140000D02*
X137360000Y-88890000D01*
X137060000Y-89190000D02*
X132340000Y-89190000D01*
X132340000Y-99310000D01*
X137060000Y-99310000D01*
X137060000Y-89190000D01*
%TO.C,R12*%
X158745276Y-96477500D02*
X159254724Y-96477500D01*
X158745276Y-97522500D02*
X159254724Y-97522500D01*
%TO.C,R3*%
X169227500Y-95245276D02*
X169227500Y-95754724D01*
X170272500Y-95245276D02*
X170272500Y-95754724D01*
%TO.C,C2*%
X183515000Y-88511252D02*
X183515000Y-87988748D01*
X184985000Y-88511252D02*
X184985000Y-87988748D01*
%TO.C,C15*%
X156740000Y-99646267D02*
X156740000Y-99353733D01*
X157760000Y-99646267D02*
X157760000Y-99353733D01*
%TO.C,C12*%
X165146267Y-97490000D02*
X164853733Y-97490000D01*
X165146267Y-98510000D02*
X164853733Y-98510000D01*
%TO.C,R4*%
X168977500Y-99254724D02*
X168977500Y-98745276D01*
X170022500Y-99254724D02*
X170022500Y-98745276D01*
%TO.C,U1*%
X149440000Y-89240000D02*
X154060000Y-89240000D01*
X149440000Y-89515000D02*
X149440000Y-89240000D01*
X149440000Y-99160000D02*
X149440000Y-98885000D01*
X154060000Y-89240000D02*
X154060000Y-89515000D01*
X154060000Y-98885000D02*
X154060000Y-99160000D01*
X154060000Y-99160000D02*
X149440000Y-99160000D01*
X148800000Y-89510000D02*
X148460000Y-89040000D01*
X149140000Y-89040000D01*
X148800000Y-89510000D01*
G36*
X148800000Y-89510000D02*
G01*
X148460000Y-89040000D01*
X149140000Y-89040000D01*
X148800000Y-89510000D01*
G37*
%TO.C,R16*%
X157477500Y-89495276D02*
X157477500Y-90004724D01*
X158522500Y-89495276D02*
X158522500Y-90004724D01*
%TO.C,C3*%
X184396267Y-98490000D02*
X184103733Y-98490000D01*
X184396267Y-99510000D02*
X184103733Y-99510000D01*
%TO.C,R13*%
X142727064Y-95590000D02*
X141272936Y-95590000D01*
X142727064Y-97410000D02*
X141272936Y-97410000D01*
%TO.C,C11*%
X140265000Y-101488748D02*
X140265000Y-102011252D01*
X141735000Y-101488748D02*
X141735000Y-102011252D01*
%TO.C,R15*%
X158977500Y-93504724D02*
X158977500Y-92995276D01*
X160022500Y-93504724D02*
X160022500Y-92995276D01*
%TO.C,D2*%
X144515000Y-106450000D02*
X144515000Y-108910000D01*
X144515000Y-108910000D02*
X145985000Y-108910000D01*
X145985000Y-108910000D02*
X145985000Y-106450000D01*
%TO.C,D5*%
X148015000Y-106450000D02*
X148015000Y-108910000D01*
X148015000Y-108910000D02*
X149485000Y-108910000D01*
X149485000Y-108910000D02*
X149485000Y-106450000D01*
%TO.C,C16*%
X171490000Y-88353733D02*
X171490000Y-88646267D01*
X172510000Y-88353733D02*
X172510000Y-88646267D01*
%TO.C,R19*%
X162477500Y-89745276D02*
X162477500Y-90254724D01*
X163522500Y-89745276D02*
X163522500Y-90254724D01*
%TO.C,C6*%
X146490000Y-88103733D02*
X146490000Y-88396267D01*
X147510000Y-88103733D02*
X147510000Y-88396267D01*
%TO.C,R9*%
X156727500Y-93495276D02*
X156727500Y-94004724D01*
X157772500Y-93495276D02*
X157772500Y-94004724D01*
%TO.C,C5*%
X144353733Y-89990000D02*
X144646267Y-89990000D01*
X144353733Y-91010000D02*
X144646267Y-91010000D01*
%TO.C,R14*%
X171227500Y-98745276D02*
X171227500Y-99254724D01*
X172272500Y-98745276D02*
X172272500Y-99254724D01*
%TO.C,R10*%
X155977500Y-90004724D02*
X155977500Y-89495276D01*
X157022500Y-90004724D02*
X157022500Y-89495276D01*
%TO.C,C14*%
X142515000Y-101488748D02*
X142515000Y-102011252D01*
X143985000Y-101488748D02*
X143985000Y-102011252D01*
%TO.C,R11*%
X142727064Y-93090000D02*
X141272936Y-93090000D01*
X142727064Y-94910000D02*
X141272936Y-94910000D01*
%TO.C,R6*%
X186272936Y-95590000D02*
X187727064Y-95590000D01*
X186272936Y-97410000D02*
X187727064Y-97410000D01*
%TO.C,D1*%
X149765000Y-106450000D02*
X149765000Y-108910000D01*
X149765000Y-108910000D02*
X151235000Y-108910000D01*
X151235000Y-108910000D02*
X151235000Y-106450000D01*
%TO.C,J5*%
X168140000Y-105690000D02*
X169140000Y-105690000D01*
X168640000Y-106500000D02*
X168140000Y-106500000D01*
X168640000Y-107710000D02*
X168640000Y-106500000D01*
X169140000Y-105690000D02*
X169140000Y-104190000D01*
X174860000Y-105690000D02*
X174860000Y-104190000D01*
X175360000Y-106500000D02*
X175360000Y-107710000D01*
X175360000Y-107710000D02*
X168640000Y-107710000D01*
X175860000Y-105690000D02*
X174860000Y-105690000D01*
X175860000Y-106500000D02*
X175360000Y-106500000D01*
X176160000Y-103890000D02*
X173660000Y-103890000D01*
X176160000Y-106390000D02*
X176160000Y-103890000D01*
X175860000Y-108210000D02*
X168140000Y-108210000D01*
X168140000Y-104190000D01*
X175860000Y-104190000D01*
X175860000Y-108210000D01*
%TO.C,J2*%
X152640000Y-103690000D02*
X152640000Y-104940000D01*
X152940000Y-105300000D02*
X153550000Y-105300000D01*
X152940000Y-106600000D02*
X153550000Y-106600000D01*
X153550000Y-104600000D02*
X153550000Y-108100000D01*
X153550000Y-108100000D02*
X166450000Y-108100000D01*
X153890000Y-103690000D02*
X152640000Y-103690000D01*
X154400000Y-103790000D02*
X154400000Y-103990000D01*
X154700000Y-103790000D02*
X154400000Y-103790000D01*
X154700000Y-103890000D02*
X154400000Y-103890000D01*
X154700000Y-103990000D02*
X154700000Y-103790000D01*
X155500000Y-103990000D02*
X155500000Y-104600000D01*
X155500000Y-104600000D02*
X153550000Y-104600000D01*
X155900000Y-107600000D02*
X156100000Y-107600000D01*
X155900000Y-108100000D02*
X155900000Y-107600000D01*
X156000000Y-108100000D02*
X156000000Y-107600000D01*
X156100000Y-107600000D02*
X156100000Y-108100000D01*
X157900000Y-107600000D02*
X158100000Y-107600000D01*
X157900000Y-108100000D02*
X157900000Y-107600000D01*
X158000000Y-108100000D02*
X158000000Y-107600000D01*
X158100000Y-107600000D02*
X158100000Y-108100000D01*
X159900000Y-107600000D02*
X160100000Y-107600000D01*
X159900000Y-108100000D02*
X159900000Y-107600000D01*
X160000000Y-108100000D02*
X160000000Y-107600000D01*
X160100000Y-107600000D02*
X160100000Y-108100000D01*
X161900000Y-107600000D02*
X162100000Y-107600000D01*
X161900000Y-108100000D02*
X161900000Y-107600000D01*
X162000000Y-108100000D02*
X162000000Y-107600000D01*
X162100000Y-107600000D02*
X162100000Y-108100000D01*
X163900000Y-107600000D02*
X164100000Y-107600000D01*
X163900000Y-108100000D02*
X163900000Y-107600000D01*
X164000000Y-108100000D02*
X164000000Y-107600000D01*
X164100000Y-107600000D02*
X164100000Y-108100000D01*
X164500000Y-104600000D02*
X164500000Y-103990000D01*
X166450000Y-104600000D02*
X164500000Y-104600000D01*
X166450000Y-108100000D02*
X166450000Y-104600000D01*
X167060000Y-105300000D02*
X166450000Y-105300000D01*
X167060000Y-106600000D02*
X166450000Y-106600000D01*
X152940000Y-103990000D02*
X167060000Y-103990000D01*
X167060000Y-108710000D01*
X152940000Y-108710000D01*
X152940000Y-103990000D01*
%TO.C,R1*%
X147977500Y-101995276D02*
X147977500Y-102504724D01*
X149022500Y-101995276D02*
X149022500Y-102504724D01*
%TO.C,R7*%
X171667224Y-91227500D02*
X171157776Y-91227500D01*
X171667224Y-92272500D02*
X171157776Y-92272500D01*
%TO.C,C13*%
X166740000Y-94603733D02*
X166740000Y-94896267D01*
X167760000Y-94603733D02*
X167760000Y-94896267D01*
%TO.C,U2*%
X175065000Y-89915000D02*
X179685000Y-89915000D01*
X175065000Y-90190000D02*
X175065000Y-89915000D01*
X175065000Y-99835000D02*
X175065000Y-99560000D01*
X179685000Y-89915000D02*
X179685000Y-90190000D01*
X179685000Y-99560000D02*
X179685000Y-99835000D01*
X179685000Y-99835000D02*
X175065000Y-99835000D01*
X180665000Y-100035000D02*
X179985000Y-100035000D01*
X180325000Y-99565000D01*
X180665000Y-100035000D01*
G36*
X180665000Y-100035000D02*
G01*
X179985000Y-100035000D01*
X180325000Y-99565000D01*
X180665000Y-100035000D01*
G37*
%TO.C,R8*%
X185022936Y-91090000D02*
X186477064Y-91090000D01*
X185022936Y-92910000D02*
X186477064Y-92910000D01*
%TO.C,R18*%
X165477500Y-89745276D02*
X165477500Y-90254724D01*
X166522500Y-89745276D02*
X166522500Y-90254724D01*
%TO.C,C4*%
X173490000Y-88146267D02*
X173490000Y-87853733D01*
X174510000Y-88146267D02*
X174510000Y-87853733D01*
%TO.C,D6*%
X146265000Y-106450000D02*
X146265000Y-108910000D01*
X146265000Y-108910000D02*
X147735000Y-108910000D01*
X147735000Y-108910000D02*
X147735000Y-106450000D01*
%TO.C,C17*%
X165603733Y-102290000D02*
X165896267Y-102290000D01*
X165603733Y-103310000D02*
X165896267Y-103310000D01*
%TO.C,R2*%
X146477500Y-101995276D02*
X146477500Y-102504724D01*
X147522500Y-101995276D02*
X147522500Y-102504724D01*
%TO.C,R20*%
X163977500Y-89745276D02*
X163977500Y-90254724D01*
X165022500Y-89745276D02*
X165022500Y-90254724D01*
%TO.C,C7*%
X153896267Y-99740000D02*
X153603733Y-99740000D01*
X153896267Y-100760000D02*
X153603733Y-100760000D01*
%TO.C,J3*%
X189840000Y-98910000D02*
X189840000Y-100160000D01*
X189840000Y-100160000D02*
X191090000Y-100160000D01*
X189940000Y-98100000D02*
X189940000Y-98400000D01*
X189940000Y-98400000D02*
X190140000Y-98400000D01*
X190040000Y-98100000D02*
X190040000Y-98400000D01*
X190140000Y-97300000D02*
X190750000Y-97300000D01*
X190140000Y-98100000D02*
X189940000Y-98100000D01*
X190750000Y-90350000D02*
X190750000Y-92300000D01*
X190750000Y-92300000D02*
X190140000Y-92300000D01*
X190750000Y-97300000D02*
X190750000Y-99250000D01*
X190750000Y-99250000D02*
X194250000Y-99250000D01*
X191450000Y-89740000D02*
X191450000Y-90350000D01*
X191450000Y-99860000D02*
X191450000Y-99250000D01*
X192750000Y-89740000D02*
X192750000Y-90350000D01*
X192750000Y-99860000D02*
X192750000Y-99250000D01*
X193750000Y-92700000D02*
X194250000Y-92700000D01*
X193750000Y-92900000D02*
X193750000Y-92700000D01*
X193750000Y-94700000D02*
X194250000Y-94700000D01*
X193750000Y-94900000D02*
X193750000Y-94700000D01*
X193750000Y-96700000D02*
X194250000Y-96700000D01*
X193750000Y-96900000D02*
X193750000Y-96700000D01*
X194250000Y-90350000D02*
X190750000Y-90350000D01*
X194250000Y-92800000D02*
X193750000Y-92800000D01*
X194250000Y-92900000D02*
X193750000Y-92900000D01*
X194250000Y-94800000D02*
X193750000Y-94800000D01*
X194250000Y-94900000D02*
X193750000Y-94900000D01*
X194250000Y-96800000D02*
X193750000Y-96800000D01*
X194250000Y-96900000D02*
X193750000Y-96900000D01*
X194250000Y-99250000D02*
X194250000Y-90350000D01*
X190140000Y-99860000D02*
X194860000Y-99860000D01*
X194860000Y-89740000D01*
X190140000Y-89740000D01*
X190140000Y-99860000D01*
%TO.C,C1*%
X181265000Y-88511252D02*
X181265000Y-87988748D01*
X182735000Y-88511252D02*
X182735000Y-87988748D01*
%TO.C,R5*%
X170727500Y-95754724D02*
X170727500Y-95245276D01*
X171772500Y-95754724D02*
X171772500Y-95245276D01*
%TO.C,C20*%
X177062500Y-103652500D02*
X177850000Y-103652500D01*
X177456250Y-103258750D02*
X177456250Y-104046250D01*
X178090000Y-103154437D02*
X178090000Y-104440000D01*
X178090000Y-103154437D02*
X179154437Y-102090000D01*
X178090000Y-107845563D02*
X178090000Y-106560000D01*
X178090000Y-107845563D02*
X179154437Y-108910000D01*
X179154437Y-102090000D02*
X184910000Y-102090000D01*
X179154437Y-108910000D02*
X184910000Y-108910000D01*
X184910000Y-102090000D02*
X184910000Y-104440000D01*
X184910000Y-108910000D02*
X184910000Y-106560000D01*
%TO.C,U$1*%
X162890000Y-93440000D02*
X163565000Y-93440000D01*
X162890000Y-93615000D02*
X162890000Y-93440000D01*
X162890000Y-96160000D02*
X162890000Y-95985000D01*
X163565000Y-96160000D02*
X162890000Y-96160000D01*
X165435000Y-93440000D02*
X166110000Y-93440000D01*
X166110000Y-93440000D02*
X166110000Y-93615000D01*
X166110000Y-95985000D02*
X166110000Y-96160000D01*
X166110000Y-96160000D02*
X165435000Y-96160000D01*
X162760000Y-94050000D02*
X162430000Y-94290000D01*
X162430000Y-93810000D01*
X162760000Y-94050000D01*
G36*
X162760000Y-94050000D02*
G01*
X162430000Y-94290000D01*
X162430000Y-93810000D01*
X162760000Y-94050000D01*
G37*
%TO.C,C8*%
X181603733Y-100240000D02*
X181896267Y-100240000D01*
X181603733Y-101260000D02*
X181896267Y-101260000D01*
%TD*%
M02*
