%TF.GenerationSoftware,KiCad,Pcbnew,9.0.7*%
%TF.CreationDate,2026-01-26T17:00:03+01:00*%
%TF.ProjectId,Robot,526f626f-742e-46b6-9963-61645f706362,rev?*%
%TF.SameCoordinates,Original*%
%TF.FileFunction,Paste,Top*%
%TF.FilePolarity,Positive*%
%FSLAX46Y46*%
G04 Gerber Fmt 4.6, Leading zero omitted, Abs format (unit mm)*
G04 Created by KiCad (PCBNEW 9.0.7) date 2026-01-26 17:00:03*
%MOMM*%
%LPD*%
G01*
G04 APERTURE LIST*
G04 Aperture macros list*
%AMRoundRect*
0 Rectangle with rounded corners*
0 $1 Rounding radius*
0 $2 $3 $4 $5 $6 $7 $8 $9 X,Y pos of 4 corners*
0 Add a 4 corners polygon primitive as box body*
4,1,4,$2,$3,$4,$5,$6,$7,$8,$9,$2,$3,0*
0 Add four circle primitives for the rounded corners*
1,1,$1+$1,$2,$3*
1,1,$1+$1,$4,$5*
1,1,$1+$1,$6,$7*
1,1,$1+$1,$8,$9*
0 Add four rect primitives between the rounded corners*
20,1,$1+$1,$2,$3,$4,$5,0*
20,1,$1+$1,$4,$5,$6,$7,0*
20,1,$1+$1,$6,$7,$8,$9,0*
20,1,$1+$1,$8,$9,$2,$3,0*%
G04 Aperture macros list end*
%ADD10RoundRect,0.250000X0.337500X0.475000X-0.337500X0.475000X-0.337500X-0.475000X0.337500X-0.475000X0*%
%ADD11RoundRect,0.237500X-0.250000X-0.237500X0.250000X-0.237500X0.250000X0.237500X-0.250000X0.237500X0*%
%ADD12RoundRect,0.237500X-0.237500X0.250000X-0.237500X-0.250000X0.237500X-0.250000X0.237500X0.250000X0*%
%ADD13RoundRect,0.250000X0.475000X-0.337500X0.475000X0.337500X-0.475000X0.337500X-0.475000X-0.337500X0*%
%ADD14RoundRect,0.237500X0.237500X-0.300000X0.237500X0.300000X-0.237500X0.300000X-0.237500X-0.300000X0*%
%ADD15RoundRect,0.237500X0.300000X0.237500X-0.300000X0.237500X-0.300000X-0.237500X0.300000X-0.237500X0*%
%ADD16RoundRect,0.237500X0.237500X-0.250000X0.237500X0.250000X-0.237500X0.250000X-0.237500X-0.250000X0*%
%ADD17RoundRect,0.250000X-0.900000X-0.475000X0.900000X-0.475000X0.900000X0.475000X-0.900000X0.475000X0*%
%ADD18RoundRect,0.100000X-0.637500X-0.100000X0.637500X-0.100000X0.637500X0.100000X-0.637500X0.100000X0*%
%ADD19RoundRect,0.250000X0.400000X0.625000X-0.400000X0.625000X-0.400000X-0.625000X0.400000X-0.625000X0*%
%ADD20RoundRect,0.250000X-0.475000X0.337500X-0.475000X-0.337500X0.475000X-0.337500X0.475000X0.337500X0*%
%ADD21RoundRect,0.237500X0.237500X-0.287500X0.237500X0.287500X-0.237500X0.287500X-0.237500X-0.287500X0*%
%ADD22RoundRect,0.237500X-0.237500X0.300000X-0.237500X-0.300000X0.237500X-0.300000X0.237500X0.300000X0*%
%ADD23RoundRect,0.237500X-0.300000X-0.237500X0.300000X-0.237500X0.300000X0.237500X-0.300000X0.237500X0*%
%ADD24RoundRect,0.250000X-0.400000X-0.625000X0.400000X-0.625000X0.400000X0.625000X-0.400000X0.625000X0*%
%ADD25RoundRect,0.237500X0.250000X0.237500X-0.250000X0.237500X-0.250000X-0.237500X0.250000X-0.237500X0*%
%ADD26RoundRect,0.250000X0.900000X0.475000X-0.900000X0.475000X-0.900000X-0.475000X0.900000X-0.475000X0*%
%ADD27RoundRect,0.100000X0.637500X0.100000X-0.637500X0.100000X-0.637500X-0.100000X0.637500X-0.100000X0*%
%ADD28RoundRect,0.250000X-1.500000X-0.550000X1.500000X-0.550000X1.500000X0.550000X-1.500000X0.550000X0*%
%ADD29RoundRect,0.087500X-0.225000X-0.087500X0.225000X-0.087500X0.225000X0.087500X-0.225000X0.087500X0*%
%ADD30RoundRect,0.087500X-0.087500X-0.225000X0.087500X-0.225000X0.087500X0.225000X-0.087500X0.225000X0*%
G04 APERTURE END LIST*
D10*
%TO.C,C21*%
X170537500Y-102800000D03*
X168462500Y-102800000D03*
%TD*%
D11*
%TO.C,R12*%
X158087500Y-97000000D03*
X159912500Y-97000000D03*
%TD*%
D12*
%TO.C,R3*%
X169750000Y-94587500D03*
X169750000Y-96412500D03*
%TD*%
D13*
%TO.C,C2*%
X184250000Y-89287500D03*
X184250000Y-87212500D03*
%TD*%
D14*
%TO.C,C15*%
X157250000Y-100362500D03*
X157250000Y-98637500D03*
%TD*%
D15*
%TO.C,C12*%
X165862500Y-98000000D03*
X164137500Y-98000000D03*
%TD*%
D16*
%TO.C,R4*%
X169500000Y-99912500D03*
X169500000Y-98087500D03*
%TD*%
D17*
%TO.C,U1*%
X151750000Y-92400000D03*
X151750000Y-94200000D03*
X151750000Y-96000000D03*
D18*
X148887500Y-89975000D03*
X148887500Y-90625000D03*
X148887500Y-91275000D03*
X148887500Y-91925000D03*
X148887500Y-92575000D03*
X148887500Y-93225000D03*
X148887500Y-93875000D03*
X148887500Y-94525000D03*
X148887500Y-95175000D03*
X148887500Y-95825000D03*
X148887500Y-96475000D03*
X148887500Y-97125000D03*
X148887500Y-97775000D03*
X148887500Y-98425000D03*
X154612500Y-98425000D03*
X154612500Y-97775000D03*
X154612500Y-97125000D03*
X154612500Y-96475000D03*
X154612500Y-95825000D03*
X154612500Y-95175000D03*
X154612500Y-94525000D03*
X154612500Y-93875000D03*
X154612500Y-93225000D03*
X154612500Y-92575000D03*
X154612500Y-91925000D03*
X154612500Y-91275000D03*
X154612500Y-90625000D03*
X154612500Y-89975000D03*
%TD*%
D12*
%TO.C,R16*%
X158000000Y-88837500D03*
X158000000Y-90662500D03*
%TD*%
D15*
%TO.C,C3*%
X185112500Y-99000000D03*
X183387500Y-99000000D03*
%TD*%
D19*
%TO.C,R13*%
X143550000Y-96500000D03*
X140450000Y-96500000D03*
%TD*%
D20*
%TO.C,C11*%
X141000000Y-100712500D03*
X141000000Y-102787500D03*
%TD*%
D16*
%TO.C,R15*%
X159500000Y-94162500D03*
X159500000Y-92337500D03*
%TD*%
D21*
%TO.C,D2*%
X145250000Y-108125000D03*
X145250000Y-106375000D03*
%TD*%
%TO.C,D5*%
X148750000Y-108125000D03*
X148750000Y-106375000D03*
%TD*%
D22*
%TO.C,C16*%
X172000000Y-87637500D03*
X172000000Y-89362500D03*
%TD*%
D12*
%TO.C,R19*%
X163000000Y-89087500D03*
X163000000Y-90912500D03*
%TD*%
D22*
%TO.C,C6*%
X147000000Y-87387500D03*
X147000000Y-89112500D03*
%TD*%
D12*
%TO.C,R9*%
X157250000Y-92837500D03*
X157250000Y-94662500D03*
%TD*%
D23*
%TO.C,C5*%
X143637500Y-90500000D03*
X145362500Y-90500000D03*
%TD*%
D12*
%TO.C,R14*%
X171750000Y-98087500D03*
X171750000Y-99912500D03*
%TD*%
D16*
%TO.C,R10*%
X156500000Y-90662500D03*
X156500000Y-88837500D03*
%TD*%
D20*
%TO.C,C14*%
X143250000Y-100712500D03*
X143250000Y-102787500D03*
%TD*%
D19*
%TO.C,R11*%
X143550000Y-94000000D03*
X140450000Y-94000000D03*
%TD*%
D24*
%TO.C,R6*%
X185450000Y-96500000D03*
X188550000Y-96500000D03*
%TD*%
D21*
%TO.C,D1*%
X150500000Y-108125000D03*
X150500000Y-106375000D03*
%TD*%
D12*
%TO.C,R1*%
X148500000Y-101337500D03*
X148500000Y-103162500D03*
%TD*%
D25*
%TO.C,R7*%
X172325000Y-91750000D03*
X170500000Y-91750000D03*
%TD*%
D22*
%TO.C,C13*%
X167250000Y-93887500D03*
X167250000Y-95612500D03*
%TD*%
D26*
%TO.C,U2*%
X177375000Y-96675000D03*
X177375000Y-94875000D03*
X177375000Y-93075000D03*
D27*
X180237500Y-99100000D03*
X180237500Y-98450000D03*
X180237500Y-97800000D03*
X180237500Y-97150000D03*
X180237500Y-96500000D03*
X180237500Y-95850000D03*
X180237500Y-95200000D03*
X180237500Y-94550000D03*
X180237500Y-93900000D03*
X180237500Y-93250000D03*
X180237500Y-92600000D03*
X180237500Y-91950000D03*
X180237500Y-91300000D03*
X180237500Y-90650000D03*
X174512500Y-90650000D03*
X174512500Y-91300000D03*
X174512500Y-91950000D03*
X174512500Y-92600000D03*
X174512500Y-93250000D03*
X174512500Y-93900000D03*
X174512500Y-94550000D03*
X174512500Y-95200000D03*
X174512500Y-95850000D03*
X174512500Y-96500000D03*
X174512500Y-97150000D03*
X174512500Y-97800000D03*
X174512500Y-98450000D03*
X174512500Y-99100000D03*
%TD*%
D24*
%TO.C,R8*%
X184200000Y-92000000D03*
X187300000Y-92000000D03*
%TD*%
D12*
%TO.C,R18*%
X166000000Y-89087500D03*
X166000000Y-90912500D03*
%TD*%
D14*
%TO.C,C4*%
X174000000Y-88862500D03*
X174000000Y-87137500D03*
%TD*%
D21*
%TO.C,D6*%
X147000000Y-108125000D03*
X147000000Y-106375000D03*
%TD*%
D23*
%TO.C,C17*%
X164887500Y-102800000D03*
X166612500Y-102800000D03*
%TD*%
D12*
%TO.C,R2*%
X147000000Y-101337500D03*
X147000000Y-103162500D03*
%TD*%
%TO.C,R20*%
X164500000Y-89087500D03*
X164500000Y-90912500D03*
%TD*%
D15*
%TO.C,C7*%
X154612500Y-100250000D03*
X152887500Y-100250000D03*
%TD*%
D13*
%TO.C,C1*%
X182000000Y-89287500D03*
X182000000Y-87212500D03*
%TD*%
D16*
%TO.C,R5*%
X171250000Y-96412500D03*
X171250000Y-94587500D03*
%TD*%
D28*
%TO.C,C20*%
X178700000Y-105500000D03*
X184300000Y-105500000D03*
%TD*%
D29*
%TO.C,U$1*%
X163337500Y-94050000D03*
X163337500Y-94550000D03*
X163337500Y-95050000D03*
X163337500Y-95550000D03*
D30*
X164000000Y-95712500D03*
X164500000Y-95712500D03*
X165000000Y-95712500D03*
D29*
X165662500Y-95550000D03*
X165662500Y-95050000D03*
X165662500Y-94550000D03*
X165662500Y-94050000D03*
D30*
X165000000Y-93887500D03*
X164500000Y-93887500D03*
X164000000Y-93887500D03*
%TD*%
D23*
%TO.C,C8*%
X180887500Y-100750000D03*
X182612500Y-100750000D03*
%TD*%
M02*
