%TF.GenerationSoftware,KiCad,Pcbnew,9.0.7*%
%TF.CreationDate,2026-01-26T16:36:39+01:00*%
%TF.ProjectId,Robot,526f626f-742e-46b6-9963-61645f706362,rev?*%
%TF.SameCoordinates,Original*%
%TF.FileFunction,Copper,L3,Inr*%
%TF.FilePolarity,Positive*%
%FSLAX46Y46*%
G04 Gerber Fmt 4.6, Leading zero omitted, Abs format (unit mm)*
G04 Created by KiCad (PCBNEW 9.0.7) date 2026-01-26 16:36:39*
%MOMM*%
%LPD*%
G01*
G04 APERTURE LIST*
G04 Aperture macros list*
%AMRoundRect*
0 Rectangle with rounded corners*
0 $1 Rounding radius*
0 $2 $3 $4 $5 $6 $7 $8 $9 X,Y pos of 4 corners*
0 Add a 4 corners polygon primitive as box body*
4,1,4,$2,$3,$4,$5,$6,$7,$8,$9,$2,$3,0*
0 Add four circle primitives for the rounded corners*
1,1,$1+$1,$2,$3*
1,1,$1+$1,$4,$5*
1,1,$1+$1,$6,$7*
1,1,$1+$1,$8,$9*
0 Add four rect primitives between the rounded corners*
20,1,$1+$1,$2,$3,$4,$5,0*
20,1,$1+$1,$4,$5,$6,$7,0*
20,1,$1+$1,$6,$7,$8,$9,0*
20,1,$1+$1,$8,$9,$2,$3,0*%
G04 Aperture macros list end*
%TA.AperFunction,ComponentPad*%
%ADD10RoundRect,0.250000X-0.625000X0.350000X-0.625000X-0.350000X0.625000X-0.350000X0.625000X0.350000X0*%
%TD*%
%TA.AperFunction,ComponentPad*%
%ADD11O,1.750000X1.200000*%
%TD*%
%TA.AperFunction,HeatsinkPad*%
%ADD12C,0.600000*%
%TD*%
%TA.AperFunction,ComponentPad*%
%ADD13C,5.400000*%
%TD*%
%TA.AperFunction,ComponentPad*%
%ADD14RoundRect,0.250000X0.600000X0.750000X-0.600000X0.750000X-0.600000X-0.750000X0.600000X-0.750000X0*%
%TD*%
%TA.AperFunction,ComponentPad*%
%ADD15O,1.700000X2.000000*%
%TD*%
%TA.AperFunction,ComponentPad*%
%ADD16RoundRect,0.250000X-0.350000X-0.625000X0.350000X-0.625000X0.350000X0.625000X-0.350000X0.625000X0*%
%TD*%
%TA.AperFunction,ComponentPad*%
%ADD17O,1.200000X1.750000*%
%TD*%
%TA.AperFunction,ComponentPad*%
%ADD18RoundRect,0.250000X0.625000X-0.350000X0.625000X0.350000X-0.625000X0.350000X-0.625000X-0.350000X0*%
%TD*%
%TA.AperFunction,ComponentPad*%
%ADD19R,1.700000X1.700000*%
%TD*%
%TA.AperFunction,ComponentPad*%
%ADD20C,1.700000*%
%TD*%
%TA.AperFunction,ViaPad*%
%ADD21C,0.600000*%
%TD*%
G04 APERTURE END LIST*
D10*
%TO.N,Net-(J4-Pin_1)*%
%TO.C,J4*%
X135250000Y-91250000D03*
D11*
%TO.N,Net-(J4-Pin_2)*%
X135250000Y-93250000D03*
%TO.N,Net-(J4-Pin_3)*%
X135250000Y-95250000D03*
%TO.N,Net-(J4-Pin_4)*%
X135250000Y-97250000D03*
%TD*%
D12*
%TO.N,GND*%
%TO.C,U1*%
X150625000Y-91800000D03*
X150625000Y-93400000D03*
X150625000Y-95000000D03*
X150625000Y-96600000D03*
X152875000Y-91800000D03*
X152875000Y-93400000D03*
X152875000Y-95000000D03*
X152875000Y-96600000D03*
%TD*%
D13*
%TO.N,GND*%
%TO.C,H4*%
X192500000Y-105800000D03*
%TD*%
D14*
%TO.N,GND*%
%TO.C,J5*%
X173250000Y-106500000D03*
D15*
%TO.N,VCC*%
X170750000Y-106500000D03*
%TD*%
D16*
%TO.N,GND*%
%TO.C,J2*%
X155000000Y-105800000D03*
D17*
%TO.N,CS*%
X157000000Y-105800000D03*
%TO.N,MOSI*%
X159000000Y-105800000D03*
%TO.N,MISO*%
X161000000Y-105800000D03*
%TO.N,SCLK*%
X163000000Y-105800000D03*
%TO.N,+3.3V*%
X165000000Y-105800000D03*
%TD*%
D12*
%TO.N,GND*%
%TO.C,U2*%
X178500000Y-97275000D03*
X178500000Y-95675000D03*
X178500000Y-94075000D03*
X178500000Y-92475000D03*
X176250000Y-97275000D03*
X176250000Y-95675000D03*
X176250000Y-94075000D03*
X176250000Y-92475000D03*
%TD*%
D13*
%TO.N,GND*%
%TO.C,H1*%
X134500000Y-82800000D03*
%TD*%
%TO.N,GND*%
%TO.C,H2*%
X192500000Y-82800000D03*
%TD*%
%TO.N,GND*%
%TO.C,H3*%
X134500000Y-105800000D03*
%TD*%
D18*
%TO.N,Net-(J3-Pin_1)*%
%TO.C,J3*%
X191950000Y-97800000D03*
D11*
%TO.N,Net-(J3-Pin_2)*%
X191950000Y-95800000D03*
%TO.N,Net-(J3-Pin_3)*%
X191950000Y-93800000D03*
%TO.N,Net-(J3-Pin_4)*%
X191950000Y-91800000D03*
%TD*%
D19*
%TO.N,+3.3V*%
%TO.C,J1*%
X139400000Y-84040000D03*
D20*
%TO.N,unconnected-(J1-Pin_2-Pad2)*%
X139400000Y-81500000D03*
%TO.N,SDA_3V3*%
X141940000Y-84040000D03*
%TO.N,unconnected-(J1-Pin_4-Pad4)*%
X141940000Y-81500000D03*
%TO.N,SCL_3V3*%
X144480000Y-84040000D03*
%TO.N,GND*%
X144480000Y-81500000D03*
%TO.N,unconnected-(J1-Pin_7-Pad7)*%
X147020000Y-84040000D03*
%TO.N,unconnected-(J1-Pin_8-Pad8)*%
X147020000Y-81500000D03*
%TO.N,GND*%
X149560000Y-84040000D03*
%TO.N,unconnected-(J1-Pin_10-Pad10)*%
X149560000Y-81500000D03*
%TO.N,unconnected-(J1-Pin_11-Pad11)*%
X152100000Y-84040000D03*
%TO.N,unconnected-(J1-Pin_12-Pad12)*%
X152100000Y-81500000D03*
%TO.N,unconnected-(J1-Pin_13-Pad13)*%
X154640000Y-84040000D03*
%TO.N,GND*%
X154640000Y-81500000D03*
%TO.N,unconnected-(J1-Pin_15-Pad15)*%
X157180000Y-84040000D03*
%TO.N,unconnected-(J1-Pin_16-Pad16)*%
X157180000Y-81500000D03*
%TO.N,unconnected-(J1-Pin_17-Pad17)*%
X159720000Y-84040000D03*
%TO.N,unconnected-(J1-Pin_18-Pad18)*%
X159720000Y-81500000D03*
%TO.N,MOSI*%
X162260000Y-84040000D03*
%TO.N,GND*%
X162260000Y-81500000D03*
%TO.N,MISO*%
X164800000Y-84040000D03*
%TO.N,unconnected-(J1-Pin_22-Pad22)*%
X164800000Y-81500000D03*
%TO.N,SCLK*%
X167340000Y-84040000D03*
%TO.N,CS*%
X167340000Y-81500000D03*
%TO.N,GND*%
X169880000Y-84040000D03*
%TO.N,unconnected-(J1-Pin_26-Pad26)*%
X169880000Y-81500000D03*
%TO.N,unconnected-(J1-Pin_27-Pad27)*%
X172420000Y-84040000D03*
%TO.N,unconnected-(J1-Pin_28-Pad28)*%
X172420000Y-81500000D03*
%TO.N,unconnected-(J1-Pin_29-Pad29)*%
X174960000Y-84040000D03*
%TO.N,GND*%
X174960000Y-81500000D03*
%TO.N,DIR_LEFT*%
X177500000Y-84040000D03*
%TO.N,STEP_RIGHT*%
X177500000Y-81500000D03*
%TO.N,STEP_LEFT*%
X180040000Y-84040000D03*
%TO.N,GND*%
X180040000Y-81500000D03*
%TO.N,unconnected-(J1-Pin_35-Pad35)*%
X182580000Y-84040000D03*
%TO.N,DIR_RIGHT*%
X182580000Y-81500000D03*
%TO.N,unconnected-(J1-Pin_37-Pad37)*%
X185120000Y-84040000D03*
%TO.N,unconnected-(J1-Pin_38-Pad38)*%
X185120000Y-81500000D03*
%TO.N,GND*%
X187660000Y-84040000D03*
%TO.N,unconnected-(J1-Pin_40-Pad40)*%
X187660000Y-81500000D03*
%TD*%
D21*
%TO.N,VCC*%
X178700000Y-105500000D03*
X146500000Y-96700000D03*
X142250000Y-99250000D03*
X142500000Y-92000000D03*
X173250000Y-103250000D03*
X183250000Y-97750000D03*
X150250000Y-101250000D03*
X183000000Y-90750000D03*
X179750000Y-105500000D03*
X143500000Y-89000000D03*
X177750000Y-105500000D03*
%TO.N,GND*%
X174000000Y-86000000D03*
X184300000Y-105500000D03*
X156500000Y-87500000D03*
X140500000Y-92500000D03*
X172000000Y-86500000D03*
X139500000Y-102500000D03*
X145000000Y-102500000D03*
X182000000Y-86000000D03*
X168000000Y-92500000D03*
X184500000Y-86000000D03*
X156000000Y-94600000D03*
X140500000Y-98500000D03*
X171300000Y-93200000D03*
X150400000Y-97800000D03*
X188500000Y-98000000D03*
X187500000Y-90500000D03*
X165600000Y-96700000D03*
%TO.N,+3.3V*%
X168100000Y-100600000D03*
X158000000Y-87700000D03*
X161000000Y-94500000D03*
X156250000Y-97500000D03*
X172750000Y-90500000D03*
X168250000Y-89000000D03*
X151750000Y-100000000D03*
X162750000Y-97000000D03*
X167600000Y-97200000D03*
X169800000Y-93300000D03*
%TO.N,Net-(D2-A)*%
X164000000Y-100000000D03*
X169000000Y-92250000D03*
X145250000Y-104750000D03*
X168000000Y-99000000D03*
%TO.N,SCL_3V3*%
X164500000Y-92500000D03*
%TO.N,DIR_RIGHT*%
X161750000Y-92000000D03*
X170000000Y-88000000D03*
X156250000Y-95750000D03*
%TO.N,SDA_3V3*%
X163000000Y-92500000D03*
%TO.N,STEP_RIGHT*%
X156000000Y-93750000D03*
X170000000Y-87199997D03*
X160750000Y-92750000D03*
%TO.N,STEP_LEFT*%
X178000000Y-89000000D03*
X173250000Y-95200000D03*
X178860545Y-87281636D03*
%TO.N,DIR_LEFT*%
X176250000Y-87250000D03*
X176000000Y-88750000D03*
X172750000Y-93500000D03*
%TO.N,Net-(J3-Pin_2)*%
X185000000Y-95000000D03*
%TO.N,Net-(J3-Pin_4)*%
X183000000Y-92000000D03*
%TO.N,Net-(J3-Pin_3)*%
X183500000Y-94500000D03*
%TO.N,Net-(J3-Pin_1)*%
X183000000Y-96550000D03*
%TO.N,Net-(J4-Pin_3)*%
X145515538Y-94625000D03*
%TO.N,Net-(J4-Pin_4)*%
X144700000Y-96500000D03*
%TO.N,Net-(J4-Pin_1)*%
X144500000Y-92500000D03*
%TO.N,Net-(J4-Pin_2)*%
X146500000Y-93925000D03*
%TD*%
%TA.AperFunction,Conductor*%
%TO.N,VCC*%
G36*
X184977317Y-86741306D02*
G01*
X185054236Y-86806204D01*
X185185889Y-86864248D01*
X185185890Y-86864248D01*
X185185892Y-86864249D01*
X185253175Y-86883048D01*
X185253179Y-86883048D01*
X185253181Y-86883049D01*
X185253182Y-86883049D01*
X185260426Y-86884041D01*
X185261167Y-86884090D01*
X185269728Y-86885206D01*
X185395856Y-86901650D01*
X195573870Y-86767727D01*
X195641161Y-86786528D01*
X195687607Y-86838725D01*
X195699500Y-86891716D01*
X195699500Y-104524397D01*
X195679815Y-104591436D01*
X195627011Y-104637191D01*
X195557853Y-104647135D01*
X195494297Y-104618110D01*
X195463931Y-104576000D01*
X195463046Y-104576427D01*
X195305567Y-104249420D01*
X195305566Y-104249418D01*
X195114315Y-103945044D01*
X194890188Y-103663997D01*
X194636003Y-103409812D01*
X194354956Y-103185685D01*
X194075815Y-103010289D01*
X194050579Y-102994432D01*
X193726711Y-102838465D01*
X193387419Y-102719741D01*
X193387407Y-102719737D01*
X193036951Y-102639748D01*
X193036935Y-102639746D01*
X192679740Y-102599500D01*
X192679736Y-102599500D01*
X192320264Y-102599500D01*
X192320259Y-102599500D01*
X191963064Y-102639746D01*
X191963048Y-102639748D01*
X191612592Y-102719737D01*
X191612580Y-102719741D01*
X191273288Y-102838465D01*
X190949420Y-102994432D01*
X190645045Y-103185684D01*
X190363997Y-103409811D01*
X190109811Y-103663997D01*
X189885684Y-103945045D01*
X189694432Y-104249420D01*
X189538465Y-104573288D01*
X189419741Y-104912580D01*
X189419737Y-104912592D01*
X189339748Y-105263048D01*
X189339746Y-105263064D01*
X189299500Y-105620259D01*
X189299500Y-105979740D01*
X189339746Y-106336935D01*
X189339748Y-106336951D01*
X189419737Y-106687407D01*
X189419741Y-106687419D01*
X189538465Y-107026711D01*
X189694432Y-107350579D01*
X189694434Y-107350582D01*
X189885685Y-107654956D01*
X190109812Y-107936003D01*
X190363997Y-108190188D01*
X190645044Y-108414315D01*
X190949418Y-108605566D01*
X190949420Y-108605567D01*
X191276427Y-108763046D01*
X191275876Y-108764190D01*
X191326241Y-108804760D01*
X191348318Y-108871050D01*
X191331052Y-108938753D01*
X191279924Y-108986373D01*
X191224398Y-108999500D01*
X135775602Y-108999500D01*
X135708563Y-108979815D01*
X135662808Y-108927011D01*
X135652864Y-108857853D01*
X135681889Y-108794297D01*
X135724001Y-108763935D01*
X135723573Y-108763046D01*
X135843839Y-108705128D01*
X136050582Y-108605566D01*
X136354956Y-108414315D01*
X136636003Y-108190188D01*
X136890188Y-107936003D01*
X137114315Y-107654956D01*
X137305566Y-107350582D01*
X137461536Y-107026708D01*
X137580262Y-106687408D01*
X137660252Y-106336948D01*
X137700500Y-105979736D01*
X137700500Y-105620264D01*
X137660252Y-105263052D01*
X137580262Y-104912592D01*
X137560343Y-104855668D01*
X137507980Y-104706021D01*
X137495779Y-104671153D01*
X144449500Y-104671153D01*
X144449500Y-104828846D01*
X144480261Y-104983489D01*
X144480264Y-104983501D01*
X144540602Y-105129172D01*
X144540609Y-105129185D01*
X144628210Y-105260288D01*
X144628213Y-105260292D01*
X144739707Y-105371786D01*
X144739711Y-105371789D01*
X144870814Y-105459390D01*
X144870827Y-105459397D01*
X145016498Y-105519735D01*
X145016503Y-105519737D01*
X145171153Y-105550499D01*
X145171156Y-105550500D01*
X145171158Y-105550500D01*
X145328844Y-105550500D01*
X145328845Y-105550499D01*
X145483497Y-105519737D01*
X145629179Y-105459394D01*
X145760289Y-105371789D01*
X145871789Y-105260289D01*
X145959394Y-105129179D01*
X145961132Y-105124983D01*
X153899500Y-105124983D01*
X153899500Y-106475001D01*
X153899501Y-106475018D01*
X153910000Y-106577796D01*
X153910001Y-106577799D01*
X153965185Y-106744331D01*
X153965187Y-106744336D01*
X153988870Y-106782732D01*
X154057288Y-106893656D01*
X154181344Y-107017712D01*
X154330666Y-107109814D01*
X154497203Y-107164999D01*
X154599991Y-107175500D01*
X155400008Y-107175499D01*
X155400016Y-107175498D01*
X155400019Y-107175498D01*
X155456302Y-107169748D01*
X155502797Y-107164999D01*
X155669334Y-107109814D01*
X155818656Y-107017712D01*
X155942712Y-106893656D01*
X155982310Y-106829456D01*
X156034258Y-106782732D01*
X156103220Y-106771509D01*
X156167303Y-106799352D01*
X156175530Y-106806872D01*
X156283072Y-106914414D01*
X156423212Y-107016232D01*
X156577555Y-107094873D01*
X156742299Y-107148402D01*
X156913389Y-107175500D01*
X156913390Y-107175500D01*
X157086610Y-107175500D01*
X157086611Y-107175500D01*
X157257701Y-107148402D01*
X157422445Y-107094873D01*
X157576788Y-107016232D01*
X157716928Y-106914414D01*
X157839414Y-106791928D01*
X157899682Y-106708975D01*
X157955012Y-106666311D01*
X158024626Y-106660332D01*
X158086421Y-106692938D01*
X158100315Y-106708973D01*
X158160586Y-106791928D01*
X158283072Y-106914414D01*
X158423212Y-107016232D01*
X158577555Y-107094873D01*
X158742299Y-107148402D01*
X158913389Y-107175500D01*
X158913390Y-107175500D01*
X159086610Y-107175500D01*
X159086611Y-107175500D01*
X159257701Y-107148402D01*
X159422445Y-107094873D01*
X159576788Y-107016232D01*
X159716928Y-106914414D01*
X159839414Y-106791928D01*
X159899682Y-106708975D01*
X159955012Y-106666311D01*
X160024626Y-106660332D01*
X160086421Y-106692938D01*
X160100315Y-106708973D01*
X160160586Y-106791928D01*
X160283072Y-106914414D01*
X160423212Y-107016232D01*
X160577555Y-107094873D01*
X160742299Y-107148402D01*
X160913389Y-107175500D01*
X160913390Y-107175500D01*
X161086610Y-107175500D01*
X161086611Y-107175500D01*
X161257701Y-107148402D01*
X161422445Y-107094873D01*
X161576788Y-107016232D01*
X161716928Y-106914414D01*
X161839414Y-106791928D01*
X161899682Y-106708975D01*
X161955012Y-106666311D01*
X162024626Y-106660332D01*
X162086421Y-106692938D01*
X162100315Y-106708973D01*
X162160586Y-106791928D01*
X162283072Y-106914414D01*
X162423212Y-107016232D01*
X162577555Y-107094873D01*
X162742299Y-107148402D01*
X162913389Y-107175500D01*
X162913390Y-107175500D01*
X163086610Y-107175500D01*
X163086611Y-107175500D01*
X163257701Y-107148402D01*
X163422445Y-107094873D01*
X163576788Y-107016232D01*
X163716928Y-106914414D01*
X163839414Y-106791928D01*
X163899682Y-106708975D01*
X163955012Y-106666311D01*
X164024626Y-106660332D01*
X164086421Y-106692938D01*
X164100315Y-106708973D01*
X164160586Y-106791928D01*
X164283072Y-106914414D01*
X164423212Y-107016232D01*
X164577555Y-107094873D01*
X164742299Y-107148402D01*
X164913389Y-107175500D01*
X164913390Y-107175500D01*
X165086610Y-107175500D01*
X165086611Y-107175500D01*
X165257701Y-107148402D01*
X165422445Y-107094873D01*
X165576788Y-107016232D01*
X165716928Y-106914414D01*
X165839414Y-106791928D01*
X165941232Y-106651788D01*
X166019873Y-106497445D01*
X166073402Y-106332701D01*
X166087490Y-106243753D01*
X169400000Y-106243753D01*
X169400000Y-106250000D01*
X170316988Y-106250000D01*
X170284075Y-106307007D01*
X170250000Y-106434174D01*
X170250000Y-106565826D01*
X170284075Y-106692993D01*
X170316988Y-106750000D01*
X169400000Y-106750000D01*
X169400000Y-106756246D01*
X169433242Y-106966127D01*
X169433242Y-106966130D01*
X169498904Y-107168217D01*
X169595379Y-107357557D01*
X169720272Y-107529459D01*
X169720276Y-107529464D01*
X169870535Y-107679723D01*
X169870540Y-107679727D01*
X170042442Y-107804620D01*
X170231782Y-107901095D01*
X170433871Y-107966757D01*
X170500000Y-107977231D01*
X170500000Y-106933012D01*
X170557007Y-106965925D01*
X170684174Y-107000000D01*
X170815826Y-107000000D01*
X170942993Y-106965925D01*
X171000000Y-106933012D01*
X171000000Y-107977230D01*
X171066126Y-107966757D01*
X171066129Y-107966757D01*
X171268217Y-107901095D01*
X171457557Y-107804620D01*
X171629458Y-107679728D01*
X171768330Y-107540856D01*
X171829653Y-107507371D01*
X171899345Y-107512355D01*
X171955279Y-107554226D01*
X171961551Y-107563440D01*
X171965185Y-107569331D01*
X171965186Y-107569334D01*
X172057288Y-107718656D01*
X172181344Y-107842712D01*
X172330666Y-107934814D01*
X172497203Y-107989999D01*
X172599991Y-108000500D01*
X173900008Y-108000499D01*
X174002797Y-107989999D01*
X174169334Y-107934814D01*
X174318656Y-107842712D01*
X174442712Y-107718656D01*
X174534814Y-107569334D01*
X174589999Y-107402797D01*
X174600500Y-107300009D01*
X174600499Y-105699992D01*
X174589999Y-105597203D01*
X174534814Y-105430666D01*
X174528946Y-105421153D01*
X183499500Y-105421153D01*
X183499500Y-105578846D01*
X183530261Y-105733489D01*
X183530264Y-105733501D01*
X183590602Y-105879172D01*
X183590609Y-105879185D01*
X183678210Y-106010288D01*
X183678213Y-106010292D01*
X183789707Y-106121786D01*
X183789711Y-106121789D01*
X183920814Y-106209390D01*
X183920827Y-106209397D01*
X184018853Y-106250000D01*
X184066503Y-106269737D01*
X184221153Y-106300499D01*
X184221156Y-106300500D01*
X184221158Y-106300500D01*
X184378844Y-106300500D01*
X184378845Y-106300499D01*
X184533497Y-106269737D01*
X184679179Y-106209394D01*
X184810289Y-106121789D01*
X184921789Y-106010289D01*
X185009394Y-105879179D01*
X185069737Y-105733497D01*
X185100500Y-105578842D01*
X185100500Y-105421158D01*
X185100500Y-105421155D01*
X185100499Y-105421153D01*
X185072689Y-105281344D01*
X185069737Y-105266503D01*
X185040277Y-105195379D01*
X185009397Y-105120827D01*
X185009390Y-105120814D01*
X184921789Y-104989711D01*
X184921786Y-104989707D01*
X184810292Y-104878213D01*
X184810288Y-104878210D01*
X184679185Y-104790609D01*
X184679172Y-104790602D01*
X184533501Y-104730264D01*
X184533489Y-104730261D01*
X184378845Y-104699500D01*
X184378842Y-104699500D01*
X184221158Y-104699500D01*
X184221155Y-104699500D01*
X184066510Y-104730261D01*
X184066498Y-104730264D01*
X183920827Y-104790602D01*
X183920814Y-104790609D01*
X183789711Y-104878210D01*
X183789707Y-104878213D01*
X183678213Y-104989707D01*
X183678210Y-104989711D01*
X183590609Y-105120814D01*
X183590602Y-105120827D01*
X183530264Y-105266498D01*
X183530261Y-105266510D01*
X183499500Y-105421153D01*
X174528946Y-105421153D01*
X174442712Y-105281344D01*
X174318656Y-105157288D01*
X174169334Y-105065186D01*
X174002797Y-105010001D01*
X174002795Y-105010000D01*
X173900010Y-104999500D01*
X172599998Y-104999500D01*
X172599981Y-104999501D01*
X172497203Y-105010000D01*
X172497200Y-105010001D01*
X172330668Y-105065185D01*
X172330663Y-105065187D01*
X172181342Y-105157289D01*
X172057289Y-105281342D01*
X171961551Y-105436559D01*
X171909603Y-105483283D01*
X171840640Y-105494506D01*
X171776558Y-105466662D01*
X171768331Y-105459143D01*
X171629464Y-105320276D01*
X171629459Y-105320272D01*
X171457557Y-105195379D01*
X171268215Y-105098903D01*
X171066124Y-105033241D01*
X171000000Y-105022768D01*
X171000000Y-106066988D01*
X170942993Y-106034075D01*
X170815826Y-106000000D01*
X170684174Y-106000000D01*
X170557007Y-106034075D01*
X170500000Y-106066988D01*
X170500000Y-105022768D01*
X170499999Y-105022768D01*
X170433875Y-105033241D01*
X170231784Y-105098903D01*
X170042442Y-105195379D01*
X169870540Y-105320272D01*
X169870535Y-105320276D01*
X169720276Y-105470535D01*
X169720272Y-105470540D01*
X169595379Y-105642442D01*
X169498904Y-105831782D01*
X169433242Y-106033869D01*
X169433242Y-106033872D01*
X169400000Y-106243753D01*
X166087490Y-106243753D01*
X166100500Y-106161611D01*
X166100500Y-105438389D01*
X166073402Y-105267299D01*
X166019873Y-105102555D01*
X165941232Y-104948212D01*
X165839414Y-104808072D01*
X165716928Y-104685586D01*
X165576788Y-104583768D01*
X165422445Y-104505127D01*
X165257701Y-104451598D01*
X165257699Y-104451597D01*
X165257698Y-104451597D01*
X165126271Y-104430781D01*
X165086611Y-104424500D01*
X164913389Y-104424500D01*
X164873728Y-104430781D01*
X164742302Y-104451597D01*
X164577552Y-104505128D01*
X164423211Y-104583768D01*
X164349682Y-104637191D01*
X164283072Y-104685586D01*
X164283070Y-104685588D01*
X164283069Y-104685588D01*
X164160588Y-104808069D01*
X164160581Y-104808078D01*
X164100317Y-104891023D01*
X164044987Y-104933689D01*
X163975374Y-104939667D01*
X163913579Y-104907061D01*
X163899683Y-104891023D01*
X163839418Y-104808078D01*
X163839414Y-104808072D01*
X163716928Y-104685586D01*
X163576788Y-104583768D01*
X163422445Y-104505127D01*
X163257701Y-104451598D01*
X163257699Y-104451597D01*
X163257698Y-104451597D01*
X163126271Y-104430781D01*
X163086611Y-104424500D01*
X162913389Y-104424500D01*
X162873728Y-104430781D01*
X162742302Y-104451597D01*
X162577552Y-104505128D01*
X162423211Y-104583768D01*
X162349682Y-104637191D01*
X162283072Y-104685586D01*
X162283070Y-104685588D01*
X162283069Y-104685588D01*
X162160588Y-104808069D01*
X162160581Y-104808078D01*
X162100317Y-104891023D01*
X162044987Y-104933689D01*
X161975374Y-104939667D01*
X161913579Y-104907061D01*
X161899683Y-104891023D01*
X161839418Y-104808078D01*
X161839414Y-104808072D01*
X161716928Y-104685586D01*
X161576788Y-104583768D01*
X161422445Y-104505127D01*
X161257701Y-104451598D01*
X161257699Y-104451597D01*
X161257698Y-104451597D01*
X161126271Y-104430781D01*
X161086611Y-104424500D01*
X160913389Y-104424500D01*
X160873728Y-104430781D01*
X160742302Y-104451597D01*
X160577552Y-104505128D01*
X160423211Y-104583768D01*
X160349682Y-104637191D01*
X160283072Y-104685586D01*
X160283070Y-104685588D01*
X160283069Y-104685588D01*
X160160588Y-104808069D01*
X160160581Y-104808078D01*
X160100317Y-104891023D01*
X160044987Y-104933689D01*
X159975374Y-104939667D01*
X159913579Y-104907061D01*
X159899683Y-104891023D01*
X159839418Y-104808078D01*
X159839414Y-104808072D01*
X159716928Y-104685586D01*
X159576788Y-104583768D01*
X159422445Y-104505127D01*
X159257701Y-104451598D01*
X159257699Y-104451597D01*
X159257698Y-104451597D01*
X159126271Y-104430781D01*
X159086611Y-104424500D01*
X158913389Y-104424500D01*
X158873728Y-104430781D01*
X158742302Y-104451597D01*
X158577552Y-104505128D01*
X158423211Y-104583768D01*
X158349682Y-104637191D01*
X158283072Y-104685586D01*
X158283070Y-104685588D01*
X158283069Y-104685588D01*
X158160588Y-104808069D01*
X158160581Y-104808078D01*
X158100317Y-104891023D01*
X158044987Y-104933689D01*
X157975374Y-104939667D01*
X157913579Y-104907061D01*
X157899683Y-104891023D01*
X157839418Y-104808078D01*
X157839414Y-104808072D01*
X157716928Y-104685586D01*
X157576788Y-104583768D01*
X157422445Y-104505127D01*
X157257701Y-104451598D01*
X157257699Y-104451597D01*
X157257698Y-104451597D01*
X157126271Y-104430781D01*
X157086611Y-104424500D01*
X156913389Y-104424500D01*
X156873728Y-104430781D01*
X156742302Y-104451597D01*
X156577552Y-104505128D01*
X156423211Y-104583768D01*
X156283073Y-104685585D01*
X156175530Y-104793128D01*
X156114207Y-104826612D01*
X156044515Y-104821628D01*
X155988582Y-104779756D01*
X155982310Y-104770543D01*
X155942712Y-104706344D01*
X155818656Y-104582288D01*
X155693559Y-104505128D01*
X155669336Y-104490187D01*
X155669331Y-104490185D01*
X155667862Y-104489698D01*
X155502797Y-104435001D01*
X155502795Y-104435000D01*
X155400010Y-104424500D01*
X154599998Y-104424500D01*
X154599980Y-104424501D01*
X154497203Y-104435000D01*
X154497200Y-104435001D01*
X154330668Y-104490185D01*
X154330663Y-104490187D01*
X154181342Y-104582289D01*
X154057289Y-104706342D01*
X153965187Y-104855663D01*
X153965185Y-104855668D01*
X153939332Y-104933689D01*
X153910001Y-105022203D01*
X153910001Y-105022204D01*
X153910000Y-105022204D01*
X153899500Y-105124983D01*
X145961132Y-105124983D01*
X145982092Y-105074382D01*
X146017163Y-104989711D01*
X146019737Y-104983497D01*
X146050500Y-104828842D01*
X146050500Y-104671158D01*
X146050500Y-104671155D01*
X146050499Y-104671153D01*
X146043743Y-104637191D01*
X146019737Y-104516503D01*
X145992853Y-104451598D01*
X145959397Y-104370827D01*
X145959390Y-104370814D01*
X145871789Y-104239711D01*
X145871786Y-104239707D01*
X145760292Y-104128213D01*
X145760288Y-104128210D01*
X145629185Y-104040609D01*
X145629172Y-104040602D01*
X145483501Y-103980264D01*
X145483489Y-103980261D01*
X145328845Y-103949500D01*
X145328842Y-103949500D01*
X145171158Y-103949500D01*
X145171155Y-103949500D01*
X145016510Y-103980261D01*
X145016498Y-103980264D01*
X144870827Y-104040602D01*
X144870814Y-104040609D01*
X144739711Y-104128210D01*
X144739707Y-104128213D01*
X144628213Y-104239707D01*
X144628210Y-104239711D01*
X144540609Y-104370814D01*
X144540602Y-104370827D01*
X144480264Y-104516498D01*
X144480261Y-104516510D01*
X144449500Y-104671153D01*
X137495779Y-104671153D01*
X137477218Y-104618110D01*
X137461536Y-104573292D01*
X137305566Y-104249418D01*
X137114315Y-103945044D01*
X136890188Y-103663997D01*
X136636003Y-103409812D01*
X136354956Y-103185685D01*
X136075815Y-103010289D01*
X136050579Y-102994432D01*
X135726711Y-102838465D01*
X135387419Y-102719741D01*
X135387407Y-102719737D01*
X135036951Y-102639748D01*
X135036935Y-102639746D01*
X134679740Y-102599500D01*
X134679736Y-102599500D01*
X134320264Y-102599500D01*
X134320259Y-102599500D01*
X133963064Y-102639746D01*
X133963048Y-102639748D01*
X133612592Y-102719737D01*
X133612580Y-102719741D01*
X133273288Y-102838465D01*
X132949420Y-102994432D01*
X132645045Y-103185684D01*
X132363997Y-103409811D01*
X132109811Y-103663997D01*
X131885684Y-103945045D01*
X131694432Y-104249420D01*
X131536954Y-104576427D01*
X131535814Y-104575878D01*
X131495219Y-104626254D01*
X131428925Y-104648318D01*
X131361226Y-104631038D01*
X131313616Y-104579901D01*
X131300500Y-104524397D01*
X131300500Y-102421153D01*
X138699500Y-102421153D01*
X138699500Y-102578846D01*
X138730261Y-102733489D01*
X138730264Y-102733501D01*
X138790602Y-102879172D01*
X138790609Y-102879185D01*
X138878210Y-103010288D01*
X138878213Y-103010292D01*
X138989707Y-103121786D01*
X138989711Y-103121789D01*
X139120814Y-103209390D01*
X139120827Y-103209397D01*
X139266498Y-103269735D01*
X139266503Y-103269737D01*
X139421153Y-103300499D01*
X139421156Y-103300500D01*
X139421158Y-103300500D01*
X139578844Y-103300500D01*
X139578845Y-103300499D01*
X139733497Y-103269737D01*
X139879179Y-103209394D01*
X140010289Y-103121789D01*
X140121789Y-103010289D01*
X140209394Y-102879179D01*
X140269737Y-102733497D01*
X140300500Y-102578842D01*
X140300500Y-102421158D01*
X140300500Y-102421155D01*
X140300499Y-102421153D01*
X144199500Y-102421153D01*
X144199500Y-102578846D01*
X144230261Y-102733489D01*
X144230264Y-102733501D01*
X144290602Y-102879172D01*
X144290609Y-102879185D01*
X144378210Y-103010288D01*
X144378213Y-103010292D01*
X144489707Y-103121786D01*
X144489711Y-103121789D01*
X144620814Y-103209390D01*
X144620827Y-103209397D01*
X144766498Y-103269735D01*
X144766503Y-103269737D01*
X144921153Y-103300499D01*
X144921156Y-103300500D01*
X144921158Y-103300500D01*
X145078844Y-103300500D01*
X145078845Y-103300499D01*
X145233497Y-103269737D01*
X145379179Y-103209394D01*
X145510289Y-103121789D01*
X145621789Y-103010289D01*
X145709394Y-102879179D01*
X145769737Y-102733497D01*
X145800500Y-102578842D01*
X145800500Y-102421158D01*
X145800500Y-102421155D01*
X145800499Y-102421153D01*
X145797399Y-102405567D01*
X145769737Y-102266503D01*
X145755956Y-102233232D01*
X145709397Y-102120827D01*
X145709390Y-102120814D01*
X145621789Y-101989711D01*
X145621786Y-101989707D01*
X145510292Y-101878213D01*
X145510288Y-101878210D01*
X145379185Y-101790609D01*
X145379172Y-101790602D01*
X145233501Y-101730264D01*
X145233489Y-101730261D01*
X145078845Y-101699500D01*
X145078842Y-101699500D01*
X144921158Y-101699500D01*
X144921155Y-101699500D01*
X144766510Y-101730261D01*
X144766498Y-101730264D01*
X144620827Y-101790602D01*
X144620814Y-101790609D01*
X144489711Y-101878210D01*
X144489707Y-101878213D01*
X144378213Y-101989707D01*
X144378210Y-101989711D01*
X144290609Y-102120814D01*
X144290602Y-102120827D01*
X144230264Y-102266498D01*
X144230261Y-102266510D01*
X144199500Y-102421153D01*
X140300499Y-102421153D01*
X140297399Y-102405567D01*
X140269737Y-102266503D01*
X140255956Y-102233232D01*
X140209397Y-102120827D01*
X140209390Y-102120814D01*
X140121789Y-101989711D01*
X140121786Y-101989707D01*
X140010292Y-101878213D01*
X140010288Y-101878210D01*
X139879185Y-101790609D01*
X139879172Y-101790602D01*
X139733501Y-101730264D01*
X139733489Y-101730261D01*
X139578845Y-101699500D01*
X139578842Y-101699500D01*
X139421158Y-101699500D01*
X139421155Y-101699500D01*
X139266510Y-101730261D01*
X139266498Y-101730264D01*
X139120827Y-101790602D01*
X139120814Y-101790609D01*
X138989711Y-101878210D01*
X138989707Y-101878213D01*
X138878213Y-101989707D01*
X138878210Y-101989711D01*
X138790609Y-102120814D01*
X138790602Y-102120827D01*
X138730264Y-102266498D01*
X138730261Y-102266510D01*
X138699500Y-102421153D01*
X131300500Y-102421153D01*
X131300500Y-98421153D01*
X139699500Y-98421153D01*
X139699500Y-98578846D01*
X139730261Y-98733489D01*
X139730264Y-98733501D01*
X139790602Y-98879172D01*
X139790609Y-98879185D01*
X139878210Y-99010288D01*
X139878213Y-99010292D01*
X139989707Y-99121786D01*
X139989711Y-99121789D01*
X140120814Y-99209390D01*
X140120827Y-99209397D01*
X140266498Y-99269735D01*
X140266503Y-99269737D01*
X140421153Y-99300499D01*
X140421156Y-99300500D01*
X140421158Y-99300500D01*
X140578844Y-99300500D01*
X140578845Y-99300499D01*
X140733497Y-99269737D01*
X140879179Y-99209394D01*
X141010289Y-99121789D01*
X141121789Y-99010289D01*
X141209394Y-98879179D01*
X141269737Y-98733497D01*
X141300500Y-98578842D01*
X141300500Y-98421158D01*
X141300500Y-98421155D01*
X141300499Y-98421153D01*
X141278447Y-98310292D01*
X141269737Y-98266503D01*
X141242199Y-98200019D01*
X141209397Y-98120827D01*
X141209390Y-98120814D01*
X141121789Y-97989711D01*
X141121786Y-97989707D01*
X141010292Y-97878213D01*
X141010288Y-97878210D01*
X140879185Y-97790609D01*
X140879172Y-97790602D01*
X140733501Y-97730264D01*
X140733489Y-97730261D01*
X140578845Y-97699500D01*
X140578842Y-97699500D01*
X140421158Y-97699500D01*
X140421155Y-97699500D01*
X140266510Y-97730261D01*
X140266498Y-97730264D01*
X140120827Y-97790602D01*
X140120814Y-97790609D01*
X139989711Y-97878210D01*
X139989707Y-97878213D01*
X139878213Y-97989707D01*
X139878210Y-97989711D01*
X139790609Y-98120814D01*
X139790602Y-98120827D01*
X139730264Y-98266498D01*
X139730261Y-98266510D01*
X139699500Y-98421153D01*
X131300500Y-98421153D01*
X131300500Y-90849983D01*
X133874500Y-90849983D01*
X133874500Y-91650001D01*
X133874501Y-91650019D01*
X133885000Y-91752796D01*
X133885001Y-91752799D01*
X133929342Y-91886610D01*
X133940186Y-91919334D01*
X134032288Y-92068656D01*
X134156344Y-92192712D01*
X134220543Y-92232310D01*
X134267268Y-92284258D01*
X134278489Y-92353221D01*
X134250646Y-92417303D01*
X134243128Y-92425530D01*
X134135585Y-92533073D01*
X134033768Y-92673211D01*
X133955128Y-92827552D01*
X133901597Y-92992302D01*
X133874500Y-93163389D01*
X133874500Y-93336610D01*
X133892967Y-93453211D01*
X133901598Y-93507701D01*
X133955127Y-93672445D01*
X134033768Y-93826788D01*
X134135586Y-93966928D01*
X134258072Y-94089414D01*
X134258078Y-94089418D01*
X134341023Y-94149683D01*
X134383689Y-94205013D01*
X134389667Y-94274626D01*
X134357061Y-94336421D01*
X134341023Y-94350317D01*
X134258078Y-94410581D01*
X134258069Y-94410588D01*
X134135588Y-94533069D01*
X134135588Y-94533070D01*
X134135586Y-94533072D01*
X134125620Y-94546789D01*
X134033768Y-94673211D01*
X133955128Y-94827552D01*
X133901597Y-94992302D01*
X133887890Y-95078846D01*
X133874500Y-95163389D01*
X133874500Y-95336611D01*
X133901598Y-95507701D01*
X133947798Y-95649890D01*
X133955128Y-95672447D01*
X133996603Y-95753846D01*
X134033768Y-95826788D01*
X134135586Y-95966928D01*
X134258072Y-96089414D01*
X134258481Y-96089711D01*
X134341023Y-96149683D01*
X134383689Y-96205013D01*
X134389667Y-96274626D01*
X134357061Y-96336421D01*
X134341023Y-96350317D01*
X134258078Y-96410581D01*
X134258069Y-96410588D01*
X134135588Y-96533069D01*
X134135588Y-96533070D01*
X134135586Y-96533072D01*
X134111949Y-96565606D01*
X134033768Y-96673211D01*
X133955128Y-96827552D01*
X133901597Y-96992302D01*
X133890829Y-97060289D01*
X133874500Y-97163389D01*
X133874500Y-97336611D01*
X133877230Y-97353846D01*
X133900539Y-97501018D01*
X133901598Y-97507701D01*
X133955127Y-97672445D01*
X134033768Y-97826788D01*
X134135586Y-97966928D01*
X134258072Y-98089414D01*
X134398212Y-98191232D01*
X134552555Y-98269873D01*
X134717299Y-98323402D01*
X134888389Y-98350500D01*
X134888390Y-98350500D01*
X135611610Y-98350500D01*
X135611611Y-98350500D01*
X135782701Y-98323402D01*
X135947445Y-98269873D01*
X136101788Y-98191232D01*
X136241928Y-98089414D01*
X136364414Y-97966928D01*
X136466232Y-97826788D01*
X136544873Y-97672445D01*
X136598402Y-97507701D01*
X136625500Y-97336611D01*
X136625500Y-97163389D01*
X136598402Y-96992299D01*
X136544873Y-96827555D01*
X136466232Y-96673212D01*
X136364414Y-96533072D01*
X136252495Y-96421153D01*
X143899500Y-96421153D01*
X143899500Y-96578846D01*
X143930261Y-96733489D01*
X143930264Y-96733501D01*
X143990602Y-96879172D01*
X143990609Y-96879185D01*
X144078210Y-97010288D01*
X144078213Y-97010292D01*
X144189707Y-97121786D01*
X144189711Y-97121789D01*
X144320814Y-97209390D01*
X144320827Y-97209397D01*
X144447085Y-97261694D01*
X144466503Y-97269737D01*
X144604568Y-97297200D01*
X144621153Y-97300499D01*
X144621156Y-97300500D01*
X144621158Y-97300500D01*
X144778844Y-97300500D01*
X144778845Y-97300499D01*
X144933497Y-97269737D01*
X145079179Y-97209394D01*
X145210289Y-97121789D01*
X145321789Y-97010289D01*
X145409394Y-96879179D01*
X145418462Y-96857288D01*
X145449030Y-96783489D01*
X145469737Y-96733497D01*
X145500500Y-96578842D01*
X145500500Y-96421158D01*
X145500500Y-96421155D01*
X145500499Y-96421153D01*
X145491674Y-96376788D01*
X145469737Y-96266503D01*
X145436099Y-96185292D01*
X145409397Y-96120827D01*
X145409390Y-96120814D01*
X145321789Y-95989711D01*
X145321786Y-95989707D01*
X145210292Y-95878213D01*
X145210288Y-95878210D01*
X145079185Y-95790609D01*
X145079172Y-95790602D01*
X144933501Y-95730264D01*
X144933489Y-95730261D01*
X144778845Y-95699500D01*
X144778842Y-95699500D01*
X144621158Y-95699500D01*
X144621155Y-95699500D01*
X144466510Y-95730261D01*
X144466498Y-95730264D01*
X144320827Y-95790602D01*
X144320814Y-95790609D01*
X144189711Y-95878210D01*
X144189707Y-95878213D01*
X144078213Y-95989707D01*
X144078210Y-95989711D01*
X143990609Y-96120814D01*
X143990602Y-96120827D01*
X143930264Y-96266498D01*
X143930261Y-96266510D01*
X143899500Y-96421153D01*
X136252495Y-96421153D01*
X136241928Y-96410586D01*
X136158975Y-96350317D01*
X136116311Y-96294988D01*
X136110332Y-96225374D01*
X136142938Y-96163579D01*
X136158976Y-96149682D01*
X136241928Y-96089414D01*
X136364414Y-95966928D01*
X136466232Y-95826788D01*
X136544873Y-95672445D01*
X136598402Y-95507701D01*
X136625500Y-95336611D01*
X136625500Y-95163389D01*
X136598402Y-94992299D01*
X136544873Y-94827555D01*
X136466232Y-94673212D01*
X136373918Y-94546153D01*
X144715038Y-94546153D01*
X144715038Y-94703846D01*
X144745799Y-94858489D01*
X144745802Y-94858501D01*
X144806140Y-95004172D01*
X144806147Y-95004185D01*
X144893748Y-95135288D01*
X144893751Y-95135292D01*
X145005245Y-95246786D01*
X145005249Y-95246789D01*
X145136352Y-95334390D01*
X145136365Y-95334397D01*
X145282036Y-95394735D01*
X145282041Y-95394737D01*
X145436691Y-95425499D01*
X145436694Y-95425500D01*
X145436696Y-95425500D01*
X145594382Y-95425500D01*
X145594383Y-95425499D01*
X145749035Y-95394737D01*
X145894717Y-95334394D01*
X146025827Y-95246789D01*
X146137327Y-95135289D01*
X146224932Y-95004179D01*
X146285275Y-94858497D01*
X146291906Y-94825156D01*
X146324289Y-94763248D01*
X146385003Y-94728672D01*
X146415066Y-94726656D01*
X146415066Y-94725500D01*
X146578844Y-94725500D01*
X146578845Y-94725499D01*
X146733497Y-94694737D01*
X146879179Y-94634394D01*
X147010289Y-94546789D01*
X147121789Y-94435289D01*
X147209394Y-94304179D01*
X147269737Y-94158497D01*
X147300500Y-94003842D01*
X147300500Y-93846158D01*
X147300500Y-93846155D01*
X147300499Y-93846153D01*
X147295561Y-93821328D01*
X147269737Y-93691503D01*
X147245712Y-93633501D01*
X147209397Y-93545827D01*
X147209390Y-93545814D01*
X147121789Y-93414711D01*
X147121786Y-93414707D01*
X147010292Y-93303213D01*
X147010288Y-93303210D01*
X146879185Y-93215609D01*
X146879172Y-93215602D01*
X146733501Y-93155264D01*
X146733489Y-93155261D01*
X146578845Y-93124500D01*
X146578842Y-93124500D01*
X146421158Y-93124500D01*
X146421155Y-93124500D01*
X146266510Y-93155261D01*
X146266498Y-93155264D01*
X146120827Y-93215602D01*
X146120814Y-93215609D01*
X145989711Y-93303210D01*
X145989707Y-93303213D01*
X145878213Y-93414707D01*
X145878210Y-93414711D01*
X145790609Y-93545814D01*
X145790602Y-93545827D01*
X145730264Y-93691498D01*
X145730262Y-93691505D01*
X145723630Y-93724845D01*
X145691243Y-93786755D01*
X145630527Y-93821328D01*
X145600472Y-93823350D01*
X145600472Y-93824500D01*
X145436693Y-93824500D01*
X145282048Y-93855261D01*
X145282036Y-93855264D01*
X145136365Y-93915602D01*
X145136352Y-93915609D01*
X145005249Y-94003210D01*
X145005245Y-94003213D01*
X144893751Y-94114707D01*
X144893748Y-94114711D01*
X144806147Y-94245814D01*
X144806140Y-94245827D01*
X144745802Y-94391498D01*
X144745799Y-94391510D01*
X144715038Y-94546153D01*
X136373918Y-94546153D01*
X136364414Y-94533072D01*
X136241928Y-94410586D01*
X136158975Y-94350317D01*
X136116311Y-94294988D01*
X136110332Y-94225374D01*
X136142938Y-94163579D01*
X136158976Y-94149682D01*
X136241928Y-94089414D01*
X136364414Y-93966928D01*
X136466232Y-93826788D01*
X136544873Y-93672445D01*
X136598402Y-93507701D01*
X136625500Y-93336611D01*
X136625500Y-93163389D01*
X136598402Y-92992299D01*
X136544873Y-92827555D01*
X136466232Y-92673212D01*
X136364414Y-92533072D01*
X136256872Y-92425530D01*
X136254482Y-92421153D01*
X139699500Y-92421153D01*
X139699500Y-92578846D01*
X139730261Y-92733489D01*
X139730264Y-92733501D01*
X139790602Y-92879172D01*
X139790609Y-92879185D01*
X139878210Y-93010288D01*
X139878213Y-93010292D01*
X139989707Y-93121786D01*
X139989711Y-93121789D01*
X140120814Y-93209390D01*
X140120827Y-93209397D01*
X140266498Y-93269735D01*
X140266503Y-93269737D01*
X140421153Y-93300499D01*
X140421156Y-93300500D01*
X140421158Y-93300500D01*
X140578844Y-93300500D01*
X140578845Y-93300499D01*
X140733497Y-93269737D01*
X140864182Y-93215606D01*
X140879172Y-93209397D01*
X140879172Y-93209396D01*
X140879179Y-93209394D01*
X141010289Y-93121789D01*
X141121789Y-93010289D01*
X141209394Y-92879179D01*
X141269737Y-92733497D01*
X141300500Y-92578842D01*
X141300500Y-92421158D01*
X141300500Y-92421155D01*
X141300499Y-92421153D01*
X143699500Y-92421153D01*
X143699500Y-92578846D01*
X143730261Y-92733489D01*
X143730264Y-92733501D01*
X143790602Y-92879172D01*
X143790609Y-92879185D01*
X143878210Y-93010288D01*
X143878213Y-93010292D01*
X143989707Y-93121786D01*
X143989711Y-93121789D01*
X144120814Y-93209390D01*
X144120827Y-93209397D01*
X144266498Y-93269735D01*
X144266503Y-93269737D01*
X144421153Y-93300499D01*
X144421156Y-93300500D01*
X144421158Y-93300500D01*
X144578844Y-93300500D01*
X144578845Y-93300499D01*
X144733497Y-93269737D01*
X144864182Y-93215606D01*
X144879172Y-93209397D01*
X144879172Y-93209396D01*
X144879179Y-93209394D01*
X145010289Y-93121789D01*
X145121789Y-93010289D01*
X145209394Y-92879179D01*
X145269737Y-92733497D01*
X145300500Y-92578842D01*
X145300500Y-92421158D01*
X145300500Y-92421155D01*
X145300499Y-92421153D01*
X145295527Y-92396158D01*
X145269737Y-92266503D01*
X145233569Y-92179185D01*
X145209397Y-92120827D01*
X145209390Y-92120814D01*
X145121789Y-91989711D01*
X145121786Y-91989707D01*
X145010292Y-91878213D01*
X145010288Y-91878210D01*
X144879185Y-91790609D01*
X144879172Y-91790602D01*
X144733501Y-91730264D01*
X144733489Y-91730261D01*
X144578845Y-91699500D01*
X144578842Y-91699500D01*
X144421158Y-91699500D01*
X144421155Y-91699500D01*
X144266510Y-91730261D01*
X144266498Y-91730264D01*
X144120827Y-91790602D01*
X144120814Y-91790609D01*
X143989711Y-91878210D01*
X143989707Y-91878213D01*
X143878213Y-91989707D01*
X143878210Y-91989711D01*
X143790609Y-92120814D01*
X143790602Y-92120827D01*
X143730264Y-92266498D01*
X143730261Y-92266510D01*
X143699500Y-92421153D01*
X141300499Y-92421153D01*
X141295527Y-92396158D01*
X141269737Y-92266503D01*
X141233569Y-92179185D01*
X141209397Y-92120827D01*
X141209390Y-92120814D01*
X141121789Y-91989711D01*
X141121786Y-91989707D01*
X141010292Y-91878213D01*
X141010288Y-91878210D01*
X140879185Y-91790609D01*
X140879172Y-91790602D01*
X140733501Y-91730264D01*
X140733489Y-91730261D01*
X140578845Y-91699500D01*
X140578842Y-91699500D01*
X140421158Y-91699500D01*
X140421155Y-91699500D01*
X140266510Y-91730261D01*
X140266498Y-91730264D01*
X140120827Y-91790602D01*
X140120814Y-91790609D01*
X139989711Y-91878210D01*
X139989707Y-91878213D01*
X139878213Y-91989707D01*
X139878210Y-91989711D01*
X139790609Y-92120814D01*
X139790602Y-92120827D01*
X139730264Y-92266498D01*
X139730261Y-92266510D01*
X139699500Y-92421153D01*
X136254482Y-92421153D01*
X136223387Y-92364207D01*
X136228371Y-92294515D01*
X136270243Y-92238582D01*
X136279457Y-92232310D01*
X136343656Y-92192712D01*
X136467712Y-92068656D01*
X136559814Y-91919334D01*
X136614999Y-91752797D01*
X136625500Y-91650009D01*
X136625499Y-90849992D01*
X136614999Y-90747203D01*
X136559814Y-90580666D01*
X136467712Y-90431344D01*
X136343656Y-90307288D01*
X136194334Y-90215186D01*
X136027797Y-90160001D01*
X136027795Y-90160000D01*
X135925010Y-90149500D01*
X134574998Y-90149500D01*
X134574981Y-90149501D01*
X134472203Y-90160000D01*
X134472200Y-90160001D01*
X134305668Y-90215185D01*
X134305663Y-90215187D01*
X134156342Y-90307289D01*
X134032289Y-90431342D01*
X133940187Y-90580663D01*
X133940186Y-90580666D01*
X133885001Y-90747203D01*
X133885001Y-90747204D01*
X133885000Y-90747204D01*
X133874500Y-90849983D01*
X131300500Y-90849983D01*
X131300500Y-87629500D01*
X131320185Y-87562461D01*
X131372989Y-87516706D01*
X131424500Y-87505500D01*
X150370500Y-87505500D01*
X150437539Y-87525185D01*
X150483294Y-87577989D01*
X150494500Y-87629500D01*
X150494500Y-90908011D01*
X150474815Y-90975050D01*
X150422011Y-91020805D01*
X150394696Y-91029627D01*
X150391512Y-91030260D01*
X150391498Y-91030264D01*
X150245827Y-91090602D01*
X150245814Y-91090609D01*
X150114711Y-91178210D01*
X150114707Y-91178213D01*
X150003213Y-91289707D01*
X150003210Y-91289711D01*
X149915609Y-91420814D01*
X149915602Y-91420827D01*
X149855264Y-91566498D01*
X149855261Y-91566510D01*
X149824500Y-91721153D01*
X149824500Y-91878846D01*
X149855261Y-92033489D01*
X149855264Y-92033501D01*
X149915602Y-92179172D01*
X149915609Y-92179185D01*
X150003210Y-92310288D01*
X150003213Y-92310292D01*
X150114707Y-92421786D01*
X150114711Y-92421789D01*
X150227118Y-92496898D01*
X150271923Y-92550510D01*
X150280630Y-92619835D01*
X150250475Y-92682863D01*
X150227118Y-92703102D01*
X150114711Y-92778210D01*
X150114707Y-92778213D01*
X150003213Y-92889707D01*
X150003210Y-92889711D01*
X149915609Y-93020814D01*
X149915602Y-93020827D01*
X149855264Y-93166498D01*
X149855261Y-93166510D01*
X149824500Y-93321153D01*
X149824500Y-93478846D01*
X149855261Y-93633489D01*
X149855264Y-93633501D01*
X149915602Y-93779172D01*
X149915609Y-93779185D01*
X150003210Y-93910288D01*
X150003213Y-93910292D01*
X150114707Y-94021786D01*
X150114711Y-94021789D01*
X150227118Y-94096898D01*
X150271923Y-94150510D01*
X150280630Y-94219835D01*
X150250475Y-94282863D01*
X150227118Y-94303102D01*
X150114711Y-94378210D01*
X150114707Y-94378213D01*
X150003213Y-94489707D01*
X150003210Y-94489711D01*
X149915609Y-94620814D01*
X149915602Y-94620827D01*
X149855264Y-94766498D01*
X149855261Y-94766510D01*
X149824500Y-94921153D01*
X149824500Y-95078846D01*
X149855261Y-95233489D01*
X149855264Y-95233501D01*
X149915602Y-95379172D01*
X149915609Y-95379185D01*
X150003210Y-95510288D01*
X150003213Y-95510292D01*
X150114707Y-95621786D01*
X150114711Y-95621789D01*
X150227118Y-95696898D01*
X150271923Y-95750510D01*
X150280630Y-95819835D01*
X150250475Y-95882863D01*
X150227118Y-95903102D01*
X150114711Y-95978210D01*
X150114707Y-95978213D01*
X150003213Y-96089707D01*
X150003210Y-96089711D01*
X149915609Y-96220814D01*
X149915602Y-96220827D01*
X149855264Y-96366498D01*
X149855261Y-96366510D01*
X149824500Y-96521153D01*
X149824500Y-96678846D01*
X149855261Y-96833489D01*
X149855264Y-96833501D01*
X149915602Y-96979172D01*
X149915609Y-96979185D01*
X149930662Y-97001713D01*
X149951540Y-97068391D01*
X149933055Y-97135771D01*
X149896458Y-97173702D01*
X149889709Y-97178211D01*
X149778213Y-97289707D01*
X149778210Y-97289711D01*
X149690609Y-97420814D01*
X149690602Y-97420827D01*
X149630264Y-97566498D01*
X149630261Y-97566510D01*
X149599500Y-97721153D01*
X149599500Y-97878846D01*
X149630261Y-98033489D01*
X149630264Y-98033501D01*
X149690602Y-98179172D01*
X149690609Y-98179185D01*
X149778210Y-98310288D01*
X149778213Y-98310292D01*
X149889707Y-98421786D01*
X149889711Y-98421789D01*
X150020814Y-98509390D01*
X150020827Y-98509397D01*
X150166498Y-98569735D01*
X150166503Y-98569737D01*
X150305498Y-98597385D01*
X150321153Y-98600499D01*
X150321156Y-98600500D01*
X150370500Y-98600500D01*
X150437539Y-98620185D01*
X150483294Y-98672989D01*
X150494500Y-98724500D01*
X150494500Y-100944187D01*
X150504210Y-101042793D01*
X150504210Y-101042798D01*
X150513649Y-101090251D01*
X150513651Y-101090259D01*
X150527433Y-101135694D01*
X150530389Y-101147494D01*
X150542617Y-101208963D01*
X150545000Y-101233156D01*
X150545000Y-101266840D01*
X150542617Y-101291034D01*
X150530387Y-101352511D01*
X150527432Y-101364309D01*
X150513652Y-101409738D01*
X150504211Y-101457202D01*
X150495959Y-101540991D01*
X150494500Y-101555811D01*
X150494500Y-101876000D01*
X150494501Y-101876009D01*
X150506052Y-101983450D01*
X150506054Y-101983462D01*
X150517260Y-102034972D01*
X150551383Y-102137497D01*
X150551386Y-102137503D01*
X150629171Y-102258537D01*
X150629179Y-102258548D01*
X150674923Y-102311340D01*
X150674926Y-102311343D01*
X150674930Y-102311347D01*
X150783664Y-102405567D01*
X150783667Y-102405568D01*
X150783668Y-102405569D01*
X150895729Y-102456747D01*
X150914541Y-102465338D01*
X150981580Y-102485023D01*
X150981584Y-102485024D01*
X151124000Y-102505500D01*
X151124003Y-102505500D01*
X176879933Y-102505500D01*
X176879935Y-102505500D01*
X176979404Y-102495617D01*
X177027252Y-102486014D01*
X177122842Y-102456747D01*
X177246326Y-102382902D01*
X177300578Y-102338873D01*
X177398255Y-102233232D01*
X177462214Y-102104349D01*
X177480896Y-102047563D01*
X177483409Y-102041603D01*
X177484050Y-102037979D01*
X177484051Y-102037978D01*
X177509108Y-101896296D01*
X177640159Y-97833698D01*
X177661995Y-97767329D01*
X177716247Y-97723300D01*
X177785690Y-97715592D01*
X177848277Y-97746651D01*
X177867197Y-97768806D01*
X177878210Y-97785288D01*
X177878213Y-97785292D01*
X177989707Y-97896786D01*
X177989711Y-97896789D01*
X178120814Y-97984390D01*
X178120827Y-97984397D01*
X178266498Y-98044735D01*
X178266503Y-98044737D01*
X178421153Y-98075499D01*
X178421156Y-98075500D01*
X178421158Y-98075500D01*
X178578844Y-98075500D01*
X178578845Y-98075499D01*
X178733497Y-98044737D01*
X178879179Y-97984394D01*
X178973826Y-97921153D01*
X187699500Y-97921153D01*
X187699500Y-98078846D01*
X187730261Y-98233489D01*
X187730264Y-98233501D01*
X187790602Y-98379172D01*
X187790609Y-98379185D01*
X187878210Y-98510288D01*
X187878213Y-98510292D01*
X187989707Y-98621786D01*
X187989711Y-98621789D01*
X188120814Y-98709390D01*
X188120827Y-98709397D01*
X188201258Y-98742712D01*
X188266503Y-98769737D01*
X188421153Y-98800499D01*
X188421156Y-98800500D01*
X188421158Y-98800500D01*
X188578844Y-98800500D01*
X188578845Y-98800499D01*
X188733497Y-98769737D01*
X188879179Y-98709394D01*
X189010289Y-98621789D01*
X189121789Y-98510289D01*
X189209394Y-98379179D01*
X189269737Y-98233497D01*
X189300500Y-98078842D01*
X189300500Y-97921158D01*
X189300500Y-97921155D01*
X189300499Y-97921153D01*
X189295652Y-97896786D01*
X189269737Y-97766503D01*
X189260457Y-97744098D01*
X189209397Y-97620827D01*
X189209390Y-97620814D01*
X189121789Y-97489711D01*
X189121786Y-97489707D01*
X189010292Y-97378213D01*
X189010288Y-97378210D01*
X188879185Y-97290609D01*
X188879172Y-97290602D01*
X188733501Y-97230264D01*
X188733489Y-97230261D01*
X188578845Y-97199500D01*
X188578842Y-97199500D01*
X188421158Y-97199500D01*
X188421155Y-97199500D01*
X188266510Y-97230261D01*
X188266498Y-97230264D01*
X188120827Y-97290602D01*
X188120814Y-97290609D01*
X187989711Y-97378210D01*
X187989707Y-97378213D01*
X187878213Y-97489707D01*
X187878210Y-97489711D01*
X187790609Y-97620814D01*
X187790602Y-97620827D01*
X187730264Y-97766498D01*
X187730261Y-97766510D01*
X187699500Y-97921153D01*
X178973826Y-97921153D01*
X179010289Y-97896789D01*
X179028868Y-97878210D01*
X179079694Y-97827385D01*
X179121786Y-97785292D01*
X179121789Y-97785289D01*
X179209394Y-97654179D01*
X179269737Y-97508497D01*
X179300500Y-97353842D01*
X179300500Y-97196158D01*
X179300500Y-97196155D01*
X179300499Y-97196153D01*
X179293982Y-97163389D01*
X179269737Y-97041503D01*
X179256808Y-97010289D01*
X179209397Y-96895827D01*
X179209390Y-96895814D01*
X179121789Y-96764711D01*
X179121786Y-96764707D01*
X179010292Y-96653213D01*
X179010288Y-96653210D01*
X178897881Y-96578102D01*
X178876846Y-96552932D01*
X178854915Y-96528518D01*
X178854547Y-96526250D01*
X178853076Y-96524490D01*
X178848987Y-96491939D01*
X178845619Y-96471153D01*
X182199500Y-96471153D01*
X182199500Y-96628846D01*
X182230261Y-96783489D01*
X182230264Y-96783501D01*
X182290602Y-96929172D01*
X182290609Y-96929185D01*
X182378210Y-97060288D01*
X182378213Y-97060292D01*
X182489707Y-97171786D01*
X182489711Y-97171789D01*
X182620814Y-97259390D01*
X182620827Y-97259397D01*
X182766498Y-97319735D01*
X182766503Y-97319737D01*
X182921153Y-97350499D01*
X182921156Y-97350500D01*
X182921158Y-97350500D01*
X183078844Y-97350500D01*
X183078845Y-97350499D01*
X183233497Y-97319737D01*
X183379179Y-97259394D01*
X183510289Y-97171789D01*
X183621789Y-97060289D01*
X183709394Y-96929179D01*
X183769737Y-96783497D01*
X183800500Y-96628842D01*
X183800500Y-96471158D01*
X183800500Y-96471155D01*
X183800499Y-96471153D01*
X183797319Y-96455165D01*
X183769737Y-96316503D01*
X183752391Y-96274626D01*
X183709397Y-96170827D01*
X183709390Y-96170814D01*
X183621789Y-96039711D01*
X183621786Y-96039707D01*
X183510292Y-95928213D01*
X183510288Y-95928210D01*
X183379185Y-95840609D01*
X183379172Y-95840602D01*
X183233501Y-95780264D01*
X183233489Y-95780261D01*
X183078845Y-95749500D01*
X183078842Y-95749500D01*
X182921158Y-95749500D01*
X182921155Y-95749500D01*
X182766510Y-95780261D01*
X182766498Y-95780264D01*
X182620827Y-95840602D01*
X182620814Y-95840609D01*
X182489711Y-95928210D01*
X182489707Y-95928213D01*
X182378213Y-96039707D01*
X182378210Y-96039711D01*
X182290609Y-96170814D01*
X182290602Y-96170827D01*
X182230264Y-96316498D01*
X182230261Y-96316510D01*
X182199500Y-96471153D01*
X178845619Y-96471153D01*
X178843739Y-96459548D01*
X178844655Y-96457443D01*
X178844369Y-96455165D01*
X178858534Y-96425555D01*
X178871624Y-96395484D01*
X178873899Y-96393439D01*
X178874523Y-96392137D01*
X178897878Y-96371899D01*
X179010289Y-96296789D01*
X179121789Y-96185289D01*
X179209394Y-96054179D01*
X179215389Y-96039707D01*
X179261571Y-95928211D01*
X179269737Y-95908497D01*
X179300500Y-95753842D01*
X179300500Y-95596158D01*
X179300500Y-95596155D01*
X179300499Y-95596153D01*
X179283419Y-95510288D01*
X179269737Y-95441503D01*
X179269735Y-95441498D01*
X179209397Y-95295827D01*
X179209390Y-95295814D01*
X179121789Y-95164711D01*
X179121786Y-95164707D01*
X179010292Y-95053213D01*
X179010288Y-95053210D01*
X178897881Y-94978102D01*
X178853076Y-94924490D01*
X178844369Y-94855165D01*
X178874523Y-94792137D01*
X178897881Y-94771898D01*
X178943775Y-94741232D01*
X179010289Y-94696789D01*
X179121789Y-94585289D01*
X179209394Y-94454179D01*
X179223074Y-94421153D01*
X182699500Y-94421153D01*
X182699500Y-94578846D01*
X182730261Y-94733489D01*
X182730264Y-94733501D01*
X182790602Y-94879172D01*
X182790609Y-94879185D01*
X182878210Y-95010288D01*
X182878213Y-95010292D01*
X182989707Y-95121786D01*
X182989711Y-95121789D01*
X183120814Y-95209390D01*
X183120827Y-95209397D01*
X183211101Y-95246789D01*
X183266503Y-95269737D01*
X183421153Y-95300499D01*
X183421156Y-95300500D01*
X183421158Y-95300500D01*
X183578844Y-95300500D01*
X183578845Y-95300499D01*
X183733497Y-95269737D01*
X183879179Y-95209394D01*
X184010289Y-95121789D01*
X184011186Y-95120891D01*
X184011773Y-95120571D01*
X184014999Y-95117924D01*
X184015500Y-95118535D01*
X184072504Y-95087402D01*
X184142196Y-95092380D01*
X184198134Y-95134246D01*
X184220491Y-95184374D01*
X184230261Y-95233491D01*
X184230264Y-95233501D01*
X184290602Y-95379172D01*
X184290609Y-95379185D01*
X184378210Y-95510288D01*
X184378213Y-95510292D01*
X184489707Y-95621786D01*
X184489711Y-95621789D01*
X184620814Y-95709390D01*
X184620827Y-95709397D01*
X184766498Y-95769735D01*
X184766503Y-95769737D01*
X184921153Y-95800499D01*
X184921156Y-95800500D01*
X184921158Y-95800500D01*
X185078844Y-95800500D01*
X185078845Y-95800499D01*
X185233497Y-95769737D01*
X185379179Y-95709394D01*
X185510289Y-95621789D01*
X185621789Y-95510289D01*
X185709394Y-95379179D01*
X185769737Y-95233497D01*
X185800500Y-95078842D01*
X185800500Y-94921158D01*
X185800500Y-94921155D01*
X185800499Y-94921153D01*
X185792148Y-94879172D01*
X185769737Y-94766503D01*
X185759696Y-94742261D01*
X185709397Y-94620827D01*
X185709390Y-94620814D01*
X185621789Y-94489711D01*
X185621786Y-94489707D01*
X185510292Y-94378213D01*
X185510288Y-94378210D01*
X185379185Y-94290609D01*
X185379172Y-94290602D01*
X185233501Y-94230264D01*
X185233489Y-94230261D01*
X185078845Y-94199500D01*
X185078842Y-94199500D01*
X184921158Y-94199500D01*
X184921155Y-94199500D01*
X184766510Y-94230261D01*
X184766498Y-94230264D01*
X184620827Y-94290602D01*
X184620814Y-94290609D01*
X184489711Y-94378210D01*
X184489708Y-94378212D01*
X184488798Y-94379123D01*
X184488204Y-94379446D01*
X184485001Y-94382076D01*
X184484502Y-94381468D01*
X184427471Y-94412602D01*
X184357780Y-94407611D01*
X184301851Y-94365734D01*
X184279508Y-94315624D01*
X184269738Y-94266509D01*
X184269737Y-94266503D01*
X184261170Y-94245821D01*
X184209397Y-94120827D01*
X184209390Y-94120814D01*
X184121789Y-93989711D01*
X184121786Y-93989707D01*
X184010292Y-93878213D01*
X184010288Y-93878210D01*
X183879185Y-93790609D01*
X183879172Y-93790602D01*
X183733501Y-93730264D01*
X183733489Y-93730261D01*
X183578845Y-93699500D01*
X183578842Y-93699500D01*
X183421158Y-93699500D01*
X183421155Y-93699500D01*
X183266510Y-93730261D01*
X183266498Y-93730264D01*
X183120827Y-93790602D01*
X183120814Y-93790609D01*
X182989711Y-93878210D01*
X182989707Y-93878213D01*
X182878213Y-93989707D01*
X182878210Y-93989711D01*
X182790609Y-94120814D01*
X182790602Y-94120827D01*
X182730264Y-94266498D01*
X182730261Y-94266510D01*
X182699500Y-94421153D01*
X179223074Y-94421153D01*
X179239512Y-94381468D01*
X179245251Y-94367613D01*
X179255141Y-94343734D01*
X179269737Y-94308497D01*
X179300500Y-94153842D01*
X179300500Y-93996158D01*
X179300500Y-93996155D01*
X179300499Y-93996153D01*
X179294686Y-93966928D01*
X179269737Y-93841503D01*
X179248655Y-93790606D01*
X179209397Y-93695827D01*
X179209390Y-93695814D01*
X179121789Y-93564711D01*
X179121786Y-93564707D01*
X179010292Y-93453213D01*
X179010288Y-93453210D01*
X178897881Y-93378102D01*
X178853076Y-93324490D01*
X178844369Y-93255165D01*
X178874523Y-93192137D01*
X178897881Y-93171898D01*
X178931981Y-93149112D01*
X179010289Y-93096789D01*
X179121789Y-92985289D01*
X179209394Y-92854179D01*
X179269737Y-92708497D01*
X179300500Y-92553842D01*
X179300500Y-92396158D01*
X179300500Y-92396155D01*
X179300499Y-92396153D01*
X179296647Y-92376788D01*
X179269737Y-92241503D01*
X179268527Y-92238582D01*
X179209397Y-92095827D01*
X179209390Y-92095814D01*
X179134649Y-91983957D01*
X179134648Y-91983955D01*
X179121792Y-91964715D01*
X179121786Y-91964707D01*
X179078232Y-91921153D01*
X182199500Y-91921153D01*
X182199500Y-92078846D01*
X182230261Y-92233489D01*
X182230264Y-92233501D01*
X182290602Y-92379172D01*
X182290609Y-92379185D01*
X182378210Y-92510288D01*
X182378213Y-92510292D01*
X182489707Y-92621786D01*
X182489711Y-92621789D01*
X182620814Y-92709390D01*
X182620827Y-92709397D01*
X182766498Y-92769735D01*
X182766503Y-92769737D01*
X182918644Y-92800000D01*
X182921153Y-92800499D01*
X182921156Y-92800500D01*
X182921158Y-92800500D01*
X183078844Y-92800500D01*
X183078845Y-92800499D01*
X183233497Y-92769737D01*
X183346166Y-92723067D01*
X183379172Y-92709397D01*
X183379172Y-92709396D01*
X183379179Y-92709394D01*
X183510289Y-92621789D01*
X183621789Y-92510289D01*
X183709394Y-92379179D01*
X183769737Y-92233497D01*
X183800500Y-92078842D01*
X183800500Y-91921158D01*
X183800500Y-91921155D01*
X183800499Y-91921153D01*
X183793628Y-91886610D01*
X183769737Y-91766503D01*
X183769366Y-91765608D01*
X183765374Y-91755969D01*
X183747737Y-91713389D01*
X190574500Y-91713389D01*
X190574500Y-91886610D01*
X190599006Y-92041340D01*
X190601598Y-92057701D01*
X190655127Y-92222445D01*
X190733768Y-92376788D01*
X190835586Y-92516928D01*
X190958072Y-92639414D01*
X190958078Y-92639418D01*
X191041023Y-92699683D01*
X191083689Y-92755013D01*
X191089667Y-92824626D01*
X191057061Y-92886421D01*
X191041023Y-92900317D01*
X190958078Y-92960581D01*
X190958069Y-92960588D01*
X190835588Y-93083069D01*
X190835588Y-93083070D01*
X190835586Y-93083072D01*
X190805487Y-93124500D01*
X190733768Y-93223211D01*
X190655128Y-93377552D01*
X190655127Y-93377554D01*
X190655127Y-93377555D01*
X190643054Y-93414711D01*
X190601597Y-93542302D01*
X190574500Y-93713389D01*
X190574500Y-93886610D01*
X190595909Y-94021786D01*
X190601598Y-94057701D01*
X190655127Y-94222445D01*
X190733768Y-94376788D01*
X190835586Y-94516928D01*
X190958072Y-94639414D01*
X190958078Y-94639418D01*
X191041023Y-94699683D01*
X191083689Y-94755013D01*
X191089667Y-94824626D01*
X191057061Y-94886421D01*
X191041023Y-94900317D01*
X190958078Y-94960581D01*
X190958069Y-94960588D01*
X190835588Y-95083069D01*
X190835588Y-95083070D01*
X190835586Y-95083072D01*
X190807455Y-95121791D01*
X190733768Y-95223211D01*
X190655128Y-95377552D01*
X190601597Y-95542302D01*
X190574500Y-95713389D01*
X190574500Y-95886610D01*
X190598748Y-96039711D01*
X190601598Y-96057701D01*
X190655127Y-96222445D01*
X190733768Y-96376788D01*
X190835586Y-96516928D01*
X190835588Y-96516930D01*
X190943127Y-96624469D01*
X190976612Y-96685792D01*
X190971628Y-96755484D01*
X190929756Y-96811417D01*
X190920544Y-96817688D01*
X190856344Y-96857287D01*
X190732289Y-96981342D01*
X190640187Y-97130663D01*
X190640185Y-97130668D01*
X190626560Y-97171786D01*
X190585001Y-97297203D01*
X190585001Y-97297204D01*
X190585000Y-97297204D01*
X190574500Y-97399983D01*
X190574500Y-98200001D01*
X190574501Y-98200019D01*
X190585000Y-98302796D01*
X190585001Y-98302799D01*
X190624220Y-98421153D01*
X190640186Y-98469334D01*
X190732288Y-98618656D01*
X190856344Y-98742712D01*
X191005666Y-98834814D01*
X191172203Y-98889999D01*
X191274991Y-98900500D01*
X192625008Y-98900499D01*
X192727797Y-98889999D01*
X192894334Y-98834814D01*
X193043656Y-98742712D01*
X193167712Y-98618656D01*
X193259814Y-98469334D01*
X193314999Y-98302797D01*
X193325500Y-98200009D01*
X193325499Y-97399992D01*
X193319024Y-97336610D01*
X193314999Y-97297203D01*
X193314998Y-97297200D01*
X193302469Y-97259390D01*
X193259814Y-97130666D01*
X193167712Y-96981344D01*
X193043656Y-96857288D01*
X193043652Y-96857285D01*
X192979456Y-96817688D01*
X192932731Y-96765740D01*
X192921510Y-96696777D01*
X192949353Y-96632695D01*
X192956850Y-96624491D01*
X193064414Y-96516928D01*
X193166232Y-96376788D01*
X193244873Y-96222445D01*
X193298402Y-96057701D01*
X193325500Y-95886611D01*
X193325500Y-95713389D01*
X193298402Y-95542299D01*
X193244873Y-95377555D01*
X193166232Y-95223212D01*
X193064414Y-95083072D01*
X192941928Y-94960586D01*
X192858975Y-94900317D01*
X192816311Y-94844988D01*
X192810332Y-94775374D01*
X192842938Y-94713579D01*
X192858976Y-94699682D01*
X192865781Y-94694738D01*
X192941928Y-94639414D01*
X193064414Y-94516928D01*
X193166232Y-94376788D01*
X193244873Y-94222445D01*
X193298402Y-94057701D01*
X193325500Y-93886611D01*
X193325500Y-93713389D01*
X193298402Y-93542299D01*
X193244873Y-93377555D01*
X193166232Y-93223212D01*
X193064414Y-93083072D01*
X192941928Y-92960586D01*
X192858975Y-92900317D01*
X192816311Y-92844988D01*
X192810332Y-92775374D01*
X192842938Y-92713579D01*
X192858976Y-92699682D01*
X192871468Y-92690606D01*
X192941928Y-92639414D01*
X193064414Y-92516928D01*
X193166232Y-92376788D01*
X193244873Y-92222445D01*
X193298402Y-92057701D01*
X193325500Y-91886611D01*
X193325500Y-91713389D01*
X193298402Y-91542299D01*
X193244873Y-91377555D01*
X193166232Y-91223212D01*
X193064414Y-91083072D01*
X192941928Y-90960586D01*
X192801788Y-90858768D01*
X192647445Y-90780127D01*
X192482701Y-90726598D01*
X192482699Y-90726597D01*
X192482698Y-90726597D01*
X192351271Y-90705781D01*
X192311611Y-90699500D01*
X191588389Y-90699500D01*
X191548728Y-90705781D01*
X191417302Y-90726597D01*
X191252552Y-90780128D01*
X191098211Y-90858768D01*
X191030435Y-90908011D01*
X190958072Y-90960586D01*
X190958070Y-90960588D01*
X190958069Y-90960588D01*
X190835588Y-91083069D01*
X190835588Y-91083070D01*
X190835586Y-91083072D01*
X190791859Y-91143256D01*
X190733768Y-91223211D01*
X190655128Y-91377552D01*
X190601597Y-91542302D01*
X190574500Y-91713389D01*
X183747737Y-91713389D01*
X183709397Y-91620827D01*
X183709390Y-91620814D01*
X183621789Y-91489711D01*
X183621786Y-91489707D01*
X183510292Y-91378213D01*
X183510288Y-91378210D01*
X183379185Y-91290609D01*
X183379172Y-91290602D01*
X183233501Y-91230264D01*
X183233489Y-91230261D01*
X183078845Y-91199500D01*
X183078842Y-91199500D01*
X182921158Y-91199500D01*
X182921155Y-91199500D01*
X182766510Y-91230261D01*
X182766498Y-91230264D01*
X182620827Y-91290602D01*
X182620814Y-91290609D01*
X182489711Y-91378210D01*
X182489707Y-91378213D01*
X182378213Y-91489707D01*
X182378210Y-91489711D01*
X182290609Y-91620814D01*
X182290602Y-91620827D01*
X182230264Y-91766498D01*
X182230261Y-91766510D01*
X182199500Y-91921153D01*
X179078232Y-91921153D01*
X179010292Y-91853213D01*
X179010288Y-91853210D01*
X178879185Y-91765609D01*
X178879172Y-91765602D01*
X178733501Y-91705264D01*
X178733489Y-91705261D01*
X178578845Y-91674500D01*
X178578842Y-91674500D01*
X178421158Y-91674500D01*
X178421155Y-91674500D01*
X178266510Y-91705261D01*
X178266498Y-91705264D01*
X178120827Y-91765602D01*
X178120816Y-91765608D01*
X178030230Y-91826136D01*
X177963553Y-91847013D01*
X177896173Y-91828528D01*
X177849483Y-91776549D01*
X177837404Y-91719039D01*
X177874127Y-90580663D01*
X177879273Y-90421153D01*
X186699500Y-90421153D01*
X186699500Y-90578846D01*
X186730261Y-90733489D01*
X186730264Y-90733501D01*
X186790602Y-90879172D01*
X186790609Y-90879185D01*
X186878210Y-91010288D01*
X186878213Y-91010292D01*
X186989707Y-91121786D01*
X186989711Y-91121789D01*
X187120814Y-91209390D01*
X187120827Y-91209397D01*
X187266498Y-91269735D01*
X187266503Y-91269737D01*
X187421153Y-91300499D01*
X187421156Y-91300500D01*
X187421158Y-91300500D01*
X187578844Y-91300500D01*
X187578845Y-91300499D01*
X187733497Y-91269737D01*
X187879179Y-91209394D01*
X188010289Y-91121789D01*
X188121789Y-91010289D01*
X188209394Y-90879179D01*
X188269737Y-90733497D01*
X188300500Y-90578842D01*
X188300500Y-90421158D01*
X188300500Y-90421155D01*
X188300499Y-90421153D01*
X188277850Y-90307289D01*
X188269737Y-90266503D01*
X188269735Y-90266498D01*
X188209397Y-90120827D01*
X188209390Y-90120814D01*
X188121789Y-89989711D01*
X188121786Y-89989707D01*
X188010292Y-89878213D01*
X188010288Y-89878210D01*
X187879185Y-89790609D01*
X187879172Y-89790602D01*
X187733501Y-89730264D01*
X187733489Y-89730261D01*
X187578845Y-89699500D01*
X187578842Y-89699500D01*
X187421158Y-89699500D01*
X187421155Y-89699500D01*
X187266510Y-89730261D01*
X187266498Y-89730264D01*
X187120827Y-89790602D01*
X187120814Y-89790609D01*
X186989711Y-89878210D01*
X186989707Y-89878213D01*
X186878213Y-89989707D01*
X186878210Y-89989711D01*
X186790609Y-90120814D01*
X186790602Y-90120827D01*
X186730264Y-90266498D01*
X186730261Y-90266510D01*
X186699500Y-90421153D01*
X177879273Y-90421153D01*
X177879598Y-90411068D01*
X177895423Y-89920502D01*
X177917259Y-89854132D01*
X177971511Y-89810103D01*
X178019359Y-89800500D01*
X178078844Y-89800500D01*
X178078845Y-89800499D01*
X178233497Y-89769737D01*
X178379179Y-89709394D01*
X178510289Y-89621789D01*
X178621789Y-89510289D01*
X178709394Y-89379179D01*
X178769737Y-89233497D01*
X178800500Y-89078842D01*
X178800500Y-88921158D01*
X178800500Y-88921155D01*
X178800499Y-88921153D01*
X178769738Y-88766510D01*
X178769737Y-88766503D01*
X178750865Y-88720941D01*
X178709397Y-88620827D01*
X178709390Y-88620814D01*
X178621789Y-88489711D01*
X178621786Y-88489707D01*
X178510292Y-88378213D01*
X178510288Y-88378210D01*
X178379185Y-88290609D01*
X178379172Y-88290602D01*
X178233501Y-88230264D01*
X178233489Y-88230261D01*
X178078846Y-88199500D01*
X178072782Y-88198903D01*
X178072899Y-88197707D01*
X178011964Y-88179815D01*
X177966209Y-88127011D01*
X177955067Y-88071502D01*
X177955716Y-88051373D01*
X177964282Y-87785824D01*
X177986118Y-87719457D01*
X178040370Y-87675429D01*
X178109813Y-87667720D01*
X178172400Y-87698779D01*
X178191320Y-87720933D01*
X178238758Y-87791928D01*
X178350252Y-87903422D01*
X178350256Y-87903425D01*
X178481359Y-87991026D01*
X178481372Y-87991033D01*
X178627043Y-88051371D01*
X178627048Y-88051373D01*
X178728243Y-88071502D01*
X178781698Y-88082135D01*
X178781701Y-88082136D01*
X178781703Y-88082136D01*
X178939389Y-88082136D01*
X178939390Y-88082135D01*
X179094042Y-88051373D01*
X179239724Y-87991030D01*
X179370834Y-87903425D01*
X179482334Y-87791925D01*
X179569939Y-87660815D01*
X179630282Y-87515133D01*
X179661045Y-87360478D01*
X179661045Y-87202794D01*
X179661045Y-87202791D01*
X179645355Y-87123916D01*
X179651582Y-87054325D01*
X179694444Y-86999147D01*
X179760334Y-86975902D01*
X179765337Y-86975735D01*
X181143538Y-86957601D01*
X181203169Y-86953281D01*
X181232202Y-86949441D01*
X181290931Y-86938104D01*
X181423859Y-86883044D01*
X181483948Y-86847392D01*
X181586241Y-86764960D01*
X181650789Y-86738223D01*
X181711493Y-86746951D01*
X181766503Y-86769737D01*
X181921153Y-86800499D01*
X181921156Y-86800500D01*
X181921158Y-86800500D01*
X182078844Y-86800500D01*
X182078845Y-86800499D01*
X182233497Y-86769737D01*
X182314662Y-86736117D01*
X182384127Y-86728649D01*
X182442071Y-86755905D01*
X182540885Y-86839275D01*
X182540886Y-86839275D01*
X182540888Y-86839277D01*
X182672533Y-86897316D01*
X182672538Y-86897318D01*
X182728746Y-86913022D01*
X182735310Y-86915530D01*
X182739831Y-86916119D01*
X182739832Y-86916120D01*
X182882505Y-86934720D01*
X182882512Y-86934719D01*
X182882513Y-86934720D01*
X183197233Y-86930578D01*
X183629986Y-86924884D01*
X183689624Y-86920563D01*
X183707042Y-86918259D01*
X183718640Y-86916725D01*
X183718642Y-86916724D01*
X183718654Y-86916723D01*
X183777360Y-86905390D01*
X183910290Y-86850335D01*
X183970380Y-86814685D01*
X183970384Y-86814683D01*
X184051207Y-86749554D01*
X184051951Y-86748974D01*
X184083557Y-86736442D01*
X184115026Y-86723409D01*
X184116056Y-86723557D01*
X184116902Y-86723222D01*
X184125619Y-86724932D01*
X184175729Y-86732137D01*
X184266503Y-86769737D01*
X184421153Y-86800499D01*
X184421156Y-86800500D01*
X184421158Y-86800500D01*
X184578844Y-86800500D01*
X184578845Y-86800499D01*
X184733497Y-86769737D01*
X184849904Y-86721519D01*
X184919373Y-86714051D01*
X184977317Y-86741306D01*
G37*
%TD.AperFunction*%
%TD*%
%TA.AperFunction,Conductor*%
%TO.N,+3.3V*%
G36*
X191291437Y-79620185D02*
G01*
X191337192Y-79672989D01*
X191347136Y-79742147D01*
X191318111Y-79805703D01*
X191275998Y-79836064D01*
X191276427Y-79836954D01*
X190949420Y-79994432D01*
X190645045Y-80185684D01*
X190363997Y-80409811D01*
X190109811Y-80663997D01*
X189885684Y-80945045D01*
X189694432Y-81249420D01*
X189538465Y-81573288D01*
X189419741Y-81912580D01*
X189419737Y-81912592D01*
X189339748Y-82263048D01*
X189339746Y-82263064D01*
X189299500Y-82620259D01*
X189299500Y-82979740D01*
X189339746Y-83336935D01*
X189339748Y-83336951D01*
X189419737Y-83687407D01*
X189419741Y-83687419D01*
X189538465Y-84026711D01*
X189694432Y-84350579D01*
X189697991Y-84356243D01*
X189885685Y-84654956D01*
X190109812Y-84936003D01*
X190363997Y-85190188D01*
X190645044Y-85414315D01*
X190949418Y-85605566D01*
X191273292Y-85761536D01*
X191528119Y-85850703D01*
X191612580Y-85880258D01*
X191612592Y-85880262D01*
X191963052Y-85960252D01*
X192320260Y-86000499D01*
X192320261Y-86000500D01*
X192320264Y-86000500D01*
X192679739Y-86000500D01*
X192679739Y-86000499D01*
X193036948Y-85960252D01*
X193387408Y-85880262D01*
X193726708Y-85761536D01*
X194050582Y-85605566D01*
X194354956Y-85414315D01*
X194636003Y-85190188D01*
X194890188Y-84936003D01*
X195114315Y-84654956D01*
X195305566Y-84350582D01*
X195461536Y-84026708D01*
X195463046Y-84023573D01*
X195464190Y-84024123D01*
X195504760Y-83973759D01*
X195571050Y-83951682D01*
X195638753Y-83968948D01*
X195686373Y-84020076D01*
X195699500Y-84075602D01*
X195699500Y-86138152D01*
X195679815Y-86205191D01*
X195627011Y-86250946D01*
X195577131Y-86262141D01*
X185389205Y-86396194D01*
X185321913Y-86377393D01*
X185275467Y-86325196D01*
X185264615Y-86256174D01*
X185268917Y-86236199D01*
X185269735Y-86233501D01*
X185269737Y-86233497D01*
X185300500Y-86078842D01*
X185300500Y-85921158D01*
X185300500Y-85921155D01*
X185300499Y-85921153D01*
X185274531Y-85790606D01*
X185269737Y-85766503D01*
X185267679Y-85761534D01*
X185209397Y-85620827D01*
X185209390Y-85620814D01*
X185179461Y-85576022D01*
X185158583Y-85509344D01*
X185177068Y-85441964D01*
X185229047Y-85395274D01*
X185263160Y-85384659D01*
X185403700Y-85362400D01*
X185436238Y-85357247D01*
X185436238Y-85357246D01*
X185436243Y-85357246D01*
X185638412Y-85291557D01*
X185827816Y-85195051D01*
X185914471Y-85132093D01*
X185999786Y-85070109D01*
X185999788Y-85070106D01*
X185999792Y-85070104D01*
X186150104Y-84919792D01*
X186150106Y-84919788D01*
X186150109Y-84919786D01*
X186275048Y-84747820D01*
X186275047Y-84747820D01*
X186275051Y-84747816D01*
X186279514Y-84739054D01*
X186327488Y-84688259D01*
X186395308Y-84671463D01*
X186461444Y-84693999D01*
X186500486Y-84739056D01*
X186504951Y-84747820D01*
X186629890Y-84919786D01*
X186780213Y-85070109D01*
X186952179Y-85195048D01*
X186952181Y-85195049D01*
X186952184Y-85195051D01*
X187141588Y-85291557D01*
X187343757Y-85357246D01*
X187553713Y-85390500D01*
X187553714Y-85390500D01*
X187766286Y-85390500D01*
X187766287Y-85390500D01*
X187976243Y-85357246D01*
X188178412Y-85291557D01*
X188367816Y-85195051D01*
X188454471Y-85132093D01*
X188539786Y-85070109D01*
X188539788Y-85070106D01*
X188539792Y-85070104D01*
X188690104Y-84919792D01*
X188690106Y-84919788D01*
X188690109Y-84919786D01*
X188815048Y-84747820D01*
X188815047Y-84747820D01*
X188815051Y-84747816D01*
X188911557Y-84558412D01*
X188977246Y-84356243D01*
X189010500Y-84146287D01*
X189010500Y-83933713D01*
X188977246Y-83723757D01*
X188911557Y-83521588D01*
X188815051Y-83332184D01*
X188815049Y-83332181D01*
X188815048Y-83332179D01*
X188690109Y-83160213D01*
X188539786Y-83009890D01*
X188367820Y-82884951D01*
X188367115Y-82884591D01*
X188359054Y-82880485D01*
X188308259Y-82832512D01*
X188291463Y-82764692D01*
X188313999Y-82698556D01*
X188359054Y-82659515D01*
X188367816Y-82655051D01*
X188415701Y-82620261D01*
X188539786Y-82530109D01*
X188539788Y-82530106D01*
X188539792Y-82530104D01*
X188690104Y-82379792D01*
X188690106Y-82379788D01*
X188690109Y-82379786D01*
X188815048Y-82207820D01*
X188815047Y-82207820D01*
X188815051Y-82207816D01*
X188911557Y-82018412D01*
X188977246Y-81816243D01*
X189010500Y-81606287D01*
X189010500Y-81393713D01*
X188977246Y-81183757D01*
X188911557Y-80981588D01*
X188815051Y-80792184D01*
X188815049Y-80792181D01*
X188815048Y-80792179D01*
X188690109Y-80620213D01*
X188539786Y-80469890D01*
X188367820Y-80344951D01*
X188178414Y-80248444D01*
X188178413Y-80248443D01*
X188178412Y-80248443D01*
X187976243Y-80182754D01*
X187976241Y-80182753D01*
X187976240Y-80182753D01*
X187814957Y-80157208D01*
X187766287Y-80149500D01*
X187553713Y-80149500D01*
X187505042Y-80157208D01*
X187343760Y-80182753D01*
X187141585Y-80248444D01*
X186952179Y-80344951D01*
X186780213Y-80469890D01*
X186629890Y-80620213D01*
X186504949Y-80792182D01*
X186500484Y-80800946D01*
X186452509Y-80851742D01*
X186384688Y-80868536D01*
X186318553Y-80845998D01*
X186279516Y-80800946D01*
X186275050Y-80792182D01*
X186150109Y-80620213D01*
X185999786Y-80469890D01*
X185827820Y-80344951D01*
X185638414Y-80248444D01*
X185638413Y-80248443D01*
X185638412Y-80248443D01*
X185436243Y-80182754D01*
X185436241Y-80182753D01*
X185436240Y-80182753D01*
X185274957Y-80157208D01*
X185226287Y-80149500D01*
X185013713Y-80149500D01*
X184965042Y-80157208D01*
X184803760Y-80182753D01*
X184601585Y-80248444D01*
X184412179Y-80344951D01*
X184240213Y-80469890D01*
X184089890Y-80620213D01*
X183964949Y-80792182D01*
X183960484Y-80800946D01*
X183912509Y-80851742D01*
X183844688Y-80868536D01*
X183778553Y-80845998D01*
X183739516Y-80800946D01*
X183735050Y-80792182D01*
X183610109Y-80620213D01*
X183459786Y-80469890D01*
X183287820Y-80344951D01*
X183098414Y-80248444D01*
X183098413Y-80248443D01*
X183098412Y-80248443D01*
X182896243Y-80182754D01*
X182896241Y-80182753D01*
X182896240Y-80182753D01*
X182734957Y-80157208D01*
X182686287Y-80149500D01*
X182473713Y-80149500D01*
X182425042Y-80157208D01*
X182263760Y-80182753D01*
X182061585Y-80248444D01*
X181872179Y-80344951D01*
X181700213Y-80469890D01*
X181549890Y-80620213D01*
X181424949Y-80792182D01*
X181420484Y-80800946D01*
X181372509Y-80851742D01*
X181304688Y-80868536D01*
X181238553Y-80845998D01*
X181199516Y-80800946D01*
X181195050Y-80792182D01*
X181070109Y-80620213D01*
X180919786Y-80469890D01*
X180747820Y-80344951D01*
X180558414Y-80248444D01*
X180558413Y-80248443D01*
X180558412Y-80248443D01*
X180356243Y-80182754D01*
X180356241Y-80182753D01*
X180356240Y-80182753D01*
X180194957Y-80157208D01*
X180146287Y-80149500D01*
X179933713Y-80149500D01*
X179885042Y-80157208D01*
X179723760Y-80182753D01*
X179521585Y-80248444D01*
X179332179Y-80344951D01*
X179160213Y-80469890D01*
X179009890Y-80620213D01*
X178884949Y-80792182D01*
X178880484Y-80800946D01*
X178832509Y-80851742D01*
X178764688Y-80868536D01*
X178698553Y-80845998D01*
X178659516Y-80800946D01*
X178655050Y-80792182D01*
X178530109Y-80620213D01*
X178379786Y-80469890D01*
X178207820Y-80344951D01*
X178018414Y-80248444D01*
X178018413Y-80248443D01*
X178018412Y-80248443D01*
X177816243Y-80182754D01*
X177816241Y-80182753D01*
X177816240Y-80182753D01*
X177654957Y-80157208D01*
X177606287Y-80149500D01*
X177393713Y-80149500D01*
X177345042Y-80157208D01*
X177183760Y-80182753D01*
X176981585Y-80248444D01*
X176792179Y-80344951D01*
X176620213Y-80469890D01*
X176469890Y-80620213D01*
X176344949Y-80792182D01*
X176340484Y-80800946D01*
X176292509Y-80851742D01*
X176224688Y-80868536D01*
X176158553Y-80845998D01*
X176119516Y-80800946D01*
X176115050Y-80792182D01*
X175990109Y-80620213D01*
X175839786Y-80469890D01*
X175667820Y-80344951D01*
X175478414Y-80248444D01*
X175478413Y-80248443D01*
X175478412Y-80248443D01*
X175276243Y-80182754D01*
X175276241Y-80182753D01*
X175276240Y-80182753D01*
X175114957Y-80157208D01*
X175066287Y-80149500D01*
X174853713Y-80149500D01*
X174805042Y-80157208D01*
X174643760Y-80182753D01*
X174441585Y-80248444D01*
X174252179Y-80344951D01*
X174080213Y-80469890D01*
X173929890Y-80620213D01*
X173804949Y-80792182D01*
X173800484Y-80800946D01*
X173752509Y-80851742D01*
X173684688Y-80868536D01*
X173618553Y-80845998D01*
X173579516Y-80800946D01*
X173575050Y-80792182D01*
X173450109Y-80620213D01*
X173299786Y-80469890D01*
X173127820Y-80344951D01*
X172938414Y-80248444D01*
X172938413Y-80248443D01*
X172938412Y-80248443D01*
X172736243Y-80182754D01*
X172736241Y-80182753D01*
X172736240Y-80182753D01*
X172574957Y-80157208D01*
X172526287Y-80149500D01*
X172313713Y-80149500D01*
X172265042Y-80157208D01*
X172103760Y-80182753D01*
X171901585Y-80248444D01*
X171712179Y-80344951D01*
X171540213Y-80469890D01*
X171389890Y-80620213D01*
X171264949Y-80792182D01*
X171260484Y-80800946D01*
X171212509Y-80851742D01*
X171144688Y-80868536D01*
X171078553Y-80845998D01*
X171039516Y-80800946D01*
X171035050Y-80792182D01*
X170910109Y-80620213D01*
X170759786Y-80469890D01*
X170587820Y-80344951D01*
X170398414Y-80248444D01*
X170398413Y-80248443D01*
X170398412Y-80248443D01*
X170196243Y-80182754D01*
X170196241Y-80182753D01*
X170196240Y-80182753D01*
X170034957Y-80157208D01*
X169986287Y-80149500D01*
X169773713Y-80149500D01*
X169725042Y-80157208D01*
X169563760Y-80182753D01*
X169361585Y-80248444D01*
X169172179Y-80344951D01*
X169000213Y-80469890D01*
X168849890Y-80620213D01*
X168724949Y-80792182D01*
X168720484Y-80800946D01*
X168672509Y-80851742D01*
X168604688Y-80868536D01*
X168538553Y-80845998D01*
X168499516Y-80800946D01*
X168495050Y-80792182D01*
X168370109Y-80620213D01*
X168219786Y-80469890D01*
X168047820Y-80344951D01*
X167858414Y-80248444D01*
X167858413Y-80248443D01*
X167858412Y-80248443D01*
X167656243Y-80182754D01*
X167656241Y-80182753D01*
X167656240Y-80182753D01*
X167494957Y-80157208D01*
X167446287Y-80149500D01*
X167233713Y-80149500D01*
X167185042Y-80157208D01*
X167023760Y-80182753D01*
X166821585Y-80248444D01*
X166632179Y-80344951D01*
X166460213Y-80469890D01*
X166309890Y-80620213D01*
X166184949Y-80792182D01*
X166180484Y-80800946D01*
X166132509Y-80851742D01*
X166064688Y-80868536D01*
X165998553Y-80845998D01*
X165959516Y-80800946D01*
X165955050Y-80792182D01*
X165830109Y-80620213D01*
X165679786Y-80469890D01*
X165507820Y-80344951D01*
X165318414Y-80248444D01*
X165318413Y-80248443D01*
X165318412Y-80248443D01*
X165116243Y-80182754D01*
X165116241Y-80182753D01*
X165116240Y-80182753D01*
X164954957Y-80157208D01*
X164906287Y-80149500D01*
X164693713Y-80149500D01*
X164645042Y-80157208D01*
X164483760Y-80182753D01*
X164281585Y-80248444D01*
X164092179Y-80344951D01*
X163920213Y-80469890D01*
X163769890Y-80620213D01*
X163644949Y-80792182D01*
X163640484Y-80800946D01*
X163592509Y-80851742D01*
X163524688Y-80868536D01*
X163458553Y-80845998D01*
X163419516Y-80800946D01*
X163415050Y-80792182D01*
X163290109Y-80620213D01*
X163139786Y-80469890D01*
X162967820Y-80344951D01*
X162778414Y-80248444D01*
X162778413Y-80248443D01*
X162778412Y-80248443D01*
X162576243Y-80182754D01*
X162576241Y-80182753D01*
X162576240Y-80182753D01*
X162414957Y-80157208D01*
X162366287Y-80149500D01*
X162153713Y-80149500D01*
X162105042Y-80157208D01*
X161943760Y-80182753D01*
X161741585Y-80248444D01*
X161552179Y-80344951D01*
X161380213Y-80469890D01*
X161229890Y-80620213D01*
X161104949Y-80792182D01*
X161100484Y-80800946D01*
X161052509Y-80851742D01*
X160984688Y-80868536D01*
X160918553Y-80845998D01*
X160879516Y-80800946D01*
X160875050Y-80792182D01*
X160750109Y-80620213D01*
X160599786Y-80469890D01*
X160427820Y-80344951D01*
X160238414Y-80248444D01*
X160238413Y-80248443D01*
X160238412Y-80248443D01*
X160036243Y-80182754D01*
X160036241Y-80182753D01*
X160036240Y-80182753D01*
X159874957Y-80157208D01*
X159826287Y-80149500D01*
X159613713Y-80149500D01*
X159565042Y-80157208D01*
X159403760Y-80182753D01*
X159201585Y-80248444D01*
X159012179Y-80344951D01*
X158840213Y-80469890D01*
X158689890Y-80620213D01*
X158564949Y-80792182D01*
X158560484Y-80800946D01*
X158512509Y-80851742D01*
X158444688Y-80868536D01*
X158378553Y-80845998D01*
X158339516Y-80800946D01*
X158335050Y-80792182D01*
X158210109Y-80620213D01*
X158059786Y-80469890D01*
X157887820Y-80344951D01*
X157698414Y-80248444D01*
X157698413Y-80248443D01*
X157698412Y-80248443D01*
X157496243Y-80182754D01*
X157496241Y-80182753D01*
X157496240Y-80182753D01*
X157334957Y-80157208D01*
X157286287Y-80149500D01*
X157073713Y-80149500D01*
X157025042Y-80157208D01*
X156863760Y-80182753D01*
X156661585Y-80248444D01*
X156472179Y-80344951D01*
X156300213Y-80469890D01*
X156149890Y-80620213D01*
X156024949Y-80792182D01*
X156020484Y-80800946D01*
X155972509Y-80851742D01*
X155904688Y-80868536D01*
X155838553Y-80845998D01*
X155799516Y-80800946D01*
X155795050Y-80792182D01*
X155670109Y-80620213D01*
X155519786Y-80469890D01*
X155347820Y-80344951D01*
X155158414Y-80248444D01*
X155158413Y-80248443D01*
X155158412Y-80248443D01*
X154956243Y-80182754D01*
X154956241Y-80182753D01*
X154956240Y-80182753D01*
X154794957Y-80157208D01*
X154746287Y-80149500D01*
X154533713Y-80149500D01*
X154485042Y-80157208D01*
X154323760Y-80182753D01*
X154121585Y-80248444D01*
X153932179Y-80344951D01*
X153760213Y-80469890D01*
X153609890Y-80620213D01*
X153484949Y-80792182D01*
X153480484Y-80800946D01*
X153432509Y-80851742D01*
X153364688Y-80868536D01*
X153298553Y-80845998D01*
X153259516Y-80800946D01*
X153255050Y-80792182D01*
X153130109Y-80620213D01*
X152979786Y-80469890D01*
X152807820Y-80344951D01*
X152618414Y-80248444D01*
X152618413Y-80248443D01*
X152618412Y-80248443D01*
X152416243Y-80182754D01*
X152416241Y-80182753D01*
X152416240Y-80182753D01*
X152254957Y-80157208D01*
X152206287Y-80149500D01*
X151993713Y-80149500D01*
X151945042Y-80157208D01*
X151783760Y-80182753D01*
X151581585Y-80248444D01*
X151392179Y-80344951D01*
X151220213Y-80469890D01*
X151069890Y-80620213D01*
X150944949Y-80792182D01*
X150940484Y-80800946D01*
X150892509Y-80851742D01*
X150824688Y-80868536D01*
X150758553Y-80845998D01*
X150719516Y-80800946D01*
X150715050Y-80792182D01*
X150590109Y-80620213D01*
X150439786Y-80469890D01*
X150267820Y-80344951D01*
X150078414Y-80248444D01*
X150078413Y-80248443D01*
X150078412Y-80248443D01*
X149876243Y-80182754D01*
X149876241Y-80182753D01*
X149876240Y-80182753D01*
X149714957Y-80157208D01*
X149666287Y-80149500D01*
X149453713Y-80149500D01*
X149405042Y-80157208D01*
X149243760Y-80182753D01*
X149041585Y-80248444D01*
X148852179Y-80344951D01*
X148680213Y-80469890D01*
X148529890Y-80620213D01*
X148404949Y-80792182D01*
X148400484Y-80800946D01*
X148352509Y-80851742D01*
X148284688Y-80868536D01*
X148218553Y-80845998D01*
X148179516Y-80800946D01*
X148175050Y-80792182D01*
X148050109Y-80620213D01*
X147899786Y-80469890D01*
X147727820Y-80344951D01*
X147538414Y-80248444D01*
X147538413Y-80248443D01*
X147538412Y-80248443D01*
X147336243Y-80182754D01*
X147336241Y-80182753D01*
X147336240Y-80182753D01*
X147174957Y-80157208D01*
X147126287Y-80149500D01*
X146913713Y-80149500D01*
X146865042Y-80157208D01*
X146703760Y-80182753D01*
X146501585Y-80248444D01*
X146312179Y-80344951D01*
X146140213Y-80469890D01*
X145989890Y-80620213D01*
X145864949Y-80792182D01*
X145860484Y-80800946D01*
X145812509Y-80851742D01*
X145744688Y-80868536D01*
X145678553Y-80845998D01*
X145639516Y-80800946D01*
X145635050Y-80792182D01*
X145510109Y-80620213D01*
X145359786Y-80469890D01*
X145187820Y-80344951D01*
X144998414Y-80248444D01*
X144998413Y-80248443D01*
X144998412Y-80248443D01*
X144796243Y-80182754D01*
X144796241Y-80182753D01*
X144796240Y-80182753D01*
X144634957Y-80157208D01*
X144586287Y-80149500D01*
X144373713Y-80149500D01*
X144325042Y-80157208D01*
X144163760Y-80182753D01*
X143961585Y-80248444D01*
X143772179Y-80344951D01*
X143600213Y-80469890D01*
X143449890Y-80620213D01*
X143324949Y-80792182D01*
X143320484Y-80800946D01*
X143272509Y-80851742D01*
X143204688Y-80868536D01*
X143138553Y-80845998D01*
X143099516Y-80800946D01*
X143095050Y-80792182D01*
X142970109Y-80620213D01*
X142819786Y-80469890D01*
X142647820Y-80344951D01*
X142458414Y-80248444D01*
X142458413Y-80248443D01*
X142458412Y-80248443D01*
X142256243Y-80182754D01*
X142256241Y-80182753D01*
X142256240Y-80182753D01*
X142094957Y-80157208D01*
X142046287Y-80149500D01*
X141833713Y-80149500D01*
X141785042Y-80157208D01*
X141623760Y-80182753D01*
X141421585Y-80248444D01*
X141232179Y-80344951D01*
X141060213Y-80469890D01*
X140909890Y-80620213D01*
X140784949Y-80792182D01*
X140780484Y-80800946D01*
X140732509Y-80851742D01*
X140664688Y-80868536D01*
X140598553Y-80845998D01*
X140559516Y-80800946D01*
X140555050Y-80792182D01*
X140430109Y-80620213D01*
X140279786Y-80469890D01*
X140107820Y-80344951D01*
X139918414Y-80248444D01*
X139918413Y-80248443D01*
X139918412Y-80248443D01*
X139716243Y-80182754D01*
X139716241Y-80182753D01*
X139716240Y-80182753D01*
X139554957Y-80157208D01*
X139506287Y-80149500D01*
X139293713Y-80149500D01*
X139245042Y-80157208D01*
X139083760Y-80182753D01*
X138881585Y-80248444D01*
X138692179Y-80344951D01*
X138520213Y-80469890D01*
X138369890Y-80620213D01*
X138244951Y-80792179D01*
X138148444Y-80981585D01*
X138082753Y-81183760D01*
X138072354Y-81249418D01*
X138049500Y-81393713D01*
X138049500Y-81606287D01*
X138082754Y-81816243D01*
X138101988Y-81875440D01*
X138148444Y-82018414D01*
X138244951Y-82207820D01*
X138369890Y-82379786D01*
X138483818Y-82493714D01*
X138517303Y-82555037D01*
X138512319Y-82624729D01*
X138470447Y-82680662D01*
X138439471Y-82697577D01*
X138307912Y-82746646D01*
X138307906Y-82746649D01*
X138192812Y-82832809D01*
X138192809Y-82832812D01*
X138106649Y-82947906D01*
X138106645Y-82947913D01*
X138056403Y-83082620D01*
X138056401Y-83082627D01*
X138050000Y-83142155D01*
X138050000Y-83790000D01*
X138966988Y-83790000D01*
X138934075Y-83847007D01*
X138900000Y-83974174D01*
X138900000Y-84105826D01*
X138934075Y-84232993D01*
X138966988Y-84290000D01*
X138050000Y-84290000D01*
X138050000Y-84937844D01*
X138056401Y-84997372D01*
X138056403Y-84997379D01*
X138106645Y-85132086D01*
X138106649Y-85132093D01*
X138192809Y-85247187D01*
X138192812Y-85247190D01*
X138307906Y-85333350D01*
X138307913Y-85333354D01*
X138442620Y-85383596D01*
X138442627Y-85383598D01*
X138502155Y-85389999D01*
X138502172Y-85390000D01*
X139150000Y-85390000D01*
X139150000Y-84473012D01*
X139207007Y-84505925D01*
X139334174Y-84540000D01*
X139465826Y-84540000D01*
X139592993Y-84505925D01*
X139650000Y-84473012D01*
X139650000Y-85390000D01*
X140297828Y-85390000D01*
X140297844Y-85389999D01*
X140357372Y-85383598D01*
X140357379Y-85383596D01*
X140492086Y-85333354D01*
X140492093Y-85333350D01*
X140607187Y-85247190D01*
X140607190Y-85247187D01*
X140693350Y-85132093D01*
X140693354Y-85132086D01*
X140742422Y-85000529D01*
X140784293Y-84944595D01*
X140849757Y-84920178D01*
X140918030Y-84935030D01*
X140946285Y-84956181D01*
X141060213Y-85070109D01*
X141232179Y-85195048D01*
X141232181Y-85195049D01*
X141232184Y-85195051D01*
X141421588Y-85291557D01*
X141623757Y-85357246D01*
X141833713Y-85390500D01*
X141833714Y-85390500D01*
X142046286Y-85390500D01*
X142046287Y-85390500D01*
X142256243Y-85357246D01*
X142458412Y-85291557D01*
X142647816Y-85195051D01*
X142734471Y-85132093D01*
X142819786Y-85070109D01*
X142819788Y-85070106D01*
X142819792Y-85070104D01*
X142970104Y-84919792D01*
X142970106Y-84919788D01*
X142970109Y-84919786D01*
X143095048Y-84747820D01*
X143095047Y-84747820D01*
X143095051Y-84747816D01*
X143099514Y-84739054D01*
X143147488Y-84688259D01*
X143215308Y-84671463D01*
X143281444Y-84693999D01*
X143320486Y-84739056D01*
X143324951Y-84747820D01*
X143449890Y-84919786D01*
X143600213Y-85070109D01*
X143772179Y-85195048D01*
X143772181Y-85195049D01*
X143772184Y-85195051D01*
X143961588Y-85291557D01*
X144163757Y-85357246D01*
X144373713Y-85390500D01*
X144373714Y-85390500D01*
X144586286Y-85390500D01*
X144586287Y-85390500D01*
X144796243Y-85357246D01*
X144998412Y-85291557D01*
X145187816Y-85195051D01*
X145274471Y-85132093D01*
X145359786Y-85070109D01*
X145359788Y-85070106D01*
X145359792Y-85070104D01*
X145510104Y-84919792D01*
X145510106Y-84919788D01*
X145510109Y-84919786D01*
X145635048Y-84747820D01*
X145635047Y-84747820D01*
X145635051Y-84747816D01*
X145639514Y-84739054D01*
X145687488Y-84688259D01*
X145755308Y-84671463D01*
X145821444Y-84693999D01*
X145860486Y-84739056D01*
X145864951Y-84747820D01*
X145989890Y-84919786D01*
X146140213Y-85070109D01*
X146312179Y-85195048D01*
X146312181Y-85195049D01*
X146312184Y-85195051D01*
X146501588Y-85291557D01*
X146703757Y-85357246D01*
X146913713Y-85390500D01*
X146913714Y-85390500D01*
X147126286Y-85390500D01*
X147126287Y-85390500D01*
X147336243Y-85357246D01*
X147538412Y-85291557D01*
X147727816Y-85195051D01*
X147814471Y-85132093D01*
X147899786Y-85070109D01*
X147899788Y-85070106D01*
X147899792Y-85070104D01*
X148050104Y-84919792D01*
X148050106Y-84919788D01*
X148050109Y-84919786D01*
X148175048Y-84747820D01*
X148175047Y-84747820D01*
X148175051Y-84747816D01*
X148179514Y-84739054D01*
X148227488Y-84688259D01*
X148295308Y-84671463D01*
X148361444Y-84693999D01*
X148400486Y-84739056D01*
X148404951Y-84747820D01*
X148529890Y-84919786D01*
X148680213Y-85070109D01*
X148852179Y-85195048D01*
X148852181Y-85195049D01*
X148852184Y-85195051D01*
X149041588Y-85291557D01*
X149243757Y-85357246D01*
X149453713Y-85390500D01*
X149453714Y-85390500D01*
X149666286Y-85390500D01*
X149666287Y-85390500D01*
X149876243Y-85357246D01*
X150078412Y-85291557D01*
X150267816Y-85195051D01*
X150354471Y-85132093D01*
X150439786Y-85070109D01*
X150439788Y-85070106D01*
X150439792Y-85070104D01*
X150590104Y-84919792D01*
X150590106Y-84919788D01*
X150590109Y-84919786D01*
X150715048Y-84747820D01*
X150715047Y-84747820D01*
X150715051Y-84747816D01*
X150719514Y-84739054D01*
X150767488Y-84688259D01*
X150835308Y-84671463D01*
X150901444Y-84693999D01*
X150940486Y-84739056D01*
X150944951Y-84747820D01*
X151069890Y-84919786D01*
X151220213Y-85070109D01*
X151392179Y-85195048D01*
X151392181Y-85195049D01*
X151392184Y-85195051D01*
X151581588Y-85291557D01*
X151783757Y-85357246D01*
X151993713Y-85390500D01*
X151993714Y-85390500D01*
X152206286Y-85390500D01*
X152206287Y-85390500D01*
X152416243Y-85357246D01*
X152618412Y-85291557D01*
X152807816Y-85195051D01*
X152894471Y-85132093D01*
X152979786Y-85070109D01*
X152979788Y-85070106D01*
X152979792Y-85070104D01*
X153130104Y-84919792D01*
X153130106Y-84919788D01*
X153130109Y-84919786D01*
X153255048Y-84747820D01*
X153255047Y-84747820D01*
X153255051Y-84747816D01*
X153259514Y-84739054D01*
X153307488Y-84688259D01*
X153375308Y-84671463D01*
X153441444Y-84693999D01*
X153480486Y-84739056D01*
X153484951Y-84747820D01*
X153609890Y-84919786D01*
X153760213Y-85070109D01*
X153932179Y-85195048D01*
X153932181Y-85195049D01*
X153932184Y-85195051D01*
X154121588Y-85291557D01*
X154323757Y-85357246D01*
X154533713Y-85390500D01*
X154533714Y-85390500D01*
X154746286Y-85390500D01*
X154746287Y-85390500D01*
X154956243Y-85357246D01*
X155158412Y-85291557D01*
X155347816Y-85195051D01*
X155434471Y-85132093D01*
X155519786Y-85070109D01*
X155519788Y-85070106D01*
X155519792Y-85070104D01*
X155670104Y-84919792D01*
X155670106Y-84919788D01*
X155670109Y-84919786D01*
X155795048Y-84747820D01*
X155795047Y-84747820D01*
X155795051Y-84747816D01*
X155799514Y-84739054D01*
X155847488Y-84688259D01*
X155915308Y-84671463D01*
X155981444Y-84693999D01*
X156020486Y-84739056D01*
X156024951Y-84747820D01*
X156149890Y-84919786D01*
X156300213Y-85070109D01*
X156472179Y-85195048D01*
X156472181Y-85195049D01*
X156472184Y-85195051D01*
X156661588Y-85291557D01*
X156863757Y-85357246D01*
X157073713Y-85390500D01*
X157073714Y-85390500D01*
X157286286Y-85390500D01*
X157286287Y-85390500D01*
X157496243Y-85357246D01*
X157698412Y-85291557D01*
X157887816Y-85195051D01*
X157974471Y-85132093D01*
X158059786Y-85070109D01*
X158059788Y-85070106D01*
X158059792Y-85070104D01*
X158210104Y-84919792D01*
X158210106Y-84919788D01*
X158210109Y-84919786D01*
X158335048Y-84747820D01*
X158335047Y-84747820D01*
X158335051Y-84747816D01*
X158339514Y-84739054D01*
X158387488Y-84688259D01*
X158455308Y-84671463D01*
X158521444Y-84693999D01*
X158560486Y-84739056D01*
X158564951Y-84747820D01*
X158689890Y-84919786D01*
X158840213Y-85070109D01*
X159012179Y-85195048D01*
X159012181Y-85195049D01*
X159012184Y-85195051D01*
X159201588Y-85291557D01*
X159403757Y-85357246D01*
X159613713Y-85390500D01*
X159613714Y-85390500D01*
X159826286Y-85390500D01*
X159826287Y-85390500D01*
X160036243Y-85357246D01*
X160238412Y-85291557D01*
X160427816Y-85195051D01*
X160514471Y-85132093D01*
X160599786Y-85070109D01*
X160599788Y-85070106D01*
X160599792Y-85070104D01*
X160750104Y-84919792D01*
X160750106Y-84919788D01*
X160750109Y-84919786D01*
X160875048Y-84747820D01*
X160875047Y-84747820D01*
X160875051Y-84747816D01*
X160879514Y-84739054D01*
X160927488Y-84688259D01*
X160995308Y-84671463D01*
X161061444Y-84693999D01*
X161100486Y-84739056D01*
X161104951Y-84747820D01*
X161229890Y-84919786D01*
X161380213Y-85070109D01*
X161552179Y-85195048D01*
X161552181Y-85195049D01*
X161552184Y-85195051D01*
X161741588Y-85291557D01*
X161943757Y-85357246D01*
X162153713Y-85390500D01*
X162153714Y-85390500D01*
X162366286Y-85390500D01*
X162366287Y-85390500D01*
X162576243Y-85357246D01*
X162778412Y-85291557D01*
X162967816Y-85195051D01*
X163054471Y-85132093D01*
X163139786Y-85070109D01*
X163139788Y-85070106D01*
X163139792Y-85070104D01*
X163290104Y-84919792D01*
X163290106Y-84919788D01*
X163290109Y-84919786D01*
X163415048Y-84747820D01*
X163415047Y-84747820D01*
X163415051Y-84747816D01*
X163419514Y-84739054D01*
X163467488Y-84688259D01*
X163535308Y-84671463D01*
X163601444Y-84693999D01*
X163640486Y-84739056D01*
X163644951Y-84747820D01*
X163769890Y-84919786D01*
X163920213Y-85070109D01*
X164092179Y-85195048D01*
X164092181Y-85195049D01*
X164092184Y-85195051D01*
X164281588Y-85291557D01*
X164483757Y-85357246D01*
X164693713Y-85390500D01*
X164693714Y-85390500D01*
X164906286Y-85390500D01*
X164906287Y-85390500D01*
X165116243Y-85357246D01*
X165318412Y-85291557D01*
X165507816Y-85195051D01*
X165594471Y-85132093D01*
X165679786Y-85070109D01*
X165679788Y-85070106D01*
X165679792Y-85070104D01*
X165830104Y-84919792D01*
X165830106Y-84919788D01*
X165830109Y-84919786D01*
X165955048Y-84747820D01*
X165955047Y-84747820D01*
X165955051Y-84747816D01*
X165959514Y-84739054D01*
X166007488Y-84688259D01*
X166075308Y-84671463D01*
X166141444Y-84693999D01*
X166180486Y-84739056D01*
X166184951Y-84747820D01*
X166309890Y-84919786D01*
X166460213Y-85070109D01*
X166632179Y-85195048D01*
X166632181Y-85195049D01*
X166632184Y-85195051D01*
X166821588Y-85291557D01*
X167023757Y-85357246D01*
X167233713Y-85390500D01*
X167233714Y-85390500D01*
X167446286Y-85390500D01*
X167446287Y-85390500D01*
X167656243Y-85357246D01*
X167858412Y-85291557D01*
X168047816Y-85195051D01*
X168134471Y-85132093D01*
X168219786Y-85070109D01*
X168219788Y-85070106D01*
X168219792Y-85070104D01*
X168370104Y-84919792D01*
X168370106Y-84919788D01*
X168370109Y-84919786D01*
X168495048Y-84747820D01*
X168495047Y-84747820D01*
X168495051Y-84747816D01*
X168499514Y-84739054D01*
X168547488Y-84688259D01*
X168615308Y-84671463D01*
X168681444Y-84693999D01*
X168720486Y-84739056D01*
X168724951Y-84747820D01*
X168849890Y-84919786D01*
X169000213Y-85070109D01*
X169172179Y-85195048D01*
X169172181Y-85195049D01*
X169172184Y-85195051D01*
X169361588Y-85291557D01*
X169563757Y-85357246D01*
X169773713Y-85390500D01*
X169773714Y-85390500D01*
X169986286Y-85390500D01*
X169986287Y-85390500D01*
X170196243Y-85357246D01*
X170398412Y-85291557D01*
X170587816Y-85195051D01*
X170674471Y-85132093D01*
X170759786Y-85070109D01*
X170759788Y-85070106D01*
X170759792Y-85070104D01*
X170910104Y-84919792D01*
X170910106Y-84919788D01*
X170910109Y-84919786D01*
X171035048Y-84747820D01*
X171035047Y-84747820D01*
X171035051Y-84747816D01*
X171039514Y-84739054D01*
X171087488Y-84688259D01*
X171155308Y-84671463D01*
X171221444Y-84693999D01*
X171260486Y-84739056D01*
X171264951Y-84747820D01*
X171389890Y-84919786D01*
X171540213Y-85070109D01*
X171712179Y-85195048D01*
X171712181Y-85195049D01*
X171712184Y-85195051D01*
X171901588Y-85291557D01*
X172103757Y-85357246D01*
X172313713Y-85390500D01*
X172313714Y-85390500D01*
X172526286Y-85390500D01*
X172526287Y-85390500D01*
X172736243Y-85357246D01*
X172938412Y-85291557D01*
X173127816Y-85195051D01*
X173214471Y-85132093D01*
X173299786Y-85070109D01*
X173299788Y-85070106D01*
X173299792Y-85070104D01*
X173450104Y-84919792D01*
X173450106Y-84919788D01*
X173450109Y-84919786D01*
X173575048Y-84747820D01*
X173575047Y-84747820D01*
X173575051Y-84747816D01*
X173579514Y-84739054D01*
X173627488Y-84688259D01*
X173695308Y-84671463D01*
X173761444Y-84693999D01*
X173800486Y-84739056D01*
X173804951Y-84747820D01*
X173929890Y-84919786D01*
X173998355Y-84988251D01*
X174031840Y-85049574D01*
X174026856Y-85119266D01*
X173984984Y-85175199D01*
X173927012Y-85197711D01*
X173927132Y-85198311D01*
X173923721Y-85198989D01*
X173922834Y-85199334D01*
X173921159Y-85199498D01*
X173766510Y-85230261D01*
X173766498Y-85230264D01*
X173620827Y-85290602D01*
X173620814Y-85290609D01*
X173489711Y-85378210D01*
X173489707Y-85378213D01*
X173378213Y-85489707D01*
X173378210Y-85489711D01*
X173290609Y-85620814D01*
X173290602Y-85620827D01*
X173230264Y-85766498D01*
X173230261Y-85766510D01*
X173199500Y-85921153D01*
X173199500Y-86078846D01*
X173230261Y-86233489D01*
X173230264Y-86233501D01*
X173290602Y-86379172D01*
X173290609Y-86379185D01*
X173378210Y-86510288D01*
X173378213Y-86510292D01*
X173489707Y-86621786D01*
X173489711Y-86621789D01*
X173620814Y-86709390D01*
X173620827Y-86709397D01*
X173694013Y-86739711D01*
X173766503Y-86769737D01*
X173921153Y-86800499D01*
X173921156Y-86800500D01*
X173921158Y-86800500D01*
X174078844Y-86800500D01*
X174078845Y-86800499D01*
X174233497Y-86769737D01*
X174379179Y-86709394D01*
X174510289Y-86621789D01*
X174621789Y-86510289D01*
X174709394Y-86379179D01*
X174769737Y-86233497D01*
X174800500Y-86078842D01*
X174800500Y-85921158D01*
X174800500Y-85921155D01*
X174800499Y-85921153D01*
X174774531Y-85790606D01*
X174769737Y-85766503D01*
X174767679Y-85761534D01*
X174709397Y-85620827D01*
X174709390Y-85620814D01*
X174677701Y-85573388D01*
X174656823Y-85506710D01*
X174675308Y-85439330D01*
X174727287Y-85392640D01*
X174796257Y-85381464D01*
X174800163Y-85382018D01*
X174853713Y-85390500D01*
X174853715Y-85390500D01*
X175066286Y-85390500D01*
X175066287Y-85390500D01*
X175276243Y-85357246D01*
X175478412Y-85291557D01*
X175667816Y-85195051D01*
X175754471Y-85132093D01*
X175839786Y-85070109D01*
X175839788Y-85070106D01*
X175839792Y-85070104D01*
X175990104Y-84919792D01*
X175990106Y-84919788D01*
X175990109Y-84919786D01*
X176115048Y-84747820D01*
X176115047Y-84747820D01*
X176115051Y-84747816D01*
X176119514Y-84739054D01*
X176167488Y-84688259D01*
X176235308Y-84671463D01*
X176301444Y-84693999D01*
X176340486Y-84739056D01*
X176344951Y-84747820D01*
X176469890Y-84919786D01*
X176620213Y-85070109D01*
X176792179Y-85195048D01*
X176792181Y-85195049D01*
X176792184Y-85195051D01*
X176981588Y-85291557D01*
X177183757Y-85357246D01*
X177393713Y-85390500D01*
X177393714Y-85390500D01*
X177606286Y-85390500D01*
X177606287Y-85390500D01*
X177816243Y-85357246D01*
X178018412Y-85291557D01*
X178207816Y-85195051D01*
X178294471Y-85132093D01*
X178379786Y-85070109D01*
X178379788Y-85070106D01*
X178379792Y-85070104D01*
X178530104Y-84919792D01*
X178530106Y-84919788D01*
X178530109Y-84919786D01*
X178655048Y-84747820D01*
X178655047Y-84747820D01*
X178655051Y-84747816D01*
X178659514Y-84739054D01*
X178707488Y-84688259D01*
X178775308Y-84671463D01*
X178841444Y-84693999D01*
X178880486Y-84739056D01*
X178884951Y-84747820D01*
X179009890Y-84919786D01*
X179160213Y-85070109D01*
X179332179Y-85195048D01*
X179332181Y-85195049D01*
X179332184Y-85195051D01*
X179521588Y-85291557D01*
X179723757Y-85357246D01*
X179933713Y-85390500D01*
X179933714Y-85390500D01*
X180146286Y-85390500D01*
X180146287Y-85390500D01*
X180356243Y-85357246D01*
X180558412Y-85291557D01*
X180747816Y-85195051D01*
X180834471Y-85132093D01*
X180919786Y-85070109D01*
X180919788Y-85070106D01*
X180919792Y-85070104D01*
X181070104Y-84919792D01*
X181070106Y-84919788D01*
X181070109Y-84919786D01*
X181195048Y-84747820D01*
X181195047Y-84747820D01*
X181195051Y-84747816D01*
X181199514Y-84739054D01*
X181247488Y-84688259D01*
X181315308Y-84671463D01*
X181381444Y-84693999D01*
X181420486Y-84739056D01*
X181424951Y-84747820D01*
X181549890Y-84919786D01*
X181701650Y-85071546D01*
X181735135Y-85132869D01*
X181730151Y-85202561D01*
X181688279Y-85258494D01*
X181661422Y-85273788D01*
X181620824Y-85290604D01*
X181620814Y-85290609D01*
X181489711Y-85378210D01*
X181489707Y-85378213D01*
X181378213Y-85489707D01*
X181378210Y-85489711D01*
X181290609Y-85620814D01*
X181290602Y-85620827D01*
X181230264Y-85766498D01*
X181230261Y-85766510D01*
X181199500Y-85921153D01*
X181199500Y-86078846D01*
X181230261Y-86233489D01*
X181230264Y-86233501D01*
X181249816Y-86280704D01*
X181257285Y-86350174D01*
X181226009Y-86412653D01*
X181165920Y-86448305D01*
X181136887Y-86452145D01*
X178950657Y-86480912D01*
X178934494Y-86481125D01*
X178933657Y-86481136D01*
X178781703Y-86481136D01*
X178770949Y-86483275D01*
X178759548Y-86483425D01*
X178759548Y-86483426D01*
X177500001Y-86499999D01*
X177500000Y-86500000D01*
X177439315Y-88381177D01*
X177417479Y-88447547D01*
X177403063Y-88464857D01*
X177378213Y-88489708D01*
X177378208Y-88489714D01*
X177290609Y-88620814D01*
X177290602Y-88620827D01*
X177230264Y-88766498D01*
X177230261Y-88766510D01*
X177199500Y-88921153D01*
X177199500Y-89078846D01*
X177230261Y-89233489D01*
X177230264Y-89233501D01*
X177290602Y-89379172D01*
X177290609Y-89379185D01*
X177379639Y-89512426D01*
X177400517Y-89579103D01*
X177400473Y-89585315D01*
X177264028Y-93815093D01*
X177242192Y-93881463D01*
X177187940Y-93925492D01*
X177118497Y-93933200D01*
X177055910Y-93902141D01*
X177021431Y-93847087D01*
X177019737Y-93841503D01*
X176959397Y-93695827D01*
X176959390Y-93695814D01*
X176871789Y-93564711D01*
X176871786Y-93564707D01*
X176760292Y-93453213D01*
X176760288Y-93453210D01*
X176647881Y-93378102D01*
X176603076Y-93324490D01*
X176594369Y-93255165D01*
X176624523Y-93192137D01*
X176647881Y-93171898D01*
X176711824Y-93129172D01*
X176760289Y-93096789D01*
X176871789Y-92985289D01*
X176959394Y-92854179D01*
X177019737Y-92708497D01*
X177050500Y-92553842D01*
X177050500Y-92396158D01*
X177050500Y-92396155D01*
X177050499Y-92396153D01*
X177019738Y-92241510D01*
X177019737Y-92241503D01*
X176993919Y-92179172D01*
X176959397Y-92095827D01*
X176959390Y-92095814D01*
X176871789Y-91964711D01*
X176871786Y-91964707D01*
X176760292Y-91853213D01*
X176760288Y-91853210D01*
X176629185Y-91765609D01*
X176629172Y-91765602D01*
X176483501Y-91705264D01*
X176483489Y-91705261D01*
X176328845Y-91674500D01*
X176328842Y-91674500D01*
X176171158Y-91674500D01*
X176171155Y-91674500D01*
X176016510Y-91705261D01*
X176016498Y-91705264D01*
X175870827Y-91765602D01*
X175870814Y-91765609D01*
X175739711Y-91853210D01*
X175739707Y-91853213D01*
X175628213Y-91964707D01*
X175628210Y-91964711D01*
X175540609Y-92095814D01*
X175540602Y-92095827D01*
X175480264Y-92241498D01*
X175480261Y-92241510D01*
X175449500Y-92396153D01*
X175449500Y-92553846D01*
X175480261Y-92708489D01*
X175480264Y-92708501D01*
X175540602Y-92854172D01*
X175540609Y-92854185D01*
X175628210Y-92985288D01*
X175628213Y-92985292D01*
X175739707Y-93096786D01*
X175739711Y-93096789D01*
X175852118Y-93171898D01*
X175896923Y-93225510D01*
X175905630Y-93294835D01*
X175875475Y-93357863D01*
X175852118Y-93378102D01*
X175739711Y-93453210D01*
X175739707Y-93453213D01*
X175628213Y-93564707D01*
X175628210Y-93564711D01*
X175540609Y-93695814D01*
X175540602Y-93695827D01*
X175480264Y-93841498D01*
X175480261Y-93841510D01*
X175449500Y-93996153D01*
X175449500Y-94153846D01*
X175480261Y-94308489D01*
X175480264Y-94308501D01*
X175540602Y-94454172D01*
X175540609Y-94454185D01*
X175628210Y-94585288D01*
X175628213Y-94585292D01*
X175739707Y-94696786D01*
X175739711Y-94696789D01*
X175852118Y-94771898D01*
X175896923Y-94825510D01*
X175905630Y-94894835D01*
X175875475Y-94957863D01*
X175852118Y-94978102D01*
X175739711Y-95053210D01*
X175739707Y-95053213D01*
X175628213Y-95164707D01*
X175628210Y-95164711D01*
X175540609Y-95295814D01*
X175540602Y-95295827D01*
X175480264Y-95441498D01*
X175480261Y-95441510D01*
X175449500Y-95596153D01*
X175449500Y-95753846D01*
X175480261Y-95908489D01*
X175480264Y-95908501D01*
X175540602Y-96054172D01*
X175540609Y-96054185D01*
X175628210Y-96185288D01*
X175628213Y-96185292D01*
X175739707Y-96296786D01*
X175739711Y-96296789D01*
X175852118Y-96371898D01*
X175896923Y-96425510D01*
X175905630Y-96494835D01*
X175875475Y-96557863D01*
X175852118Y-96578102D01*
X175739711Y-96653210D01*
X175739707Y-96653213D01*
X175628213Y-96764707D01*
X175628210Y-96764711D01*
X175540609Y-96895814D01*
X175540602Y-96895827D01*
X175480264Y-97041498D01*
X175480261Y-97041510D01*
X175449500Y-97196153D01*
X175449500Y-97353846D01*
X175480261Y-97508489D01*
X175480264Y-97508501D01*
X175540602Y-97654172D01*
X175540609Y-97654185D01*
X175628210Y-97785288D01*
X175628213Y-97785292D01*
X175739707Y-97896786D01*
X175739711Y-97896789D01*
X175870814Y-97984390D01*
X175870827Y-97984397D01*
X176016498Y-98044735D01*
X176016503Y-98044737D01*
X176171153Y-98075499D01*
X176171156Y-98075500D01*
X176171158Y-98075500D01*
X176328844Y-98075500D01*
X176328845Y-98075499D01*
X176483497Y-98044737D01*
X176629179Y-97984394D01*
X176760289Y-97896789D01*
X176871789Y-97785289D01*
X176908332Y-97730597D01*
X176961945Y-97685792D01*
X177031269Y-97677085D01*
X177094297Y-97707239D01*
X177131017Y-97766682D01*
X177135371Y-97803486D01*
X177003871Y-101879998D01*
X176982035Y-101946368D01*
X176927783Y-101990397D01*
X176879935Y-102000000D01*
X151124000Y-102000000D01*
X151056961Y-101980315D01*
X151011206Y-101927511D01*
X151000000Y-101876000D01*
X151000000Y-101555811D01*
X151009439Y-101508358D01*
X151019737Y-101483497D01*
X151050500Y-101328842D01*
X151050500Y-101171158D01*
X151050500Y-101171155D01*
X151050499Y-101171153D01*
X151019739Y-101016511D01*
X151019738Y-101016510D01*
X151019737Y-101016503D01*
X151009437Y-100991636D01*
X151000000Y-100944189D01*
X151000000Y-99921153D01*
X163199500Y-99921153D01*
X163199500Y-100078846D01*
X163230261Y-100233489D01*
X163230264Y-100233501D01*
X163290602Y-100379172D01*
X163290609Y-100379185D01*
X163378210Y-100510288D01*
X163378213Y-100510292D01*
X163489707Y-100621786D01*
X163489711Y-100621789D01*
X163620814Y-100709390D01*
X163620827Y-100709397D01*
X163694013Y-100739711D01*
X163766503Y-100769737D01*
X163921153Y-100800499D01*
X163921156Y-100800500D01*
X163921158Y-100800500D01*
X164078844Y-100800500D01*
X164078845Y-100800499D01*
X164233497Y-100769737D01*
X164379179Y-100709394D01*
X164510289Y-100621789D01*
X164621789Y-100510289D01*
X164709394Y-100379179D01*
X164769737Y-100233497D01*
X164800500Y-100078842D01*
X164800500Y-99921158D01*
X164800500Y-99921155D01*
X164800499Y-99921153D01*
X164769738Y-99766510D01*
X164769737Y-99766503D01*
X164709794Y-99621786D01*
X164709397Y-99620827D01*
X164709390Y-99620814D01*
X164621789Y-99489711D01*
X164621786Y-99489707D01*
X164510292Y-99378213D01*
X164510288Y-99378210D01*
X164379185Y-99290609D01*
X164379172Y-99290602D01*
X164233501Y-99230264D01*
X164233489Y-99230261D01*
X164078845Y-99199500D01*
X164078842Y-99199500D01*
X163921158Y-99199500D01*
X163921155Y-99199500D01*
X163766510Y-99230261D01*
X163766498Y-99230264D01*
X163620827Y-99290602D01*
X163620814Y-99290609D01*
X163489711Y-99378210D01*
X163489707Y-99378213D01*
X163378213Y-99489707D01*
X163378210Y-99489711D01*
X163290609Y-99620814D01*
X163290602Y-99620827D01*
X163230264Y-99766498D01*
X163230261Y-99766510D01*
X163199500Y-99921153D01*
X151000000Y-99921153D01*
X151000000Y-98921153D01*
X167199500Y-98921153D01*
X167199500Y-99078846D01*
X167230261Y-99233489D01*
X167230264Y-99233501D01*
X167290602Y-99379172D01*
X167290609Y-99379185D01*
X167378210Y-99510288D01*
X167378213Y-99510292D01*
X167489707Y-99621786D01*
X167489711Y-99621789D01*
X167620814Y-99709390D01*
X167620827Y-99709397D01*
X167743693Y-99760289D01*
X167766503Y-99769737D01*
X167921153Y-99800499D01*
X167921156Y-99800500D01*
X167921158Y-99800500D01*
X168078844Y-99800500D01*
X168078845Y-99800499D01*
X168233497Y-99769737D01*
X168379179Y-99709394D01*
X168510289Y-99621789D01*
X168621789Y-99510289D01*
X168709394Y-99379179D01*
X168769737Y-99233497D01*
X168800500Y-99078842D01*
X168800500Y-98921158D01*
X168800500Y-98921155D01*
X168800499Y-98921153D01*
X168769738Y-98766510D01*
X168769737Y-98766503D01*
X168759883Y-98742712D01*
X168709397Y-98620827D01*
X168709390Y-98620814D01*
X168621789Y-98489711D01*
X168621786Y-98489707D01*
X168510292Y-98378213D01*
X168510288Y-98378210D01*
X168379185Y-98290609D01*
X168379172Y-98290602D01*
X168233501Y-98230264D01*
X168233489Y-98230261D01*
X168078845Y-98199500D01*
X168078842Y-98199500D01*
X167921158Y-98199500D01*
X167921155Y-98199500D01*
X167766510Y-98230261D01*
X167766498Y-98230264D01*
X167620827Y-98290602D01*
X167620814Y-98290609D01*
X167489711Y-98378210D01*
X167489707Y-98378213D01*
X167378213Y-98489707D01*
X167378210Y-98489711D01*
X167290609Y-98620814D01*
X167290602Y-98620827D01*
X167230264Y-98766498D01*
X167230261Y-98766510D01*
X167199500Y-98921153D01*
X151000000Y-98921153D01*
X151000000Y-98380513D01*
X151019685Y-98313474D01*
X151020898Y-98311622D01*
X151026795Y-98302797D01*
X151109394Y-98179179D01*
X151169737Y-98033497D01*
X151200500Y-97878842D01*
X151200500Y-97721158D01*
X151200500Y-97721155D01*
X151200499Y-97721153D01*
X151187177Y-97654179D01*
X151169737Y-97566503D01*
X151169735Y-97566498D01*
X151109397Y-97420827D01*
X151109389Y-97420813D01*
X151094337Y-97398286D01*
X151073458Y-97331609D01*
X151091942Y-97264229D01*
X151128551Y-97226290D01*
X151135289Y-97221789D01*
X151246789Y-97110289D01*
X151334394Y-96979179D01*
X151394737Y-96833497D01*
X151425500Y-96678842D01*
X151425500Y-96521158D01*
X151425500Y-96521155D01*
X151425499Y-96521153D01*
X151420264Y-96494835D01*
X151394737Y-96366503D01*
X151375812Y-96320814D01*
X151334397Y-96220827D01*
X151334390Y-96220814D01*
X151246789Y-96089711D01*
X151246786Y-96089707D01*
X151135292Y-95978213D01*
X151055108Y-95924635D01*
X151050017Y-95918543D01*
X151042797Y-95915246D01*
X151027933Y-95892117D01*
X151010304Y-95871022D01*
X151008352Y-95861648D01*
X151005023Y-95856468D01*
X151000000Y-95821533D01*
X151000000Y-95778465D01*
X151019685Y-95711426D01*
X151055107Y-95675364D01*
X151135289Y-95621789D01*
X151246789Y-95510289D01*
X151334394Y-95379179D01*
X151337854Y-95370827D01*
X151368922Y-95295821D01*
X151394737Y-95233497D01*
X151425500Y-95078842D01*
X151425500Y-94921158D01*
X151425500Y-94921155D01*
X151425499Y-94921153D01*
X151417150Y-94879179D01*
X151394737Y-94766503D01*
X151394735Y-94766498D01*
X151334397Y-94620827D01*
X151334390Y-94620814D01*
X151246789Y-94489711D01*
X151246786Y-94489707D01*
X151135292Y-94378213D01*
X151055108Y-94324635D01*
X151050017Y-94318543D01*
X151042797Y-94315246D01*
X151027933Y-94292117D01*
X151010304Y-94271022D01*
X151008352Y-94261648D01*
X151005023Y-94256468D01*
X151000000Y-94221533D01*
X151000000Y-94178465D01*
X151019685Y-94111426D01*
X151055107Y-94075364D01*
X151135289Y-94021789D01*
X151246789Y-93910289D01*
X151334394Y-93779179D01*
X151394737Y-93633497D01*
X151425500Y-93478842D01*
X151425500Y-93321158D01*
X151425500Y-93321155D01*
X151425499Y-93321153D01*
X151420264Y-93294835D01*
X151394737Y-93166503D01*
X151390081Y-93155263D01*
X151334397Y-93020827D01*
X151334390Y-93020814D01*
X151246789Y-92889711D01*
X151246786Y-92889707D01*
X151135292Y-92778213D01*
X151055108Y-92724635D01*
X151050017Y-92718543D01*
X151042797Y-92715246D01*
X151027933Y-92692117D01*
X151010304Y-92671022D01*
X151008352Y-92661648D01*
X151005023Y-92656468D01*
X151000000Y-92621533D01*
X151000000Y-92578465D01*
X151019685Y-92511426D01*
X151055107Y-92475364D01*
X151135289Y-92421789D01*
X151246789Y-92310289D01*
X151334394Y-92179179D01*
X151337719Y-92171153D01*
X151368922Y-92095821D01*
X151394737Y-92033497D01*
X151425500Y-91878842D01*
X151425500Y-91721158D01*
X151425500Y-91721155D01*
X151425499Y-91721153D01*
X152074500Y-91721153D01*
X152074500Y-91878846D01*
X152105261Y-92033489D01*
X152105264Y-92033501D01*
X152165602Y-92179172D01*
X152165609Y-92179185D01*
X152253210Y-92310288D01*
X152253213Y-92310292D01*
X152364707Y-92421786D01*
X152364711Y-92421789D01*
X152477118Y-92496898D01*
X152521923Y-92550510D01*
X152530630Y-92619835D01*
X152500475Y-92682863D01*
X152477118Y-92703102D01*
X152364711Y-92778210D01*
X152364707Y-92778213D01*
X152253213Y-92889707D01*
X152253210Y-92889711D01*
X152165609Y-93020814D01*
X152165602Y-93020827D01*
X152105264Y-93166498D01*
X152105261Y-93166510D01*
X152074500Y-93321153D01*
X152074500Y-93478846D01*
X152105261Y-93633489D01*
X152105264Y-93633501D01*
X152165602Y-93779172D01*
X152165609Y-93779185D01*
X152253210Y-93910288D01*
X152253213Y-93910292D01*
X152364707Y-94021786D01*
X152364711Y-94021789D01*
X152477118Y-94096898D01*
X152521923Y-94150510D01*
X152530630Y-94219835D01*
X152500475Y-94282863D01*
X152477118Y-94303102D01*
X152364711Y-94378210D01*
X152364707Y-94378213D01*
X152253213Y-94489707D01*
X152253210Y-94489711D01*
X152165609Y-94620814D01*
X152165602Y-94620827D01*
X152105264Y-94766498D01*
X152105261Y-94766510D01*
X152074500Y-94921153D01*
X152074500Y-95078846D01*
X152105261Y-95233489D01*
X152105264Y-95233501D01*
X152165602Y-95379172D01*
X152165609Y-95379185D01*
X152253210Y-95510288D01*
X152253213Y-95510292D01*
X152364707Y-95621786D01*
X152364711Y-95621789D01*
X152477118Y-95696898D01*
X152521923Y-95750510D01*
X152530630Y-95819835D01*
X152500475Y-95882863D01*
X152477118Y-95903102D01*
X152364711Y-95978210D01*
X152364707Y-95978213D01*
X152253213Y-96089707D01*
X152253210Y-96089711D01*
X152165609Y-96220814D01*
X152165602Y-96220827D01*
X152105264Y-96366498D01*
X152105261Y-96366510D01*
X152074500Y-96521153D01*
X152074500Y-96678846D01*
X152105261Y-96833489D01*
X152105264Y-96833501D01*
X152165602Y-96979172D01*
X152165609Y-96979185D01*
X152253210Y-97110288D01*
X152253213Y-97110292D01*
X152364707Y-97221786D01*
X152364711Y-97221789D01*
X152495814Y-97309390D01*
X152495827Y-97309397D01*
X152603138Y-97353846D01*
X152641503Y-97369737D01*
X152785028Y-97398286D01*
X152796153Y-97400499D01*
X152796156Y-97400500D01*
X152796158Y-97400500D01*
X152953844Y-97400500D01*
X152953845Y-97400499D01*
X153108497Y-97369737D01*
X153254179Y-97309394D01*
X153385289Y-97221789D01*
X153496789Y-97110289D01*
X153584394Y-96979179D01*
X153644737Y-96833497D01*
X153675500Y-96678842D01*
X153675500Y-96621153D01*
X164799500Y-96621153D01*
X164799500Y-96778846D01*
X164830261Y-96933489D01*
X164830264Y-96933501D01*
X164890602Y-97079172D01*
X164890609Y-97079185D01*
X164978210Y-97210288D01*
X164978213Y-97210292D01*
X165089707Y-97321786D01*
X165089711Y-97321789D01*
X165220814Y-97409390D01*
X165220827Y-97409397D01*
X165366498Y-97469735D01*
X165366503Y-97469737D01*
X165521153Y-97500499D01*
X165521156Y-97500500D01*
X165521158Y-97500500D01*
X165678844Y-97500500D01*
X165678845Y-97500499D01*
X165833497Y-97469737D01*
X165979179Y-97409394D01*
X166110289Y-97321789D01*
X166221789Y-97210289D01*
X166309394Y-97079179D01*
X166369737Y-96933497D01*
X166400500Y-96778842D01*
X166400500Y-96621158D01*
X166400500Y-96621155D01*
X166400499Y-96621153D01*
X166392083Y-96578842D01*
X166369737Y-96466503D01*
X166330551Y-96371898D01*
X166309397Y-96320827D01*
X166309390Y-96320814D01*
X166221789Y-96189711D01*
X166221786Y-96189707D01*
X166110292Y-96078213D01*
X166110288Y-96078210D01*
X165979185Y-95990609D01*
X165979172Y-95990602D01*
X165833501Y-95930264D01*
X165833489Y-95930261D01*
X165678845Y-95899500D01*
X165678842Y-95899500D01*
X165521158Y-95899500D01*
X165521155Y-95899500D01*
X165366510Y-95930261D01*
X165366498Y-95930264D01*
X165220827Y-95990602D01*
X165220814Y-95990609D01*
X165089711Y-96078210D01*
X165089707Y-96078213D01*
X164978213Y-96189707D01*
X164978210Y-96189711D01*
X164890609Y-96320814D01*
X164890602Y-96320827D01*
X164830264Y-96466498D01*
X164830261Y-96466510D01*
X164799500Y-96621153D01*
X153675500Y-96621153D01*
X153675500Y-96521158D01*
X153675500Y-96521155D01*
X153675499Y-96521153D01*
X153670264Y-96494835D01*
X153644737Y-96366503D01*
X153625812Y-96320814D01*
X153584397Y-96220827D01*
X153584390Y-96220814D01*
X153496789Y-96089711D01*
X153496786Y-96089707D01*
X153385292Y-95978213D01*
X153385288Y-95978210D01*
X153272881Y-95903102D01*
X153228076Y-95849490D01*
X153219369Y-95780165D01*
X153249523Y-95717137D01*
X153272881Y-95696898D01*
X153311411Y-95671153D01*
X153385289Y-95621789D01*
X153496789Y-95510289D01*
X153584394Y-95379179D01*
X153587854Y-95370827D01*
X153618922Y-95295821D01*
X153644737Y-95233497D01*
X153675500Y-95078842D01*
X153675500Y-94921158D01*
X153675500Y-94921155D01*
X153675499Y-94921153D01*
X153667150Y-94879179D01*
X153644737Y-94766503D01*
X153644735Y-94766498D01*
X153584397Y-94620827D01*
X153584390Y-94620814D01*
X153496789Y-94489711D01*
X153496786Y-94489707D01*
X153385292Y-94378213D01*
X153385288Y-94378210D01*
X153272881Y-94303102D01*
X153228076Y-94249490D01*
X153219369Y-94180165D01*
X153249523Y-94117137D01*
X153272881Y-94096898D01*
X153331543Y-94057701D01*
X153385289Y-94021789D01*
X153496789Y-93910289D01*
X153584394Y-93779179D01*
X153629139Y-93671153D01*
X155199500Y-93671153D01*
X155199500Y-93828846D01*
X155230261Y-93983489D01*
X155230264Y-93983501D01*
X155289930Y-94127548D01*
X155297399Y-94197017D01*
X155289930Y-94222452D01*
X155230264Y-94366498D01*
X155230261Y-94366510D01*
X155199500Y-94521153D01*
X155199500Y-94678846D01*
X155230261Y-94833489D01*
X155230264Y-94833501D01*
X155290602Y-94979172D01*
X155290609Y-94979185D01*
X155378210Y-95110288D01*
X155378213Y-95110292D01*
X155489707Y-95221786D01*
X155489710Y-95221788D01*
X155489711Y-95221789D01*
X155493305Y-95224190D01*
X155538112Y-95277801D01*
X155546822Y-95347126D01*
X155538979Y-95374747D01*
X155480264Y-95516498D01*
X155480261Y-95516510D01*
X155449500Y-95671153D01*
X155449500Y-95828846D01*
X155480261Y-95983489D01*
X155480264Y-95983501D01*
X155540602Y-96129172D01*
X155540609Y-96129185D01*
X155628210Y-96260288D01*
X155628213Y-96260292D01*
X155739707Y-96371786D01*
X155739711Y-96371789D01*
X155870814Y-96459390D01*
X155870827Y-96459397D01*
X155970070Y-96500504D01*
X156016503Y-96519737D01*
X156171153Y-96550499D01*
X156171156Y-96550500D01*
X156171158Y-96550500D01*
X156328844Y-96550500D01*
X156328845Y-96550499D01*
X156483497Y-96519737D01*
X156629179Y-96459394D01*
X156760289Y-96371789D01*
X156871789Y-96260289D01*
X156959394Y-96129179D01*
X157019737Y-95983497D01*
X157050500Y-95828842D01*
X157050500Y-95671158D01*
X157050500Y-95671155D01*
X157050499Y-95671153D01*
X157032204Y-95579179D01*
X157019737Y-95516503D01*
X156988674Y-95441510D01*
X156959397Y-95370827D01*
X156959390Y-95370814D01*
X156871789Y-95239711D01*
X156871786Y-95239707D01*
X156760291Y-95128212D01*
X156756691Y-95125807D01*
X156711886Y-95072195D01*
X156703178Y-95002870D01*
X156711017Y-94975258D01*
X156769737Y-94833497D01*
X156800500Y-94678842D01*
X156800500Y-94521158D01*
X156800500Y-94521155D01*
X156800499Y-94521153D01*
X156787177Y-94454178D01*
X156769737Y-94366503D01*
X156750552Y-94320185D01*
X156710070Y-94222452D01*
X156702601Y-94152983D01*
X156710070Y-94127548D01*
X156762694Y-94000500D01*
X156769737Y-93983497D01*
X156800500Y-93828842D01*
X156800500Y-93671158D01*
X156800500Y-93671155D01*
X156800499Y-93671153D01*
X156795929Y-93648176D01*
X156769737Y-93516503D01*
X156754138Y-93478844D01*
X156709397Y-93370827D01*
X156709390Y-93370814D01*
X156621789Y-93239711D01*
X156621786Y-93239707D01*
X156510292Y-93128213D01*
X156510288Y-93128210D01*
X156379185Y-93040609D01*
X156379172Y-93040602D01*
X156233501Y-92980264D01*
X156233489Y-92980261D01*
X156078845Y-92949500D01*
X156078842Y-92949500D01*
X155921158Y-92949500D01*
X155921155Y-92949500D01*
X155766510Y-92980261D01*
X155766498Y-92980264D01*
X155620827Y-93040602D01*
X155620814Y-93040609D01*
X155489711Y-93128210D01*
X155489707Y-93128213D01*
X155378213Y-93239707D01*
X155378210Y-93239711D01*
X155290609Y-93370814D01*
X155290602Y-93370827D01*
X155230264Y-93516498D01*
X155230261Y-93516510D01*
X155199500Y-93671153D01*
X153629139Y-93671153D01*
X153644737Y-93633497D01*
X153675500Y-93478842D01*
X153675500Y-93321158D01*
X153675500Y-93321155D01*
X153675499Y-93321153D01*
X153670264Y-93294835D01*
X153644737Y-93166503D01*
X153640081Y-93155263D01*
X153584397Y-93020827D01*
X153584390Y-93020814D01*
X153496789Y-92889711D01*
X153496786Y-92889707D01*
X153385289Y-92778210D01*
X153370259Y-92768168D01*
X153272881Y-92703102D01*
X153246180Y-92671153D01*
X159949500Y-92671153D01*
X159949500Y-92828846D01*
X159980261Y-92983489D01*
X159980264Y-92983501D01*
X160040602Y-93129172D01*
X160040609Y-93129185D01*
X160128210Y-93260288D01*
X160128213Y-93260292D01*
X160239707Y-93371786D01*
X160239711Y-93371789D01*
X160370814Y-93459390D01*
X160370827Y-93459397D01*
X160487445Y-93507701D01*
X160516503Y-93519737D01*
X160671153Y-93550499D01*
X160671156Y-93550500D01*
X160671158Y-93550500D01*
X160828844Y-93550500D01*
X160828845Y-93550499D01*
X160983497Y-93519737D01*
X161129179Y-93459394D01*
X161260289Y-93371789D01*
X161371789Y-93260289D01*
X161459394Y-93129179D01*
X161462719Y-93121153D01*
X161491984Y-93050499D01*
X161519737Y-92983497D01*
X161536422Y-92899617D01*
X161568806Y-92837706D01*
X161629522Y-92803132D01*
X161665066Y-92800748D01*
X161665066Y-92800500D01*
X161668774Y-92800500D01*
X161670191Y-92800405D01*
X161671156Y-92800500D01*
X161671158Y-92800500D01*
X161828844Y-92800500D01*
X161828845Y-92800499D01*
X161983497Y-92769737D01*
X162078794Y-92730264D01*
X162092377Y-92724638D01*
X162161846Y-92717169D01*
X162224325Y-92748444D01*
X162254390Y-92791746D01*
X162290604Y-92879176D01*
X162290609Y-92879185D01*
X162378210Y-93010288D01*
X162378213Y-93010292D01*
X162489707Y-93121786D01*
X162489711Y-93121789D01*
X162620814Y-93209390D01*
X162620827Y-93209397D01*
X162758683Y-93266498D01*
X162766503Y-93269737D01*
X162921153Y-93300499D01*
X162921156Y-93300500D01*
X162921158Y-93300500D01*
X163078844Y-93300500D01*
X163078845Y-93300499D01*
X163233497Y-93269737D01*
X163379179Y-93209394D01*
X163510289Y-93121789D01*
X163621789Y-93010289D01*
X163635539Y-92989711D01*
X163646898Y-92972712D01*
X163700510Y-92927906D01*
X163769835Y-92919199D01*
X163832862Y-92949353D01*
X163853102Y-92972712D01*
X163878207Y-93010284D01*
X163878213Y-93010292D01*
X163989707Y-93121786D01*
X163989711Y-93121789D01*
X164120814Y-93209390D01*
X164120827Y-93209397D01*
X164258683Y-93266498D01*
X164266503Y-93269737D01*
X164421153Y-93300499D01*
X164421156Y-93300500D01*
X164421158Y-93300500D01*
X164578844Y-93300500D01*
X164578845Y-93300499D01*
X164733497Y-93269737D01*
X164879179Y-93209394D01*
X165010289Y-93121789D01*
X165121789Y-93010289D01*
X165209394Y-92879179D01*
X165269737Y-92733497D01*
X165300500Y-92578842D01*
X165300500Y-92421158D01*
X165300500Y-92421155D01*
X165300499Y-92421153D01*
X167199500Y-92421153D01*
X167199500Y-92578846D01*
X167230261Y-92733489D01*
X167230264Y-92733501D01*
X167290602Y-92879172D01*
X167290609Y-92879185D01*
X167378210Y-93010288D01*
X167378213Y-93010292D01*
X167489707Y-93121786D01*
X167489711Y-93121789D01*
X167620814Y-93209390D01*
X167620827Y-93209397D01*
X167758683Y-93266498D01*
X167766503Y-93269737D01*
X167921153Y-93300499D01*
X167921156Y-93300500D01*
X167921158Y-93300500D01*
X168078844Y-93300500D01*
X168078845Y-93300499D01*
X168233497Y-93269737D01*
X168379179Y-93209394D01*
X168510289Y-93121789D01*
X168510925Y-93121153D01*
X170499500Y-93121153D01*
X170499500Y-93278846D01*
X170530261Y-93433489D01*
X170530264Y-93433501D01*
X170590602Y-93579172D01*
X170590609Y-93579185D01*
X170678210Y-93710288D01*
X170678213Y-93710292D01*
X170789707Y-93821786D01*
X170789711Y-93821789D01*
X170920814Y-93909390D01*
X170920827Y-93909397D01*
X171059721Y-93966928D01*
X171066503Y-93969737D01*
X171221153Y-94000499D01*
X171221156Y-94000500D01*
X171221158Y-94000500D01*
X171378844Y-94000500D01*
X171378845Y-94000499D01*
X171533497Y-93969737D01*
X171679179Y-93909394D01*
X171810289Y-93821789D01*
X171825113Y-93806964D01*
X171886434Y-93773479D01*
X171956126Y-93778462D01*
X172012060Y-93820332D01*
X172027356Y-93847191D01*
X172040606Y-93879179D01*
X172040609Y-93879185D01*
X172128210Y-94010288D01*
X172128213Y-94010292D01*
X172239707Y-94121786D01*
X172239711Y-94121789D01*
X172370814Y-94209390D01*
X172370827Y-94209397D01*
X172508695Y-94266503D01*
X172516503Y-94269737D01*
X172671153Y-94300499D01*
X172671156Y-94300500D01*
X172746561Y-94300500D01*
X172813600Y-94320185D01*
X172859355Y-94372989D01*
X172869299Y-94442147D01*
X172840274Y-94505703D01*
X172815452Y-94527602D01*
X172739711Y-94578210D01*
X172739707Y-94578213D01*
X172628213Y-94689707D01*
X172628210Y-94689711D01*
X172540609Y-94820814D01*
X172540602Y-94820827D01*
X172480264Y-94966498D01*
X172480261Y-94966510D01*
X172449500Y-95121153D01*
X172449500Y-95278846D01*
X172480261Y-95433489D01*
X172480264Y-95433501D01*
X172540602Y-95579172D01*
X172540609Y-95579185D01*
X172628210Y-95710288D01*
X172628213Y-95710292D01*
X172739707Y-95821786D01*
X172739711Y-95821789D01*
X172870814Y-95909390D01*
X172870827Y-95909397D01*
X173009721Y-95966928D01*
X173016503Y-95969737D01*
X173148148Y-95995923D01*
X173171153Y-96000499D01*
X173171156Y-96000500D01*
X173171158Y-96000500D01*
X173328844Y-96000500D01*
X173328845Y-96000499D01*
X173483497Y-95969737D01*
X173629179Y-95909394D01*
X173760289Y-95821789D01*
X173871789Y-95710289D01*
X173959394Y-95579179D01*
X174019737Y-95433497D01*
X174050500Y-95278842D01*
X174050500Y-95121158D01*
X174050500Y-95121155D01*
X174050499Y-95121153D01*
X174042924Y-95083072D01*
X174019737Y-94966503D01*
X174019735Y-94966498D01*
X173959397Y-94820827D01*
X173959390Y-94820814D01*
X173871789Y-94689711D01*
X173871786Y-94689707D01*
X173760292Y-94578213D01*
X173760288Y-94578210D01*
X173629185Y-94490609D01*
X173629172Y-94490602D01*
X173483501Y-94430264D01*
X173483489Y-94430261D01*
X173328845Y-94399500D01*
X173328842Y-94399500D01*
X173253439Y-94399500D01*
X173186400Y-94379815D01*
X173140645Y-94327011D01*
X173130701Y-94257853D01*
X173159726Y-94194297D01*
X173184548Y-94172398D01*
X173217305Y-94150510D01*
X173260289Y-94121789D01*
X173371789Y-94010289D01*
X173459394Y-93879179D01*
X173519737Y-93733497D01*
X173550500Y-93578842D01*
X173550500Y-93421158D01*
X173550500Y-93421155D01*
X173550499Y-93421153D01*
X173549218Y-93414711D01*
X173519737Y-93266503D01*
X173510721Y-93244737D01*
X173459397Y-93120827D01*
X173459390Y-93120814D01*
X173371789Y-92989711D01*
X173371786Y-92989707D01*
X173260292Y-92878213D01*
X173260288Y-92878210D01*
X173129185Y-92790609D01*
X173129172Y-92790602D01*
X172983501Y-92730264D01*
X172983489Y-92730261D01*
X172828845Y-92699500D01*
X172828842Y-92699500D01*
X172671158Y-92699500D01*
X172671155Y-92699500D01*
X172516510Y-92730261D01*
X172516498Y-92730264D01*
X172370827Y-92790602D01*
X172370814Y-92790609D01*
X172239711Y-92878210D01*
X172224883Y-92893038D01*
X172163559Y-92926521D01*
X172093867Y-92921535D01*
X172037935Y-92879662D01*
X172022643Y-92852806D01*
X172009397Y-92820827D01*
X172009390Y-92820814D01*
X171921789Y-92689711D01*
X171921786Y-92689707D01*
X171810292Y-92578213D01*
X171810288Y-92578210D01*
X171679185Y-92490609D01*
X171679172Y-92490602D01*
X171533501Y-92430264D01*
X171533489Y-92430261D01*
X171378845Y-92399500D01*
X171378842Y-92399500D01*
X171221158Y-92399500D01*
X171221155Y-92399500D01*
X171066510Y-92430261D01*
X171066498Y-92430264D01*
X170920827Y-92490602D01*
X170920814Y-92490609D01*
X170789711Y-92578210D01*
X170789707Y-92578213D01*
X170678213Y-92689707D01*
X170678210Y-92689711D01*
X170590609Y-92820814D01*
X170590602Y-92820827D01*
X170530264Y-92966498D01*
X170530261Y-92966510D01*
X170499500Y-93121153D01*
X168510925Y-93121153D01*
X168598908Y-93033169D01*
X168660229Y-92999685D01*
X168729920Y-93004669D01*
X168734042Y-93006291D01*
X168766497Y-93019735D01*
X168766499Y-93019735D01*
X168766503Y-93019737D01*
X168921153Y-93050499D01*
X168921156Y-93050500D01*
X168921158Y-93050500D01*
X169078844Y-93050500D01*
X169078845Y-93050499D01*
X169233497Y-93019737D01*
X169379179Y-92959394D01*
X169510289Y-92871789D01*
X169621789Y-92760289D01*
X169709394Y-92629179D01*
X169769737Y-92483497D01*
X169800500Y-92328842D01*
X169800500Y-92171158D01*
X169800500Y-92171155D01*
X169800499Y-92171153D01*
X169790486Y-92120814D01*
X169769737Y-92016503D01*
X169769735Y-92016498D01*
X169709397Y-91870827D01*
X169709390Y-91870814D01*
X169621789Y-91739711D01*
X169621786Y-91739707D01*
X169510292Y-91628213D01*
X169510288Y-91628210D01*
X169379185Y-91540609D01*
X169379172Y-91540602D01*
X169233501Y-91480264D01*
X169233489Y-91480261D01*
X169078845Y-91449500D01*
X169078842Y-91449500D01*
X168921158Y-91449500D01*
X168921155Y-91449500D01*
X168766510Y-91480261D01*
X168766498Y-91480264D01*
X168620827Y-91540602D01*
X168620814Y-91540609D01*
X168489711Y-91628210D01*
X168489707Y-91628213D01*
X168401092Y-91716829D01*
X168339769Y-91750314D01*
X168270077Y-91745330D01*
X168265959Y-91743709D01*
X168233498Y-91730263D01*
X168233488Y-91730260D01*
X168078845Y-91699500D01*
X168078842Y-91699500D01*
X167921158Y-91699500D01*
X167921155Y-91699500D01*
X167766510Y-91730261D01*
X167766498Y-91730264D01*
X167620827Y-91790602D01*
X167620814Y-91790609D01*
X167489711Y-91878210D01*
X167489707Y-91878213D01*
X167378213Y-91989707D01*
X167378210Y-91989711D01*
X167290609Y-92120814D01*
X167290602Y-92120827D01*
X167230264Y-92266498D01*
X167230261Y-92266510D01*
X167199500Y-92421153D01*
X165300499Y-92421153D01*
X165295527Y-92396158D01*
X165269737Y-92266503D01*
X165259380Y-92241498D01*
X165209397Y-92120827D01*
X165209390Y-92120814D01*
X165121789Y-91989711D01*
X165121786Y-91989707D01*
X165010292Y-91878213D01*
X165010288Y-91878210D01*
X164879185Y-91790609D01*
X164879172Y-91790602D01*
X164733501Y-91730264D01*
X164733489Y-91730261D01*
X164578845Y-91699500D01*
X164578842Y-91699500D01*
X164421158Y-91699500D01*
X164421155Y-91699500D01*
X164266510Y-91730261D01*
X164266498Y-91730264D01*
X164120827Y-91790602D01*
X164120814Y-91790609D01*
X163989711Y-91878210D01*
X163989707Y-91878213D01*
X163878213Y-91989707D01*
X163853102Y-92027289D01*
X163799489Y-92072093D01*
X163730164Y-92080800D01*
X163667137Y-92050645D01*
X163646898Y-92027289D01*
X163621786Y-91989707D01*
X163510292Y-91878213D01*
X163510288Y-91878210D01*
X163379185Y-91790609D01*
X163379172Y-91790602D01*
X163233501Y-91730264D01*
X163233489Y-91730261D01*
X163078845Y-91699500D01*
X163078842Y-91699500D01*
X162921158Y-91699500D01*
X162921155Y-91699500D01*
X162766510Y-91730261D01*
X162766498Y-91730264D01*
X162657622Y-91775362D01*
X162588153Y-91782831D01*
X162525674Y-91751555D01*
X162495611Y-91708257D01*
X162459394Y-91620821D01*
X162459392Y-91620818D01*
X162459390Y-91620814D01*
X162371789Y-91489711D01*
X162371786Y-91489707D01*
X162260292Y-91378213D01*
X162260288Y-91378210D01*
X162129185Y-91290609D01*
X162129172Y-91290602D01*
X161983501Y-91230264D01*
X161983489Y-91230261D01*
X161828845Y-91199500D01*
X161828842Y-91199500D01*
X161671158Y-91199500D01*
X161671155Y-91199500D01*
X161516510Y-91230261D01*
X161516498Y-91230264D01*
X161370827Y-91290602D01*
X161370814Y-91290609D01*
X161239711Y-91378210D01*
X161239707Y-91378213D01*
X161128213Y-91489707D01*
X161128210Y-91489711D01*
X161040609Y-91620814D01*
X161040602Y-91620827D01*
X160980264Y-91766498D01*
X160980261Y-91766508D01*
X160963577Y-91850383D01*
X160931191Y-91912294D01*
X160870475Y-91946868D01*
X160834934Y-91949253D01*
X160834934Y-91949500D01*
X160831254Y-91949500D01*
X160829823Y-91949596D01*
X160828847Y-91949500D01*
X160828842Y-91949500D01*
X160671158Y-91949500D01*
X160671155Y-91949500D01*
X160516510Y-91980261D01*
X160516498Y-91980264D01*
X160370827Y-92040602D01*
X160370814Y-92040609D01*
X160239711Y-92128210D01*
X160239707Y-92128213D01*
X160128213Y-92239707D01*
X160128210Y-92239711D01*
X160040609Y-92370814D01*
X160040602Y-92370827D01*
X159980264Y-92516498D01*
X159980261Y-92516510D01*
X159949500Y-92671153D01*
X153246180Y-92671153D01*
X153228076Y-92649490D01*
X153219369Y-92580165D01*
X153249523Y-92517137D01*
X153272881Y-92496898D01*
X153306981Y-92474112D01*
X153385289Y-92421789D01*
X153496789Y-92310289D01*
X153584394Y-92179179D01*
X153587719Y-92171153D01*
X153618922Y-92095821D01*
X153644737Y-92033497D01*
X153675500Y-91878842D01*
X153675500Y-91721158D01*
X153675500Y-91721155D01*
X153675499Y-91721153D01*
X153657012Y-91628213D01*
X153644737Y-91566503D01*
X153644735Y-91566498D01*
X153584397Y-91420827D01*
X153584390Y-91420814D01*
X153496789Y-91289711D01*
X153496786Y-91289707D01*
X153385292Y-91178213D01*
X153385288Y-91178210D01*
X153254185Y-91090609D01*
X153254172Y-91090602D01*
X153108501Y-91030264D01*
X153108489Y-91030261D01*
X152953845Y-90999500D01*
X152953842Y-90999500D01*
X152796158Y-90999500D01*
X152796155Y-90999500D01*
X152641510Y-91030261D01*
X152641498Y-91030264D01*
X152495827Y-91090602D01*
X152495814Y-91090609D01*
X152364711Y-91178210D01*
X152364707Y-91178213D01*
X152253213Y-91289707D01*
X152253210Y-91289711D01*
X152165609Y-91420814D01*
X152165602Y-91420827D01*
X152105264Y-91566498D01*
X152105261Y-91566510D01*
X152074500Y-91721153D01*
X151425499Y-91721153D01*
X151407012Y-91628213D01*
X151394737Y-91566503D01*
X151394735Y-91566498D01*
X151334397Y-91420827D01*
X151334390Y-91420814D01*
X151246789Y-91289711D01*
X151246786Y-91289707D01*
X151135292Y-91178213D01*
X151055108Y-91124635D01*
X151010304Y-91071022D01*
X151000000Y-91021533D01*
X151000000Y-87421153D01*
X155699500Y-87421153D01*
X155699500Y-87578846D01*
X155730261Y-87733489D01*
X155730264Y-87733501D01*
X155790602Y-87879172D01*
X155790609Y-87879185D01*
X155878210Y-88010288D01*
X155878213Y-88010292D01*
X155989707Y-88121786D01*
X155989711Y-88121789D01*
X156120814Y-88209390D01*
X156120827Y-88209397D01*
X156194013Y-88239711D01*
X156266503Y-88269737D01*
X156371418Y-88290606D01*
X156421153Y-88300499D01*
X156421156Y-88300500D01*
X156421158Y-88300500D01*
X156578844Y-88300500D01*
X156578845Y-88300499D01*
X156733497Y-88269737D01*
X156879179Y-88209394D01*
X157010289Y-88121789D01*
X157121789Y-88010289D01*
X157209394Y-87879179D01*
X157269737Y-87733497D01*
X157300500Y-87578842D01*
X157300500Y-87421158D01*
X157300500Y-87421155D01*
X157300499Y-87421153D01*
X157276499Y-87300499D01*
X157269737Y-87266503D01*
X157269735Y-87266498D01*
X157226665Y-87162515D01*
X157209795Y-87121789D01*
X157209530Y-87121150D01*
X169199500Y-87121150D01*
X169199500Y-87278843D01*
X169230261Y-87433486D01*
X169230264Y-87433498D01*
X169279575Y-87552546D01*
X169287044Y-87622015D01*
X169279575Y-87647450D01*
X169230264Y-87766498D01*
X169230261Y-87766510D01*
X169199500Y-87921153D01*
X169199500Y-88078846D01*
X169230261Y-88233489D01*
X169230264Y-88233501D01*
X169290602Y-88379172D01*
X169290609Y-88379185D01*
X169378210Y-88510288D01*
X169378213Y-88510292D01*
X169489707Y-88621786D01*
X169489711Y-88621789D01*
X169620814Y-88709390D01*
X169620827Y-88709397D01*
X169758683Y-88766498D01*
X169766503Y-88769737D01*
X169921153Y-88800499D01*
X169921156Y-88800500D01*
X169921158Y-88800500D01*
X170078844Y-88800500D01*
X170078845Y-88800499D01*
X170233497Y-88769737D01*
X170379179Y-88709394D01*
X170436411Y-88671153D01*
X175199500Y-88671153D01*
X175199500Y-88828846D01*
X175230261Y-88983489D01*
X175230264Y-88983501D01*
X175290602Y-89129172D01*
X175290609Y-89129185D01*
X175378210Y-89260288D01*
X175378213Y-89260292D01*
X175489707Y-89371786D01*
X175489711Y-89371789D01*
X175620814Y-89459390D01*
X175620827Y-89459397D01*
X175766498Y-89519735D01*
X175766503Y-89519737D01*
X175921153Y-89550499D01*
X175921156Y-89550500D01*
X175921158Y-89550500D01*
X176078844Y-89550500D01*
X176078845Y-89550499D01*
X176233497Y-89519737D01*
X176379179Y-89459394D01*
X176510289Y-89371789D01*
X176621789Y-89260289D01*
X176709394Y-89129179D01*
X176769737Y-88983497D01*
X176800500Y-88828842D01*
X176800500Y-88671158D01*
X176800500Y-88671155D01*
X176800499Y-88671153D01*
X176769738Y-88516510D01*
X176769737Y-88516503D01*
X176758641Y-88489714D01*
X176709397Y-88370827D01*
X176709390Y-88370814D01*
X176621789Y-88239711D01*
X176621786Y-88239707D01*
X176556964Y-88174885D01*
X176523479Y-88113562D01*
X176528463Y-88043870D01*
X176570335Y-87987937D01*
X176597190Y-87972643D01*
X176629179Y-87959394D01*
X176760289Y-87871789D01*
X176871789Y-87760289D01*
X176959394Y-87629179D01*
X177019737Y-87483497D01*
X177050500Y-87328842D01*
X177050500Y-87171158D01*
X177050500Y-87171155D01*
X177050499Y-87171153D01*
X177019738Y-87016510D01*
X177019737Y-87016503D01*
X177012901Y-87000000D01*
X176959397Y-86870827D01*
X176959390Y-86870814D01*
X176871789Y-86739711D01*
X176871786Y-86739707D01*
X176760292Y-86628213D01*
X176760288Y-86628210D01*
X176629185Y-86540609D01*
X176629172Y-86540602D01*
X176483501Y-86480264D01*
X176483489Y-86480261D01*
X176328845Y-86449500D01*
X176328842Y-86449500D01*
X176171158Y-86449500D01*
X176171155Y-86449500D01*
X176016510Y-86480261D01*
X176016498Y-86480264D01*
X175870827Y-86540602D01*
X175870814Y-86540609D01*
X175739711Y-86628210D01*
X175739707Y-86628213D01*
X175628213Y-86739707D01*
X175628210Y-86739711D01*
X175540609Y-86870814D01*
X175540602Y-86870827D01*
X175480264Y-87016498D01*
X175480261Y-87016510D01*
X175449500Y-87171153D01*
X175449500Y-87328846D01*
X175480261Y-87483489D01*
X175480264Y-87483501D01*
X175540602Y-87629172D01*
X175540609Y-87629185D01*
X175628210Y-87760288D01*
X175628213Y-87760292D01*
X175693035Y-87825114D01*
X175726520Y-87886437D01*
X175721536Y-87956129D01*
X175679664Y-88012062D01*
X175652809Y-88027355D01*
X175620826Y-88040603D01*
X175620814Y-88040609D01*
X175489711Y-88128210D01*
X175489707Y-88128213D01*
X175378213Y-88239707D01*
X175378210Y-88239711D01*
X175290609Y-88370814D01*
X175290602Y-88370827D01*
X175230264Y-88516498D01*
X175230261Y-88516510D01*
X175199500Y-88671153D01*
X170436411Y-88671153D01*
X170510289Y-88621789D01*
X170511264Y-88620814D01*
X170554694Y-88577385D01*
X170621786Y-88510292D01*
X170621789Y-88510289D01*
X170709394Y-88379179D01*
X170712854Y-88370827D01*
X170746082Y-88290606D01*
X170769737Y-88233497D01*
X170800500Y-88078842D01*
X170800500Y-87921158D01*
X170800500Y-87921155D01*
X170800499Y-87921153D01*
X170796973Y-87903425D01*
X170769737Y-87766503D01*
X170720423Y-87647449D01*
X170712955Y-87577981D01*
X170720424Y-87552546D01*
X170769737Y-87433494D01*
X170800500Y-87278839D01*
X170800500Y-87121155D01*
X170800500Y-87121152D01*
X170800499Y-87121150D01*
X170785976Y-87048139D01*
X170769737Y-86966500D01*
X170769735Y-86966495D01*
X170709397Y-86820824D01*
X170709390Y-86820811D01*
X170621789Y-86689708D01*
X170621786Y-86689704D01*
X170510292Y-86578210D01*
X170510288Y-86578207D01*
X170420434Y-86518168D01*
X170379185Y-86490606D01*
X170379172Y-86490599D01*
X170233501Y-86430261D01*
X170233489Y-86430258D01*
X170187716Y-86421153D01*
X171199500Y-86421153D01*
X171199500Y-86578846D01*
X171230261Y-86733489D01*
X171230264Y-86733501D01*
X171290602Y-86879172D01*
X171290609Y-86879185D01*
X171378210Y-87010288D01*
X171378213Y-87010292D01*
X171489707Y-87121786D01*
X171489711Y-87121789D01*
X171620814Y-87209390D01*
X171620827Y-87209397D01*
X171758683Y-87266498D01*
X171766503Y-87269737D01*
X171921153Y-87300499D01*
X171921156Y-87300500D01*
X171921158Y-87300500D01*
X172078844Y-87300500D01*
X172078845Y-87300499D01*
X172233497Y-87269737D01*
X172379179Y-87209394D01*
X172510289Y-87121789D01*
X172621789Y-87010289D01*
X172709394Y-86879179D01*
X172712854Y-86870827D01*
X172741984Y-86800499D01*
X172769737Y-86733497D01*
X172800500Y-86578842D01*
X172800500Y-86421158D01*
X172800500Y-86421155D01*
X172800499Y-86421153D01*
X172792148Y-86379172D01*
X172769737Y-86266503D01*
X172716573Y-86138152D01*
X172709397Y-86120827D01*
X172709390Y-86120814D01*
X172621789Y-85989711D01*
X172621786Y-85989707D01*
X172510292Y-85878213D01*
X172510288Y-85878210D01*
X172379185Y-85790609D01*
X172379172Y-85790602D01*
X172233501Y-85730264D01*
X172233489Y-85730261D01*
X172078845Y-85699500D01*
X172078842Y-85699500D01*
X171921158Y-85699500D01*
X171921155Y-85699500D01*
X171766510Y-85730261D01*
X171766498Y-85730264D01*
X171620827Y-85790602D01*
X171620814Y-85790609D01*
X171489711Y-85878210D01*
X171489707Y-85878213D01*
X171378213Y-85989707D01*
X171378210Y-85989711D01*
X171290609Y-86120814D01*
X171290602Y-86120827D01*
X171230264Y-86266498D01*
X171230261Y-86266510D01*
X171199500Y-86421153D01*
X170187716Y-86421153D01*
X170078845Y-86399497D01*
X170078842Y-86399497D01*
X169921158Y-86399497D01*
X169921155Y-86399497D01*
X169766510Y-86430258D01*
X169766498Y-86430261D01*
X169620827Y-86490599D01*
X169620814Y-86490606D01*
X169489711Y-86578207D01*
X169489707Y-86578210D01*
X169378213Y-86689704D01*
X169378210Y-86689708D01*
X169290609Y-86820811D01*
X169290602Y-86820824D01*
X169230264Y-86966495D01*
X169230261Y-86966507D01*
X169199500Y-87121150D01*
X157209530Y-87121150D01*
X157209394Y-87120821D01*
X157209392Y-87120818D01*
X157209390Y-87120814D01*
X157121789Y-86989711D01*
X157121786Y-86989707D01*
X157010292Y-86878213D01*
X157010288Y-86878210D01*
X156879185Y-86790609D01*
X156879172Y-86790602D01*
X156733501Y-86730264D01*
X156733489Y-86730261D01*
X156578845Y-86699500D01*
X156578842Y-86699500D01*
X156421158Y-86699500D01*
X156421155Y-86699500D01*
X156266510Y-86730261D01*
X156266498Y-86730264D01*
X156120827Y-86790602D01*
X156120814Y-86790609D01*
X155989711Y-86878210D01*
X155989707Y-86878213D01*
X155878213Y-86989707D01*
X155878210Y-86989711D01*
X155790609Y-87120814D01*
X155790602Y-87120827D01*
X155730264Y-87266498D01*
X155730261Y-87266510D01*
X155699500Y-87421153D01*
X151000000Y-87421153D01*
X151000000Y-87000000D01*
X131424500Y-87000000D01*
X131357461Y-86980315D01*
X131311706Y-86927511D01*
X131300500Y-86876000D01*
X131300500Y-84075602D01*
X131320185Y-84008563D01*
X131372989Y-83962808D01*
X131442147Y-83952864D01*
X131505703Y-83981889D01*
X131536064Y-84024001D01*
X131536954Y-84023573D01*
X131694432Y-84350579D01*
X131697991Y-84356243D01*
X131885685Y-84654956D01*
X132109812Y-84936003D01*
X132363997Y-85190188D01*
X132645044Y-85414315D01*
X132949418Y-85605566D01*
X133273292Y-85761536D01*
X133528119Y-85850703D01*
X133612580Y-85880258D01*
X133612592Y-85880262D01*
X133963052Y-85960252D01*
X134320260Y-86000499D01*
X134320261Y-86000500D01*
X134320264Y-86000500D01*
X134679739Y-86000500D01*
X134679739Y-86000499D01*
X135036948Y-85960252D01*
X135387408Y-85880262D01*
X135726708Y-85761536D01*
X136050582Y-85605566D01*
X136354956Y-85414315D01*
X136636003Y-85190188D01*
X136890188Y-84936003D01*
X137114315Y-84654956D01*
X137305566Y-84350582D01*
X137362194Y-84232993D01*
X137385386Y-84184836D01*
X137385387Y-84184834D01*
X137461531Y-84026719D01*
X137461532Y-84026716D01*
X137461536Y-84026708D01*
X137580262Y-83687408D01*
X137660252Y-83336948D01*
X137700500Y-82979736D01*
X137700500Y-82620264D01*
X137660252Y-82263052D01*
X137580262Y-81912592D01*
X137461536Y-81573292D01*
X137305566Y-81249418D01*
X137114315Y-80945044D01*
X136890188Y-80663997D01*
X136636003Y-80409812D01*
X136354956Y-80185685D01*
X136050582Y-79994434D01*
X136050579Y-79994432D01*
X135723573Y-79836954D01*
X135724123Y-79835809D01*
X135673759Y-79795240D01*
X135651682Y-79728950D01*
X135668948Y-79661247D01*
X135720076Y-79613627D01*
X135775602Y-79600500D01*
X191224398Y-79600500D01*
X191291437Y-79620185D01*
G37*
%TD.AperFunction*%
%TD*%
M02*
